<svg><defs><font horiz-adv-x="500"><font-face ascent="749" bbox="-194 -251 1064 904" cap-height="637" descent="-251" panose-1="2 11 8 4 2 1 1 1 1 2" underline-position="-35" underline-thickness="80" unicode-range="U+000D-2212" x-height="445"/><missing-glyph d="M62 0v637h415v-637h-415zM153 91h233v455h-233v-455z" horiz-adv-x="539"/><glyph d="M685 580q-22 22-76 22-119 0-119-136v-21h111v-105h-111v-340h-133v340h-144v-340h-133v340h-60v105h60v23q0 114 64 184t156 70q42 0 69-12v-120q-20 12-56 12-100 0-100-136v-21h144v23q0 116 66 185t169 69q59 0 93-21v-121z" glyph-name="f_f" horiz-adv-x="622" unicode="&#x66;&#x66;"/><glyph d="M767 0h-133v340h-144v-340h-133v340h-144v-340h-133v340h-60v105h60v23q0 114 64 184t156 70q42 0 69-12v-120q-20 12-56 12-100 0-100-136v-21h144v23q0 116 71.5 185t199.5 69q88 0 133-25v-124q-13 11-45.5 20t-70.5 9q-76 0-115.5-32t-39.5-104v-21h277v-445z" glyph-name="f_f_i" horiz-adv-x="829" unicode="&#x66;&#x66;&#x69;"/><glyph d="M767 445v-411q0-60-10-104t-37-97l-41-83-117 49 32 71q25 55 32.5 85.5t7.5 78.5v306h-144v-340h-133v340h-144v-340h-133v340h-60v105h60v23q0 114 64 184t156 70q42 0 69-12v-120q-20 12-56 12-100 0-100-136v-21h144v23q0 116 71.5 185t199.5 69q88 0 133-25v-124q-13 11-45.5 20t-70.5 9q-76 0-115.5-32t-39.5-104v-21h277z" glyph-name="f_f_j" horiz-adv-x="829" unicode="&#x66;&#x66;&#x6a;"/><glyph d="M781 0h-133v587q-15 5-40 5-118 0-118-132v-15h96v-105h-96v-340h-133v340h-144v-340h-133v340h-60v105h60v23q0 114 64 184t156 70q42 0 69-12v-120q-20 12-56 12-100 0-100-136v-21h144v17q0 111 65.5 180.5t174.5 69.5q42 0 72-9l112 19v-722z" glyph-name="f_f_l" horiz-adv-x="843" unicode="&#x66;&#x66;&#x6c;"/><glyph d="M490 0h-133v340h-144v-340h-133v340h-60v105h60v23q0 116 71.5 185t199.5 69q88 0 133-25v-124q-13 11-45.5 20t-70.5 9q-76 0-115.5-32t-39.5-104v-21h277v-445z" glyph-name="f_i" horiz-adv-x="552" unicode="&#x66;&#x69;"/><glyph d="M490 445v-411q0-60-10-104t-37-97l-41-83-117 49 32 71q25 55 32.5 85.5t7.5 78.5v306h-144v-340h-133v340h-60v105h60v23q0 116 71.5 185t199.5 69q88 0 133-25v-124q-13 11-45.5 20t-70.5 9q-76 0-115.5-32t-39.5-104v-21h277z" glyph-name="f_j" horiz-adv-x="552" unicode="&#x66;&#x6a;"/><glyph d="M504 0h-133v587q-15 5-40 5-118 0-118-132v-15h96v-105h-96v-340h-133v340h-60v105h60v17q0 111 65.5 180.5t174.5 69.5q42 0 72-9l112 19v-722z" glyph-name="f_l" horiz-adv-x="566" unicode="&#x66;&#x6c;"/><glyph d="M62 0v637h415v-637h-415zM153 91h233v455h-233v-455z" glyph-name=".notdef" horiz-adv-x="539"/><glyph glyph-name=".null" horiz-adv-x="0"/><glyph glyph-name=".null" horiz-adv-x="0"/><glyph glyph-name="nonmarkingreturn" horiz-adv-x="333"/><glyph glyph-name="CR" horiz-adv-x="250" unicode="&#xd;"/><glyph glyph-name="space" horiz-adv-x="250" unicode="&#x20;"/><glyph d="M216 236h-102l-27 401h156zM165-10q-34 0-55 20t-21 56q0 38 21 58t55 20 55-20 21-58q0-36-21-56t-55-20z" glyph-name="exclam" horiz-adv-x="330" unicode="&#x21;"/><glyph d="M161 455h-113l-13 257h139zM329 455h-113l-13 257h139z" glyph-name="quotedbl" horiz-adv-x="377" unicode="&#x22;"/><glyph d="M470 495l-20-106-79-8-20-101 82 8-20-106-83-8-35-181-68 8 32 166-79-8-32-166-68 8 29 151-78-7 20 106 79 7 20 102-82-8 20 106 82 8 28 140 68-8-25-125 79 7 25 126 68-8-22-111zM221 367l-20-102 79 8 20 101z" glyph-name="numbersign" unicode="&#x23;"/><glyph d="M421 461q-19 13-56 23t-74 11l-8-109q35-13 58.5-24.5t51-32 41.5-50.5 14-69q0-71-50.5-119t-140.5-55l-7-95h-46l7 94q-97 3-145 36l7 116q22-17 62-31.5t83-15.5l9 121q-30 11-46.5 18t-42.5 22.5-40 31.5-25 41-11 55q0 69 51 117t139 55l8 100h46l-7-99q80-3 122-26v-115zM320 193q0 31-48 51l-7-102q55 6 55 51zM190 446q0-22 48-43l6 89q-54-6-54-46z" glyph-name="dollar" unicode="&#x24;"/><glyph d="M718 158q0-72-46-111.5t-111-39.5q-67 0-112 38.5t-45 112.5q0 72 46 111.5t111 39.5q67 0 112-38.5t45-112.5zM561 90q58 0 58 68t-58 68-58-68 58-68zM165-23l353 697 60-16-353-697zM339 477q0-72-46-111.5t-111-39.5q-67 0-112 38.5t-45 112.5q0 72 46 111.5t111 39.5q67 0 112-38.5t45-112.5zM182 409q58 0 58 68t-58 68-58-68 58-68z" glyph-name="percent" horiz-adv-x="743" unicode="&#x25;"/><glyph d="M716 383l-95-136q-42-60-85-105 56-32 111-32 25 0 43 10l-16-120q-34-10-72-10-89 0-175 62-96-62-198-62-98 0-153.5 46.5t-55.5 126.5q0 105 143 195-32 63-32 120 0 73 51 121t137 48q78 0 121-34.5t43-96.5q0-49-33-87.5t-114-90.5q57-76 107-125 38 40 72 89l56 81h145zM241 111q46 0 94 22-55 55-117 137-62-41-62-87 0-34 22-53t63-19zM257 492q0-27 21-67 50 28 67.5 44.5t17.5 34.5q0 41-49 41-26 0-41.5-14.5t-15.5-38.5z" glyph-name="ampersand" horiz-adv-x="736" unicode="&#x26;"/><glyph d="M161 455h-113l-13 257h139z" glyph-name="quotesingle" horiz-adv-x="209" unicode="&#x27;"/><glyph d="M282-64l-91-71q-166 126-166 407t166 407l91-71q-122-105-122-336t122-336z" glyph-name="parenleft" horiz-adv-x="282" unicode="&#x28;"/><glyph d="M0 608l91 71q166-126 166-407t-166-407l-91 71q122 105 122 336t-122 336z" glyph-name="parenright" horiz-adv-x="282" unicode="&#x29;"/><glyph d="M255 295l-49 99-48-99-101 74 80 76-111 17 40 116 98-49-19 108h123l-19-108 98 49 40-116-111-17 80-76z" glyph-name="asterisk" horiz-adv-x="413" unicode="&#x2a;"/><glyph d="M299 18h-98v160h-143v91h143v160h98v-160h143v-91h-143v-160z" glyph-name="plus" unicode="&#x2b;"/><glyph d="M111-171l-107 30q50 97 68.5 154.5t20.5 117.5h125q0-71-21.5-136.5t-85.5-165.5z" glyph-name="comma" horiz-adv-x="270" unicode="&#x2c;"/><glyph d="M247 187l-194-37v113l194 37v-113z" glyph-name="hyphen" horiz-adv-x="300" unicode="&#x2d;"/><glyph d="M135-10q-34 0-55 20t-21 56q0 38 21 58t55 20 55-20 21-58q0-36-21-56t-55-20z" glyph-name="period" horiz-adv-x="270" unicode="&#x2e;"/><glyph d="M397 656l-337-792-105 16 337 792z" glyph-name="slash" horiz-adv-x="396" unicode="&#x2f;"/><glyph d="M250-10q-99 0-155 63.5t-56 184.5q0 117 56.5 183.5t154.5 66.5 154.5-63.5 56.5-184.5q0-116-57-183t-154-67zM250 108q45 0 63 30t18 101q0 70-18.5 100.5t-62.5 30.5q-45 0-63-29.5t-18-101.5q0-70 18.5-100.5t62.5-30.5z" glyph-name="zero" unicode="&#x30;"/><glyph d="M379 0h-334v107l110 8v245h-105v95l105 23h133v-363l91-8v-107z" glyph-name="one" horiz-adv-x="400" unicode="&#x31;"/><glyph d="M447 0h-373v120q117 61 165.5 98t48.5 80q0 70-75 70-59 0-75-45l-87 63q12 43 58.5 72.5t119.5 29.5q87 0 140-44.5t53-125.5q0-118-158-198h192z" glyph-name="two" unicode="&#x32;"/><glyph d="M441 27q0-86-64-141t-175-55q-94 0-144 35v127q20-17 58.5-29t80.5-12q56 0 81.5 19t25.5 60q0 40-28 57.5t-91 17.5h-56v121h56q110 0 110 73 0 31-20.5 49t-59.5 18q-68 0-83-44l-87 63q12 44 59.5 73t123.5 29q94 0 148.5-47t54.5-124q0-89-85-140 95-47 95-150z" glyph-name="three" unicode="&#x33;"/><glyph d="M456 0h-50v-159h-133v159h-233v128q87 146 119.5 217.5t44.5 132.5h122q-8-68-42.5-146.5t-128.5-220.5h118l27 141h106v-129h59z" glyph-name="four" unicode="&#x34;"/><glyph d="M430 355h-206l-16-102q111-14 174-68t63-149q0-92-67.5-148.5t-163.5-56.5q-121 0-163 53l16 127q21-27 59-43t82-16q102 0 102 83 0 104-227 104v78l41 261h315z" glyph-name="five" unicode="&#x35;"/><glyph d="M459 190q0-90-58.5-145t-146.5-55q-96 0-154 59t-58 167q0 79 33.5 158t109 153 182.5 120l80-90q-210-90-250-224 37 33 97 33 68 0 116.5-45.5t48.5-130.5zM252 99q75 0 75 83 0 38-20.5 58.5t-55.5 20.5q-37 0-56.5-21.5t-19.5-60.5q0-80 77-80z" glyph-name="six" unicode="&#x36;"/><glyph d="M196-159h-130q12 101 65.5 214.5t178.5 299.5h-265l9 123h398v-132q-133-191-187-302t-69-203z" glyph-name="seven" unicode="&#x37;"/><glyph d="M456 173q0-79-61-131t-149-52q-95 0-149 41t-54 112q0 98 99 169-89 61-89 155 0 80 55.5 130t145.5 50q85 0 138-40t53-114q0-90-101-151 59-36 85.5-76t26.5-93zM221 269q-58-42-58-102 0-68 83-68 38 0 60 16.5t22 47.5-23 53-84 53zM265 385q60 43 60 92 0 61-72 61t-72-61q0-26 19-47t65-45z" glyph-name="eight" unicode="&#x38;"/><glyph d="M41 288q0 90 58.5 145t146.5 55q96 0 154-59t58-167q0-79-33.5-158t-109-153-182.5-120l-80 90q210 90 250 224-37-33-97-33-68 0-116.5 45.5t-48.5 130.5zM248 379q-75 0-75-83 0-38 20.5-58.5t55.5-20.5q37 0 56.5 21.5t19.5 60.5q0 80-77 80z" glyph-name="nine" unicode="&#x39;"/><glyph d="M155-10q-34 0-55 20t-21 56q0 38 21 58t55 20 55-20 21-58q0-36-21-56t-55-20zM155 291q-34 0-55 20t-21 56q0 38 21 58t55 20 55-20 21-58q0-36-21-56t-55-20z" glyph-name="colon" horiz-adv-x="310" unicode="&#x3a;"/><glyph d="M155 291q-34 0-55 20t-21 56q0 38 21 58t55 20 55-20 21-58q0-36-21-56t-55-20zM119-171l-107 30q50 97 68.5 154.5t20.5 117.5h125q0-71-21.5-136.5t-85.5-165.5z" glyph-name="semicolon" horiz-adv-x="310" unicode="&#x3b;"/><glyph d="M402 18h-116l-204 205 204 206h116v-7l-196-195 196-201v-8z" glyph-name="less" unicode="&#x3c;"/><glyph d="M442 274h-384v91h384v-91zM442 82h-384v91h384v-91z" glyph-name="equal" unicode="&#x3d;"/><glyph d="M418 224l-204-206h-116v7l196 195-196 201v8h116z" glyph-name="greater" unicode="&#x3e;"/><glyph d="M140 228l-26 119q80 15 113 40.5t33 64.5q0 34-24.5 53.5t-72.5 19.5q-56 0-90-22v123q42 21 106 21 99 0 157-49.5t58-139.5q0-87-65.5-149t-188.5-81zM187-10q-34 0-55 20t-21 56q0 38 21 58t55 20 55-20 21-58q0-36-21-56t-55-20z" glyph-name="question" horiz-adv-x="431" unicode="&#x3f;"/><glyph d="M579-45l10-87q-31-37-96-60.5t-137-23.5q-150 0-241.5 89t-91.5 252q0 110 40.5 207t110 166 164.5 109 201 40q171 0 271.5-85.5t100.5-225.5q0-70-28-133t-71.5-105.5-97-67.5-105.5-25q-49 0-74 22t-25 53q0 10 5 27-91-101-161-101-40 0-68.5 32.5t-28.5 95.5q0 118 71 209t155 91q59 0 100-53l26 35h90l-62-203q-18-59-18-82 0-34 38-34 54 0 109 70.5t55 165.5q0 109-78 172t-214 63q-168 0-290.5-126.5t-122.5-316.5q0-124 68.5-190.5t187.5-66.5q63 0 118 24.5t89 62.5zM515 195l38 115q-28 39-62 39-39 0-79-59.5t-40-131.5q0-49 34-49 38 0 109 86z" glyph-name="at" horiz-adv-x="934" unicode="&#x40;"/><glyph d="M493 0l-59 161h-231l-60-161h-142l245 637h153l245-637h-151zM306 438l-60-160h145l-59 160-13 54z" glyph-name="A" horiz-adv-x="645" unicode="&#x41;"/><glyph d="M531 188q0-88-65.5-138t-176.5-50h-218v637h219q104 0 157.5-43.5t53.5-122.5q0-86-71-131 101-48 101-152zM363 451q0 37-22 53.5t-69 16.5h-63v-144h65q89 0 89 74zM390 195q0 39-25 55t-81 16h-75v-150h74q107 0 107 79z" glyph-name="B" horiz-adv-x="560" unicode="&#x42;"/><glyph d="M587 178v-139q-70-49-190-49-164 0-268 87t-104 233q0 149 100 243t253 94q131 0 205-43v-144q-29 26-81.5 42.5t-110.5 16.5q-99 0-158-53.5t-59-155.5q0-88 60.5-140t167.5-52q58 0 109.5 17t75.5 43z" glyph-name="C" horiz-adv-x="629" unicode="&#x43;"/><glyph d="M214 515v-393h97q96 0 150 50.5t54 153.5q0 102-57 145.5t-168 43.5h-76zM321 0h-250v637h227q173 0 269.5-76t96.5-235q0-147-99-236.5t-244-89.5z" glyph-name="D" horiz-adv-x="689" unicode="&#x44;"/><glyph d="M509 0h-438v637h428v-127h-285v-126h255v-127h-255v-130h295v-127z" glyph-name="E" horiz-adv-x="551" unicode="&#x45;"/><glyph d="M214 0h-143v637h432v-127h-289v-134h259v-127h-259v-249z" glyph-name="F" horiz-adv-x="533" unicode="&#x46;"/><glyph d="M610 296v-261q-88-45-216-45-167 0-268 85.5t-101 234.5q0 152 103.5 244.5t269.5 92.5q125 0 201-42v-145q-30 25-84 42t-113 17q-105 0-166.5-54.5t-61.5-154.5q0-95 61-144t170-49q37 0 66 6v173h139z" glyph-name="G" horiz-adv-x="674" unicode="&#x47;"/><glyph d="M623 0h-143v256h-266v-256h-143v637h143v-252h266v252h143v-637z" glyph-name="H" horiz-adv-x="694" unicode="&#x48;"/><glyph d="M214 0h-143v637h143v-637z" glyph-name="I" horiz-adv-x="285" unicode="&#x49;"/><glyph d="M214 637v-530q0-62-11.5-104.5t-43.5-98.5l-62-109-118 63 55 104q37 69 37 136v539h143z" glyph-name="J" horiz-adv-x="285" unicode="&#x4a;"/><glyph d="M640 0h-177l-208 260h-41v-260h-143v637h143v-254h41l210 254h167l-264-302z" glyph-name="K" horiz-adv-x="648" unicode="&#x4b;"/><glyph d="M489 0h-418v637h143v-510h275v-127z" glyph-name="L" horiz-adv-x="506" unicode="&#x4c;"/><glyph d="M779 0h-135v477l-17-71-134-366h-146l-134 366-17 71v-477h-125v637h186l140-382 28-101 28 101 140 382h186v-637z" glyph-name="M" horiz-adv-x="850" unicode="&#x4d;"/><glyph d="M611 0h-140l-235 393-32 72v-465h-133v637h164l211-353 32-72v425h133v-637z" glyph-name="N" horiz-adv-x="682" unicode="&#x4e;"/><glyph d="M25 314q0 147 102.5 240t239.5 93q144 0 240-87t96-237q0-147-102.5-240t-239.5-93q-144 0-240 87.5t-96 236.5zM554 323q0 93-53.5 146.5t-133.5 53.5q-82 0-137.5-57t-55.5-152q0-93 53.5-146.5t133.5-53.5q82 0 137.5 56.5t55.5 152.5z" glyph-name="O" horiz-adv-x="728" unicode="&#x4f;"/><glyph d="M214 0h-143v637h228q114 0 175.5-52.5t61.5-153.5q0-95-66-154.5t-178-59.5h-78v-217zM214 517v-180h70q50 0 79 23t29 70q0 87-112 87h-66z" glyph-name="P" horiz-adv-x="566" unicode="&#x50;"/><glyph d="M720-18v-122q-33-22-82-22-64 0-122 20.5t-130 71.5l-99 70q-119 23-190.5 106t-71.5 208q0 147 102.5 240t239.5 93q145 0 240.5-85.5t95.5-238.5q0-107-59.5-187.5t-154.5-117.5q85-50 161-50 45 0 70 14zM554 323q0 93-53.5 146.5t-133.5 53.5q-82 0-137.5-57t-55.5-152q0-93 53.5-146.5t133.5-53.5q82 0 137.5 56.5t55.5 152.5z" glyph-name="Q" horiz-adv-x="728" unicode="&#x51;"/><glyph d="M211 338h70q50 0 78 25.5t28 70.5q0 87-108 87h-68v-183zM601 0h-166l-142 230h-82v-230h-140v637h225q115 0 175-52t60-141q0-54-29-99.5t-79-70.5z" glyph-name="R" horiz-adv-x="599" unicode="&#x52;"/><glyph d="M455 188q0-87-62.5-142.5t-174.5-55.5q-124 0-182 42l12 132q66-53 165-53 52 0 72.5 16t20.5 48q0 28-27.5 48.5t-67 36.5-79 37-67 60-27.5 94q0 87 63.5 141.5t173.5 54.5q100 0 153-30v-131q-22 16-63.5 28t-83.5 12q-54 0-74-15.5t-20-45.5q0-22 27.5-40t67-34.5 79-38.5 67-64 27.5-100z" glyph-name="S" horiz-adv-x="485" unicode="&#x53;"/><glyph d="M561 510h-199v-510h-143v510h-199v127h541v-127z" glyph-name="T" horiz-adv-x="581" unicode="&#x54;"/><glyph d="M613 637v-428q0-97-76.5-158t-205.5-61q-127 0-198.5 60.5t-71.5 158.5v428h143v-388q0-59 31.5-90.5t105.5-31.5 105.5 31.5 31.5 90.5v388h135z" glyph-name="U" horiz-adv-x="674" unicode="&#x55;"/><glyph d="M637 637l-238-637h-153l-238 637h152l146-414 20-74 20 74 148 414h143z" glyph-name="V" horiz-adv-x="645" unicode="&#x56;"/><glyph d="M956 637l-186-637h-158l-102 349-16 81-17-81-110-349h-158l-182 637h147l107-415 15-81 17 81 113 327-28 88h149l126-415 17-81 15 81 113 415h138z" glyph-name="W" horiz-adv-x="981" unicode="&#x57;"/><glyph d="M634 0h-171l-145 226-152-226h-151l226 325-222 312h171l143-212 146 212h151l-220-313z" glyph-name="X" horiz-adv-x="649" unicode="&#x58;"/><glyph d="M577 637l-214-384v-253h-143v253l-214 384h157l101-188 32-68 31 68 102 188h148z" glyph-name="Y" horiz-adv-x="583" unicode="&#x59;"/><glyph d="M542 0h-506v113l323 397h-297v127h468v-113l-323-397h335v-127z" glyph-name="Z" horiz-adv-x="579" unicode="&#x5a;"/><glyph d="M282-118h-212v784h212v-104h-85v-576h85v-104z" glyph-name="bracketleft" horiz-adv-x="305" unicode="&#x5b;"/><glyph d="M336-136l-337 792 105 16 337-792z" glyph-name="backslash" horiz-adv-x="396" unicode="&#x5c;"/><glyph d="M23 666h212v-784h-212v104h85v576h-85v104z" glyph-name="bracketright" horiz-adv-x="305" unicode="&#x5d;"/><glyph d="M424 254l-116-14-85 198-86-198-111 14 120 285h158z" glyph-name="asciicircum" horiz-adv-x="450" unicode="&#x5e;"/><glyph d="M500-142h-500v91h500v-91z" glyph-name="underscore" unicode="&#x5f;"/><glyph d="M334 511l-96-11-117 170h154z" glyph-name="grave" horiz-adv-x="450" unicode="&#x60;"/><glyph d="M279 31q-55-41-121-41-62 0-97.5 31.5t-35.5 84.5q0 73 52.5 110.5t179.5 49.5v29q0 27-21 35-18 7-52 7-44 0-81-14t-54-33v123q59 42 154 42 184 0 184-163 0-7-3.5-89t-3.5-94q13-10 33-10 9 0 15 2l-12-105q-18-6-41-6-55 0-96 41zM257 95v88q-64-8-86.5-20t-22.5-39q0-22 13-31t44-9q28 0 52 11z" glyph-name="a" horiz-adv-x="446" unicode="&#x61;"/><glyph d="M195 117q24-12 60-12 51 0 81 31.5t30 94.5q0 109-106 109-39 0-65-14v-209zM62 37v663l133 22v-297q44 30 109 30 89 0 145.5-56.5t56.5-167.5q0-107-70-174t-182-67q-118 0-192 47z" glyph-name="b" horiz-adv-x="529" unicode="&#x62;"/><glyph d="M427 338l-118-52q-7 52-67 52-38 0-59-29.5t-21-86.5q0-110 122-110 37 0 70.5 13t51.5 31v-121q-51-45-144-45-114 0-176.5 62t-62.5 170q0 105 63.5 169t162.5 64q77 0 125-32t53-85z" glyph-name="c" horiz-adv-x="442" unicode="&#x63;"/><glyph d="M465 722v-688q-85-44-200-44-112 0-177 60t-65 167 66.5 172.5 178.5 65.5q32 0 64-9v254zM332 114v216q-23 10-62 10-51 0-79-31t-28-92q0-59 29.5-85.5t78.5-26.5q36 0 61 9z" glyph-name="d" horiz-adv-x="527" unicode="&#x64;"/><glyph d="M419 149v-114q-54-45-150-45-117 0-181.5 62t-64.5 166q0 110 63 173.5t160 63.5q88 0 138.5-50t50.5-142q0-38-5-73h-275q2-31 35.5-57.5t96.5-26.5q41 0 77.5 12.5t54.5 30.5zM159 278h153v9q0 67-70 67-37 0-58.5-21.5t-24.5-54.5z" glyph-name="e" horiz-adv-x="462" unicode="&#x65;"/><glyph d="M213 0h-133v340h-60v105h60v23q0 116 66 185t169 69q59 0 93-21v-121q-22 22-76 22-119 0-119-136v-21h111v-105h-111v-340z" glyph-name="f" horiz-adv-x="345" unicode="&#x66;"/><glyph d="M465 510q6-14 6-29 0-41-26-64.5t-72-23.5q48-44 48-116 0-75-55-124.5t-137-49.5q-12 0-20 1l-22-17q-10-7-10-16 0-10 16-10h148q133 0 133-121 0-82-78-136t-201-54q-96 0-144.5 28t-48.5 78q0 64 85 109-44 24-44 65 0 22 11 38l78 54q-98 46-98 154 0 79 55 129t138 50q60 0 97-21l25 76h116zM161-58q-32-24-32-48 0-40 85-40 66 0 98.5 17.5t32.5 44.5q0 26-35 26h-149zM228 199q33 0 52 22t19 60-19 58-53 20q-33 0-52-22t-19-60 19-58 53-20z" glyph-name="g" horiz-adv-x="472" unicode="&#x67;"/><glyph d="M487 0h-133v287q0 27-14 38.5t-48 11.5q-54 0-97-26v-311h-133v700l133 22v-315q65 48 148 48 144 0 144-135v-320z" glyph-name="h" horiz-adv-x="545" unicode="&#x68;"/><glyph d="M128 522q-38 0-57.5 21t-19.5 55q0 35 20 56t58 21 58-21.5 20-55.5-20.5-55-58.5-21zM195 0h-133v445h133v-445z" glyph-name="i" horiz-adv-x="257" unicode="&#x69;"/><glyph d="M-10-201l32 71q25 55 32.5 85.5t7.5 78.5v411h133v-411q0-60-10-104t-37-97l-41-83zM128 522q-38 0-57.5 21t-19.5 55q0 35 20 56t58 21 57.5-21 19.5-56q0-34-20-55t-58-21z" glyph-name="j" horiz-adv-x="257" unicode="&#x6a;"/><glyph d="M509 0h-158l-132 186h-24v-186h-133v700l133 22v-438h23l135 161h154l-181-197z" glyph-name="k" horiz-adv-x="510" unicode="&#x6b;"/><glyph d="M195 0h-133v700l133 22v-722z" glyph-name="l" horiz-adv-x="257" unicode="&#x6c;"/><glyph d="M747 0h-133v287q0 27-12 38.5t-42 11.5q-46 0-89-26v-311h-133v287q0 27-12 38.5t-42 11.5q-46 0-89-26v-311h-133v445h115l9-44q69 54 144 54 87 0 120-52 74 52 156 52 141 0 141-135v-320z" glyph-name="m" horiz-adv-x="815" unicode="&#x6d;"/><glyph d="M481 0h-133v287q0 27-13.5 38.5t-45.5 11.5q-51 0-94-26v-311h-133v445h115l9-44q68 54 154 54 141 0 141-135v-320z" glyph-name="n" horiz-adv-x="539" unicode="&#x6e;"/><glyph d="M260-10q-105 0-171 64t-66 169q0 102 70 167t170 65q105 0 171.5-64t66.5-169q0-101-70.5-166.5t-170.5-65.5zM361 222q0 59-26 89t-72 30-73-30-27-88q0-59 26-89t72-30 73 30 27 88z" glyph-name="o" horiz-adv-x="524" unicode="&#x6f;"/><glyph d="M257-10q-32 0-62 9v-239h-133v654q90 41 203 41 115 0 178-56.5t63-167.5q0-105-68-173t-181-68zM195 331v-214q24-12 60-12 51 0 81 31t30 95q0 109-110 109-36 0-61-9z" glyph-name="p" horiz-adv-x="529" unicode="&#x70;"/><glyph d="M467-240h-133v258q-44-28-109-28-89 0-145.5 56.5t-56.5 166.5q0 111 69.5 176.5t194.5 65.5q110 0 180-40v-655zM334 119v211q-26 10-60 10-111 0-111-127 0-108 106-108 35 0 65 14z" glyph-name="q" horiz-adv-x="529" unicode="&#x71;"/><glyph d="M359 439v-114q-21 12-52 12-56 0-112-42v-295h-133v445h115l12-45q64 55 117 55 34 0 53-16z" glyph-name="r" horiz-adv-x="379" unicode="&#x72;"/><glyph d="M40 24l9 120q41-45 129-45 48 0 48 31 0 12-19.5 22.5t-47 21-55.5 25-47.5 43-19.5 68.5q0 65 48 105t137 40q79 0 121-27v-116q-19 14-55.5 24t-72.5 10q-26 0-35-7.5t-9-21.5 29.5-26.5 65-24.5 65-45.5 29.5-83.5q0-64-48-105.5t-136-41.5-136 34z" glyph-name="s" horiz-adv-x="387" unicode="&#x73;"/><glyph d="M327 132v-97q-38-45-121-45-126 0-126 115v235h-60v105h60v95l133 31v-126h111v-105h-111v-210q0-14 9.5-20.5t37.5-6.5q48 0 67 29z" glyph-name="t" horiz-adv-x="359" unicode="&#x74;"/><glyph d="M60 445h133v-287q0-27 13-38.5t42-11.5q47 0 90 26v311h133v-445h-115l-9 44q-69-54-150-54-137 0-137 135v320z" glyph-name="u" horiz-adv-x="533" unicode="&#x75;"/><glyph d="M486 445l-171-445h-153l-150 440 142 10 78-260 16-66 18 66 86 255h134z" glyph-name="v" horiz-adv-x="486" unicode="&#x76;"/><glyph d="M751 445l-155-445h-143l-60 202-15 70-17-70-70-202h-143l-130 440 140 10 65-257 13-69 16 69 65 193-19 54 142 10 76-257 15-69 14 69 77 252h129z" glyph-name="w" horiz-adv-x="757" unicode="&#x77;"/><glyph d="M494 0h-160l-88 139-92-139h-145l154 218-152 222 154 10 87-144 88 139h145l-151-218z" glyph-name="x" horiz-adv-x="498" unicode="&#x78;"/><glyph d="M484 445l-174-445q-71-184-124-251l-118 51q61 79 116 200l-175 440 142 10 81-231 19-68 19 68 77 226h137z" glyph-name="y" horiz-adv-x="490" unicode="&#x79;"/><glyph d="M390 0h-363v105l205 225h-198v115h349v-105l-205-225h212v-115z" glyph-name="z" horiz-adv-x="417" unicode="&#x7a;"/><glyph d="M271-127q-119 0-170.5 31t-51.5 96q0 39 34.5 102.5t34.5 84.5q0 18-16.5 24.5t-68.5 6.5v108q51 0 68 6.5t17 24.5q0 21-34.5 84t-34.5 103q0 65 51.5 96t170.5 31v-103q-65 0-82.5-6.5t-17.5-24.5q0-20 34.5-81t34.5-96-29.5-58.5-79.5-29.5q50-6 79.5-29.5t29.5-58.5-34.5-96-34.5-81q0-18 17.5-24.5t82.5-6.5v-103z" glyph-name="braceleft" horiz-adv-x="299" unicode="&#x7b;"/><glyph d="M173-206h-112v922h112v-922z" glyph-name="bar" horiz-adv-x="234" unicode="&#x7c;"/><glyph d="M28 671q119 0 170.5-31t51.5-96q0-40-34.5-103t-34.5-84q0-18 16.5-24.5t68.5-6.5v-108q-51 0-68-6.5t-17-24.5q0-21 34.5-84.5t34.5-102.5q0-65-51.5-96t-170.5-31v103q65 0 82.5 6.5t17.5 24.5q0 20-34.5 81t-34.5 96 29.5 58.5 79.5 29.5q-50 6-79.5 29.5t-29.5 58.5 34.5 96 34.5 81q0 18-17.5 24.5t-82.5 6.5v103z" glyph-name="braceright" horiz-adv-x="299" unicode="&#x7d;"/><glyph d="M420 301q-55-137-133-137-41 0-90 24l-53 25-61-68-53 32q55 137 133 137 41 0 90-24l53-25 61 68z" glyph-name="asciitilde" horiz-adv-x="450" unicode="&#x7e;"/><glyph glyph-name="uni00A0" horiz-adv-x="250" unicode="&#xa0;"/><glyph d="M114 209h102l27-401h-156zM165 455q34 0 55-20t21-56q0-38-21-58t-55-20-55 20-21 58q0 36 21 56t55 20z" glyph-name="exclamdown" horiz-adv-x="330" unicode="&#xa1;"/><glyph d="M183 328q0-77 58-103l15 208q-73-7-73-105zM451 435l-116-51q-7 34-33 44l-16-214q8-1 25-1 78 0 122 42v-112q-57-43-144-43-5 0-11 1l-12-160h-46l12 163q-87 14-134.5 70.5t-47.5 143.5q0 99 60.5 158.5t153.5 64.5l12 160h46l-12-162q61-5 98.5-32.5t42.5-71.5z" glyph-name="cent" unicode="&#xa2;"/><glyph d="M419 360v-63h-137q16-39 16-64 0-51-62-116h220l-9-117h-396v117h74q46 42 46 81 0 23-39 99h-70v63h41q-20 48-20 93 0 89 60.5 141.5t152.5 52.5q90 0 139-30v-121q-38 36-120 36-103 0-103-74 0-26 39-98h168z" glyph-name="sterling" unicode="&#xa3;"/><glyph d="M492 91l-81-82-80 99q-35-23-81-23t-81 23l-80-99-81 82 102 85q-14 30-14 64 0 32 13 63l-101 85 81 82 79-99q39 23 82 23t81-24l80 100 81-82-102-85q14-31 14-64t-14-64zM315 240q0 32-17 50t-48 18-48-18-17-50 17-50.5 48-18.5 48 18.5 17 50.5z" glyph-name="currency" unicode="&#xa4;"/><glyph d="M490 637l-155-327h97v-55h-114v-66h114v-55h-114v-134h-134v134h-114v55h114v66h-114v55h96l-156 327h148l82-194 18-51 18 51 81 194h133z" glyph-name="yen" unicode="&#xa5;"/><glyph d="M61-206v385h112v-385h-112zM173 331h-112v385h112v-385z" glyph-name="brokenbar" horiz-adv-x="234" unicode="&#xa6;"/><glyph d="M351 125l-72 54q50 19 50 59 0 28-35 55.5t-76.5 48.5-76.5 59.5-35 86.5q0 70 50 114.5t134 44.5q78 0 117-24v-117q-39 32-116 32-59 0-59-35 0-14 23-29.5t56-33.5 65.5-40.5 55.5-56.5 23-75q0-97-104-143zM149 354l72-54q-50-19-50-59 0-28 35-55.5t76.5-48.5 76.5-59.5 35-86.5q0-70-50-114.5t-134-44.5q-78 0-117 24v117q39-32 116-32 59 0 59 35 0 14-23 29.5t-56 33.5-65.5 40.5-55.5 56.5-23 75q0 97 104 143z" glyph-name="section" unicode="&#xa7;"/><glyph d="M135 500q-33 0-50 19.5t-17 49.5q0 31 17 50.5t51 19.5q32 0 49.5-20t17.5-50q-1-31-18-50t-50-19zM314 500q-33 0-50 19.5t-17 49.5q0 31 17 50.5t51 19.5q32 0 49-20t17-50q-1-31-17.5-50t-49.5-19z" glyph-name="dieresis" horiz-adv-x="450" unicode="&#xa8;"/><glyph d="M698 318q0-145-92.5-236.5t-238.5-91.5q-147 0-239.5 91.5t-92.5 237.5q0 145 92.5 236.5t239.5 91.5q146 0 238.5-91.5t92.5-237.5zM367 39q125 0 200 77t75 202q0 127-75 203.5t-200 76.5q-126 0-201-76.5t-75-202.5 75.5-203 200.5-77zM496 256v-84q-38-35-111-35-87 0-141 48t-54 131q0 82 54 133t137 51q75 0 112-30v-86q-14 16-42.5 26.5t-60.5 10.5q-51 0-81-26.5t-30-77.5q0-48 30.5-74.5t84.5-26.5q30 0 59 12t43 28z" glyph-name="copyright" horiz-adv-x="733" unicode="&#xa9;"/><glyph d="M326 456l-9-83q-12-4-29-4-40 0-71 23-44-23-85-23-48 0-74.5 21.5t-26.5 61.5q0 52 37 79.5t133 36.5v10q0 18-11.5 23.5t-42.5 5.5q-66 0-99-33v92q43 29 113 29 135 0 135-114 0-5-2.5-58t-2.5-62q7-6 24-6 7 0 11 1zM201 448v56q-49-6-64.5-13.5t-15.5-25.5q0-14 9.5-19.5t31.5-5.5q23 0 39 8z" glyph-name="ordfeminine" horiz-adv-x="342" unicode="&#xaa;"/><glyph d="M306 26h-118l-158 196 158 196h118l-123-197zM527 26h-118l-158 196 158 196h118l-123-197z" glyph-name="guillemotleft" horiz-adv-x="557" unicode="&#xab;"/><glyph d="M455 112h-102v127h-308v96h410v-223z" glyph-name="logicalnot" unicode="&#xac;"/><glyph d="M247 187l-194-37v113l194 37v-113z" glyph-name="uni00AD" horiz-adv-x="300" unicode="&#xad;"/><glyph d="M247 410h25q45 0 45 38 0 36-44 36h-26v-74zM403 268h-73l-50 93h-33v-93h-62v265h94q102 0 102-80 0-51-46-71zM527 400q0-109-69-177.5t-179-68.5-179.5 69-69.5 178 69.5 177.5 179.5 68.5 179-69 69-178zM279 193q94 0 149 56.5t55 150.5-55 151-149 57q-95 0-150-56.5t-55-150.5 55-151 150-57z" glyph-name="registered" horiz-adv-x="557" unicode="&#xae;"/><glyph d="M345 529h-240v94h240v-94z" glyph-name="macron" horiz-adv-x="450" unicode="&#xaf;"/><glyph d="M275 512q0-55-36-89.5t-94-34.5q-60 0-94.5 34.5t-34.5 90.5q0 55 36 89.5t94 34.5q60 0 94.5-34.5t34.5-90.5zM145 455q55 0 55 57 0 58-54 58-55 0-55-57 0-58 54-58z" glyph-name="degree" horiz-adv-x="291" unicode="&#xb0;"/><glyph d="M411 241h-116v-115h-91v115h-116v84h116v112h91v-112h116v-84zM411 10h-323v83h323v-83z" glyph-name="plusminus" unicode="&#xb1;"/><glyph d="M274 318h-222v75q76 55 104 84.5t28 57.5q0 38-43 38-31 0-42-30l-58 34q17 65 107 65 57 0 88.5-27.5t31.5-73.5q0-37-25-70.5t-88-79.5h124z" glyph-name="twosuperior" horiz-adv-x="320" unicode="&#xb2;"/><glyph d="M272 411q0-45-35-71.5t-102-26.5q-53 0-83 18v74q26-21 81-21 57 0 57 32 0 17-12 24t-45 7h-37v68h37q53 0 53 31 0 29-41 29-35 0-44-28l-57 33q16 62 108 62 53 0 84-24t31-65q0-44-38-68 43-27 43-74z" glyph-name="threesuperior" horiz-adv-x="320" unicode="&#xb3;"/><glyph d="M212 500l-96 11 59 159h154z" glyph-name="acute" horiz-adv-x="450" unicode="&#xb4;"/><glyph d="M471 0h-115l-9 44q-69-54-129-54-15 0-25 4v-222l-133-22v695h133v-287q0-27 13-38.5t42-11.5q47 0 90 26v311h133v-445z" glyph-name="mu" horiz-adv-x="533" unicode="&#xb5;"/><glyph d="M416-163h-82v742h-33v-742h-82v451h-16q-81 0-127 43.5t-46 121.5q0 91 49 137.5t155 46.5h182v-800z" glyph-name="paragraph" unicode="&#xb6;"/><glyph d="M135 146q-34 0-55 20t-21 56q0 38 21 58t55 20 55-20 21-58q0-36-21-56t-55-20z" glyph-name="periodcentered" horiz-adv-x="270" unicode="&#xb7;"/><glyph d="M130-203v69q23-23 70-23 37 0 37 21 0 11-12.5 17t-32.5 13.5-31 18.5l45 61h50l-11-29q3-2 26-13.5t36-27.5 13-44q0-35-30-58.5t-80-23.5q-54 0-80 19z" glyph-name="cedilla" horiz-adv-x="450" unicode="&#xb8;"/><glyph d="M280 318h-218v62l75 6v183h-74v58l73 10h80v-251l64-6v-62z" glyph-name="onesuperior" horiz-adv-x="320" unicode="&#xb9;"/><glyph d="M381 531q0-71-51.5-116.5t-125.5-45.5q-77 0-126.5 45t-49.5 119q0 71 51.5 116.5t125.5 45.5q78 0 127-45t49-119zM267 531q0 36-16.5 55t-45.5 19-46-18.5-17-53.5q0-36 16.5-55t45.5-19 46 18.5 17 53.5z" glyph-name="ordmasculine" horiz-adv-x="409" unicode="&#xba;"/><glyph d="M251 418h118l158-196-158-196h-118l123 197zM30 418h118l158-196-158-196h-118l123 197z" glyph-name="guillemotright" horiz-adv-x="557" unicode="&#xbb;"/><glyph d="M126-24l452 698 61-15-452-698zM280 318h-218v62l75 6v183h-74v58l73 10h80v-251l64-6v-62zM726 69h-32v-69h-78v69h-134v75q48 74 66 109.5t24 65.5h73q-2-32-20.5-70t-69.5-114h62l15 71h62v-64h37z" glyph-name="onequarter" horiz-adv-x="765" unicode="&#xbc;"/><glyph d="M126-24l452 698 61-15-452-698zM280 318h-218v62l75 6v183h-74v58l73 10h80v-251l64-6v-62zM723 0h-222v75q76 55 104 84.5t28 57.5q0 38-43 38-31 0-42-30l-58 34q17 65 107 65 57 0 88.5-27.5t31.5-73.5q0-37-25-70.5t-88-79.5h124z" glyph-name="onehalf" horiz-adv-x="765" unicode="&#xbd;"/><glyph d="M126-24l452 698 61-15-452-698zM270 411q0-45-35-71.5t-102-26.5q-53 0-83 18v74q26-21 81-21 57 0 57 32 0 17-12 24t-45 7h-37v68h37q53 0 53 31 0 29-41 29-35 0-44-28l-57 33q16 62 108 62 53 0 84-24t31-65q0-44-38-68 43-27 43-74zM726 69h-32v-69h-78v69h-134v75q48 74 66 109.5t24 65.5h73q-2-32-20.5-70t-69.5-114h62l15 71h62v-64h37z" glyph-name="threequarters" horiz-adv-x="765" unicode="&#xbe;"/><glyph d="M291 217l26-119q-80-15-113-40.5t-33-64.5q0-34 24.5-53.5t72.5-19.5q56 0 90 22v-123q-42-21-106-21-99 0-157 49.5t-58 139.5q0 87 65.5 149t188.5 81zM244 455q34 0 55-20t21-56q0-38-21-58t-55-20-55 20-21 58q0 36 21 56t55 20z" glyph-name="questiondown" horiz-adv-x="431" unicode="&#xbf;"/><glyph d="M493 0l-59 161h-231l-60-161h-142l245 637h153l245-637h-151zM306 438l-60-160h145l-59 160-13 54zM376 696l-109-14-103 112h161z" glyph-name="Agrave" horiz-adv-x="645" unicode="&#xc0;"/><glyph d="M493 0l-59 161h-231l-60-161h-142l245 637h153l245-637h-151zM306 438l-60-160h145l-59 160-13 54zM378 682l-109 14 51 98h161z" glyph-name="Aacute" horiz-adv-x="645" unicode="&#xc1;"/><glyph d="M493 0l-59 161h-231l-60-161h-142l245 637h153l245-637h-151zM306 438l-60-160h145l-59 160-13 54zM468 690l-100-8-46 50-45-50-97 8 74 104h140z" glyph-name="Acircumflex" horiz-adv-x="645" unicode="&#xc2;"/><glyph d="M493 0l-59 161h-231l-60-161h-142l245 637h153l245-637h-151zM306 438l-60-160h145l-59 160-13 54zM429 799l40-30q-54-86-102-86-28 0-68 18l-35 15-46-40-40 30q54 86 102 86 28 0 68-18l35-15z" glyph-name="Atilde" horiz-adv-x="645" unicode="&#xc3;"/><glyph d="M493 0l-59 161h-231l-60-161h-142l245 637h153l245-637h-151zM306 438l-60-160h145l-59 160-13 54zM298 741q-2-58-62-58-30 0-45.5 16t-15.5 42 15.5 42 45.5 16 46-16.5 16-41.5zM474 741q-1-26-16.5-42t-45.5-16-46 16.5-16 41.5q0 26 16 42t47 16q29 0 45-16.5t16-41.5z" glyph-name="Adieresis" horiz-adv-x="645" unicode="&#xc4;"/><glyph d="M493 0l-59 161h-231l-60-161h-142l245 637h153l245-637h-151zM306 438l-60-160h145l-59 160-13 54zM430 762q0-40-28-64t-77-24q-50 0-78 23.5t-28 63.5 28 64 77 24q50 0 78-23.5t28-63.5zM325 731q16 0 23 7t7 24-7 23.5-24 6.5q-16 0-23-7t-7-24q0-30 31-30z" glyph-name="Aring" horiz-adv-x="645" unicode="&#xc5;"/><glyph d="M886 0h-438v258h-208l-97-258h-142l243 637h632v-125h-285v-129h255v-125h-255v-133h295v-125zM336 512l-49-129h161v129h-112z" glyph-name="AE" horiz-adv-x="928" unicode="&#xc6;"/><glyph d="M587 178v-139q-70-49-190-49-164 0-268 87t-104 233q0 149 100 243t253 94q131 0 205-43v-144q-29 26-81.5 42.5t-110.5 16.5q-99 0-158-53.5t-59-155.5q0-88 60.5-140t167.5-52q58 0 109.5 17t75.5 43zM273-203v69q23-23 70-23 37 0 37 21 0 11-12.5 17t-32.5 13.5-31 18.5l45 61h50l-11-29q3-2 26-13.5t36-27.5 13-44q0-35-30-58.5t-80-23.5q-54 0-80 19z" glyph-name="Ccedilla" horiz-adv-x="629" unicode="&#xc7;"/><glyph d="M509 0h-438v637h428v-127h-285v-126h255v-127h-255v-130h295v-127zM354 696l-109-14-103 112h161z" glyph-name="Egrave" horiz-adv-x="551" unicode="&#xc8;"/><glyph d="M509 0h-438v637h428v-127h-285v-126h255v-127h-255v-130h295v-127zM318 682l-109 14 51 98h161z" glyph-name="Eacute" horiz-adv-x="551" unicode="&#xc9;"/><glyph d="M509 0h-438v637h428v-127h-285v-126h255v-127h-255v-130h295v-127zM430 690l-100-8-46 50-45-50-97 8 74 104h140z" glyph-name="Ecircumflex" horiz-adv-x="551" unicode="&#xca;"/><glyph d="M509 0h-438v637h428v-127h-285v-126h255v-127h-255v-130h295v-127zM260 741q-2-58-62-58-30 0-45.5 16t-15.5 42 15.5 42 45.5 16 46-16.5 16-41.5zM436 741q-1-26-16.5-42t-45.5-16-46 16.5-16 41.5q0 26 16 42t47 16q29 0 45-16.5t16-41.5z" glyph-name="Edieresis" horiz-adv-x="551" unicode="&#xcb;"/><glyph d="M214 0h-143v637h143v-637zM208 696l-109-14-103 112h161z" glyph-name="Igrave" horiz-adv-x="285" unicode="&#xcc;"/><glyph d="M214 0h-143v637h143v-637zM186 682l-109 14 51 98h161z" glyph-name="Iacute" horiz-adv-x="285" unicode="&#xcd;"/><glyph d="M214 0h-143v637h143v-637zM286 690l-100-8-46 50-45-50-97 8 74 104h140z" glyph-name="Icircumflex" horiz-adv-x="285" unicode="&#xce;"/><glyph d="M128 741q-2-58-62-58-30 0-45.5 16t-15.5 42 15.5 42 45.5 16 46-16.5 16-41.5zM280 741q-1-26-16.5-42t-45.5-16-46 16.5-16 41.5q0 26 16 42t47 16q29 0 45-16.5t16-41.5zM214 0h-143v637h143v-637z" glyph-name="Idieresis" horiz-adv-x="285" unicode="&#xcf;"/><glyph d="M321 0h-250v270h-44v104h44v263h227q173 0 269.5-76t96.5-235q0-147-99-236.5t-244-89.5zM324 270h-110v-148h97q96 0 150 50.5t54 153.5q0 102-57 145.5t-168 43.5h-76v-141h110v-104z" glyph-name="Eth" horiz-adv-x="689" unicode="&#xd0;"/><glyph d="M611 0h-140l-235 393-32 72v-465h-133v637h164l211-353 32-72v425h133v-637zM450 799l40-30q-54-86-102-86-28 0-68 18l-35 15-46-40-40 30q54 86 102 86 28 0 68-18l35-15z" glyph-name="Ntilde" horiz-adv-x="682" unicode="&#xd1;"/><glyph d="M25 314q0 147 102.5 240t239.5 93q144 0 240-87t96-237q0-147-102.5-240t-239.5-93q-144 0-240 87.5t-96 236.5zM554 323q0 93-53.5 146.5t-133.5 53.5q-82 0-137.5-57t-55.5-152q0-93 53.5-146.5t133.5-53.5q82 0 137.5 56.5t55.5 152.5zM426 696l-109-14-103 112h161z" glyph-name="Ograve" horiz-adv-x="728" unicode="&#xd2;"/><glyph d="M25 314q0 147 102.5 240t239.5 93q144 0 240-87t96-237q0-147-102.5-240t-239.5-93q-144 0-240 87.5t-96 236.5zM554 323q0 93-53.5 146.5t-133.5 53.5q-82 0-137.5-57t-55.5-152q0-93 53.5-146.5t133.5-53.5q82 0 137.5 56.5t55.5 152.5zM410 682l-109 14 51 98h161z" glyph-name="Oacute" horiz-adv-x="728" unicode="&#xd3;"/><glyph d="M25 314q0 147 102.5 240t239.5 93q144 0 240-87t96-237q0-147-102.5-240t-239.5-93q-144 0-240 87.5t-96 236.5zM554 323q0 93-53.5 146.5t-133.5 53.5q-82 0-137.5-57t-55.5-152q0-93 53.5-146.5t133.5-53.5q82 0 137.5 56.5t55.5 152.5zM508 690l-100-8-46 50-45-50-97 8 74 104h140z" glyph-name="Ocircumflex" horiz-adv-x="728" unicode="&#xd4;"/><glyph d="M25 314q0 147 102.5 240t239.5 93q144 0 240-87t96-237q0-147-102.5-240t-239.5-93q-144 0-240 87.5t-96 236.5zM554 323q0 93-53.5 146.5t-133.5 53.5q-82 0-137.5-57t-55.5-152q0-93 53.5-146.5t133.5-53.5q82 0 137.5 56.5t55.5 152.5zM470 799l40-30q-54-86-102-86-28 0-68 18l-35 15-46-40-40 30q54 86 102 86 28 0 68-18l35-15z" glyph-name="Otilde" horiz-adv-x="728" unicode="&#xd5;"/><glyph d="M25 314q0 147 102.5 240t239.5 93q144 0 240-87t96-237q0-147-102.5-240t-239.5-93q-144 0-240 87.5t-96 236.5zM554 323q0 93-53.5 146.5t-133.5 53.5q-82 0-137.5-57t-55.5-152q0-93 53.5-146.5t133.5-53.5q82 0 137.5 56.5t55.5 152.5zM338 741q-2-58-62-58-30 0-45.5 16t-15.5 42 15.5 42 45.5 16 46-16.5 16-41.5zM514 741q-1-26-16.5-42t-45.5-16-46 16.5-16 41.5q0 26 16 42t47 16q29 0 45-16.5t16-41.5z" glyph-name="Odieresis" horiz-adv-x="728" unicode="&#xd6;"/><glyph d="M438 90l-65-67-123 134-123-134-65 67 124 133-124 134 65 67 123-134 123 134 65-67-124-133z" glyph-name="multiply" unicode="&#xd7;"/><glyph d="M683 693l-87-124q107-89 107-246 0-147-102.5-240t-239.5-93q-81 0-150 29l-53-75h-99l82 117q-116 90-116 253 0 147 102.5 240t239.5 93q87 0 161-34l56 80h99zM174 314q0-86 46-140l232 330q-41 19-85 19-82 0-137.5-57t-55.5-152zM554 323q0 77-40 130l-227-325q34-14 74-14 82 0 137.5 56.5t55.5 152.5z" glyph-name="Oslash" horiz-adv-x="728" unicode="&#xd8;"/><glyph d="M613 637v-428q0-97-76.5-158t-205.5-61q-127 0-198.5 60.5t-71.5 158.5v428h143v-388q0-59 31.5-90.5t105.5-31.5 105.5 31.5 31.5 90.5v388h135zM426 696l-109-14-103 112h161z" glyph-name="Ugrave" horiz-adv-x="674" unicode="&#xd9;"/><glyph d="M613 637v-428q0-97-76.5-158t-205.5-61q-127 0-198.5 60.5t-71.5 158.5v428h143v-388q0-59 31.5-90.5t105.5-31.5 105.5 31.5 31.5 90.5v388h135zM374 682l-109 14 51 98h161z" glyph-name="Uacute" horiz-adv-x="674" unicode="&#xda;"/><glyph d="M613 637v-428q0-97-76.5-158t-205.5-61q-127 0-198.5 60.5t-71.5 158.5v428h143v-388q0-59 31.5-90.5t105.5-31.5 105.5 31.5 31.5 90.5v388h135zM488 690l-100-8-46 50-45-50-97 8 74 104h140z" glyph-name="Ucircumflex" horiz-adv-x="674" unicode="&#xdb;"/><glyph d="M613 637v-428q0-97-76.5-158t-205.5-61q-127 0-198.5 60.5t-71.5 158.5v428h143v-388q0-59 31.5-90.5t105.5-31.5 105.5 31.5 31.5 90.5v388h135zM319 741q-2-58-62-58-30 0-45.5 16t-15.5 42 15.5 42 45.5 16 46-16.5 16-41.5zM495 741q-1-26-16.5-42t-45.5-16-46 16.5-16 41.5q0 26 16 42t47 16q29 0 45-16.5t16-41.5z" glyph-name="Udieresis" horiz-adv-x="674" unicode="&#xdc;"/><glyph d="M577 637l-214-384v-253h-143v253l-214 384h157l101-188 32-68 31 68 102 188h148zM341 682l-109 14 51 98h161z" glyph-name="Yacute" horiz-adv-x="583" unicode="&#xdd;"/><glyph d="M214 0h-143v637h143v-107h85q114 0 175.5-52.5t61.5-153.5q0-95-66-154.5t-178-59.5h-78v-110zM214 410v-180h70q50 0 79 23t29 70q0 87-112 87h-66z" glyph-name="Thorn" horiz-adv-x="566" unicode="&#xde;"/><glyph d="M256 15l8 117q14-14 42-23.5t49-9.5q46 0 46 36 0 18-19 42.5t-42.5 46.5-42.5 54-19 63q0 32 14 64.5t30 54 30 45.5 14 41q0 56-72 56-51 0-75-35t-24-111v-456h-133v466q0 120 66.5 188t182.5 68q95 0 144.5-41t49.5-99q0-41-24-82t-48-72-24-47q0-20 19-47.5t42.5-51.5 42.5-62.5 19-79.5q0-64-46-107t-123-43q-68 0-107 25z" glyph-name="germandbls" horiz-adv-x="554" unicode="&#xdf;"/><glyph d="M279 31q-55-41-121-41-62 0-97.5 31.5t-35.5 84.5q0 73 52.5 110.5t179.5 49.5v29q0 27-21 35-18 7-52 7-44 0-81-14t-54-33v123q59 42 154 42 184 0 184-163 0-7-3.5-89t-3.5-94q13-10 33-10 9 0 15 2l-12-105q-18-6-41-6-55 0-96 41zM257 95v88q-64-8-86.5-20t-22.5-39q0-22 13-31t44-9q28 0 52 11zM271 511l-96-11-117 170h154z" glyph-name="agrave" horiz-adv-x="446" unicode="&#xe0;"/><glyph d="M279 31q-55-41-121-41-62 0-97.5 31.5t-35.5 84.5q0 73 52.5 110.5t179.5 49.5v29q0 27-21 35-18 7-52 7-44 0-81-14t-54-33v123q59 42 154 42 184 0 184-163 0-7-3.5-89t-3.5-94q13-10 33-10 9 0 15 2l-12-105q-18-6-41-6-55 0-96 41zM257 95v88q-64-8-86.5-20t-22.5-39q0-22 13-31t44-9q28 0 52 11zM241 500l-96 11 59 159h154z" glyph-name="aacute" horiz-adv-x="446" unicode="&#xe1;"/><glyph d="M279 31q-55-41-121-41-62 0-97.5 31.5t-35.5 84.5q0 73 52.5 110.5t179.5 49.5v29q0 27-21 35-18 7-52 7-44 0-81-14t-54-33v123q59 42 154 42 184 0 184-163 0-7-3.5-89t-3.5-94q13-10 33-10 9 0 15 2l-12-105q-18-6-41-6-55 0-96 41zM257 95v88q-64-8-86.5-20t-22.5-39q0-22 13-31t44-9q28 0 52 11zM371 512l-100-12-59 89-60-89-95 12 84 158h146z" glyph-name="acircumflex" horiz-adv-x="446" unicode="&#xe2;"/><glyph d="M279 31q-55-41-121-41-62 0-97.5 31.5t-35.5 84.5q0 73 52.5 110.5t179.5 49.5v29q0 27-21 35-18 7-52 7-44 0-81-14t-54-33v123q59 42 154 42 184 0 184-163 0-7-3.5-89t-3.5-94q13-10 33-10 9 0 15 2l-12-105q-18-6-41-6-55 0-96 41zM257 95v88q-64-8-86.5-20t-22.5-39q0-22 13-31t44-9q28 0 52 11zM375 622q-34-63-59.5-85.5t-55.5-22.5q-27 0-69 21l-36 18-52-55-50 34q34 63 59.5 85.5t55.5 22.5q26 0 69-21l36-18 52 55z" glyph-name="atilde" horiz-adv-x="446" unicode="&#xe3;"/><glyph d="M279 31q-55-41-121-41-62 0-97.5 31.5t-35.5 84.5q0 73 52.5 110.5t179.5 49.5v29q0 27-21 35-18 7-52 7-44 0-81-14t-54-33v123q59 42 154 42 184 0 184-163 0-7-3.5-89t-3.5-94q13-10 33-10 9 0 15 2l-12-105q-18-6-41-6-55 0-96 41zM257 95v88q-64-8-86.5-20t-22.5-39q0-22 13-31t44-9q28 0 52 11zM125 500q-33 0-50 19.5t-17 49.5q0 31 17 50.5t51 19.5q32 0 49.5-20t17.5-50q-1-31-18-50t-50-19zM304 500q-33 0-50 19.5t-17 49.5q0 31 17 50.5t51 19.5q32 0 49-20t17-50q-1-31-17.5-50t-49.5-19z" glyph-name="adieresis" horiz-adv-x="446" unicode="&#xe4;"/><glyph d="M279 31q-55-41-121-41-62 0-97.5 31.5t-35.5 84.5q0 73 52.5 110.5t179.5 49.5v29q0 27-21 35-18 7-52 7-44 0-81-14t-54-33v123q59 42 154 42 184 0 184-163 0-7-3.5-89t-3.5-94q13-10 33-10 9 0 15 2l-12-105q-18-6-41-6-55 0-96 41zM257 95v88q-64-8-86.5-20t-22.5-39q0-22 13-31t44-9q28 0 52 11zM321 587q0-40-28-64t-77-24q-50 0-78 23.5t-28 63.5 28 64 77 24q50 0 78-23.5t28-63.5zM216 556q16 0 23 7t7 24-7 23.5-24 6.5q-16 0-23-7t-7-24q0-30 31-30z" glyph-name="aring" horiz-adv-x="446" unicode="&#xe5;"/><glyph d="M208 85q37 0 75 19-18 32-21 80-68-9-91-21t-23-39q0-39 60-39zM651 149v-114q-54-45-150-45-101 0-159 47-93-47-175-47-68 0-105 31t-37 85q0 72 53.5 110t182.5 50v29q0 27-20 35-18 7-55 7-46 0-83-14t-54-33v123q59 42 154 42 97 0 136-46 58 46 139 46 88 0 138.5-50t50.5-142q0-38-5-73h-275q2-31 35.5-57.5t96.5-26.5q41 0 77.5 12.5t54.5 30.5zM391 279h153v7q0 69-72 69-35 0-56.5-21.5t-24.5-54.5z" glyph-name="ae" horiz-adv-x="694" unicode="&#xe6;"/><glyph d="M427 338l-118-52q-7 52-67 52-38 0-59-29.5t-21-86.5q0-110 122-110 37 0 70.5 13t51.5 31v-121q-51-45-144-45-114 0-176.5 62t-62.5 170q0 105 63.5 169t162.5 64q77 0 125-32t53-85zM135-203v69q23-23 70-23 37 0 37 21 0 11-12.5 17t-32.5 13.5-31 18.5l45 61h50l-11-29q3-2 26-13.5t36-27.5 13-44q0-35-30-58.5t-80-23.5q-54 0-80 19z" glyph-name="ccedilla" horiz-adv-x="442" unicode="&#xe7;"/><glyph d="M419 149v-114q-54-45-150-45-117 0-181.5 62t-64.5 166q0 110 63 173.5t160 63.5q88 0 138.5-50t50.5-142q0-38-5-73h-275q2-31 35.5-57.5t96.5-26.5q41 0 77.5 12.5t54.5 30.5zM159 278h153v9q0 67-70 67-37 0-58.5-21.5t-24.5-54.5zM305 511l-96-11-117 170h154z" glyph-name="egrave" horiz-adv-x="462" unicode="&#xe8;"/><glyph d="M419 149v-114q-54-45-150-45-117 0-181.5 62t-64.5 166q0 110 63 173.5t160 63.5q88 0 138.5-50t50.5-142q0-38-5-73h-275q2-31 35.5-57.5t96.5-26.5q41 0 77.5 12.5t54.5 30.5zM159 278h153v9q0 67-70 67-37 0-58.5-21.5t-24.5-54.5zM285 500l-96 11 59 159h154z" glyph-name="eacute" horiz-adv-x="462" unicode="&#xe9;"/><glyph d="M419 149v-114q-54-45-150-45-117 0-181.5 62t-64.5 166q0 110 63 173.5t160 63.5q88 0 138.5-50t50.5-142q0-38-5-73h-275q2-31 35.5-57.5t96.5-26.5q41 0 77.5 12.5t54.5 30.5zM159 278h153v9q0 67-70 67-37 0-58.5-21.5t-24.5-54.5zM404 512l-100-12-59 89-60-89-95 12 84 158h146z" glyph-name="ecircumflex" horiz-adv-x="462" unicode="&#xea;"/><glyph d="M419 149v-114q-54-45-150-45-117 0-181.5 62t-64.5 166q0 110 63 173.5t160 63.5q88 0 138.5-50t50.5-142q0-38-5-73h-275q2-31 35.5-57.5t96.5-26.5q41 0 77.5 12.5t54.5 30.5zM159 278h153v9q0 67-70 67-37 0-58.5-21.5t-24.5-54.5zM155 500q-33 0-50 19.5t-17 49.5q0 31 17 50.5t51 19.5q32 0 49.5-20t17.5-50q-1-31-18-50t-50-19zM334 500q-33 0-50 19.5t-17 49.5q0 31 17 50.5t51 19.5q32 0 49-20t17-50q-1-31-17.5-50t-49.5-19z" glyph-name="edieresis" horiz-adv-x="462" unicode="&#xeb;"/><glyph d="M195 0h-133v445h133v-445zM199 511l-92-11-113 170h148z" glyph-name="igrave" horiz-adv-x="257" unicode="&#xec;"/><glyph d="M195 0h-133v445h133v-445zM151 500l-93 11 57 159h148z" glyph-name="iacute" horiz-adv-x="257" unicode="&#xed;"/><glyph d="M257 512l-93-12-37 95-38-95-88 12 54 158h148zM195 0h-133v445h133v-445z" glyph-name="icircumflex" horiz-adv-x="257" unicode="&#xee;"/><glyph d="M50 500q-29 0-44 19.5t-15 49.5q0 31 15.5 50.5t44.5 19.5 44-20 15-50q-2-69-60-69zM208 500q-30 0-44.5 19.5t-14.5 49.5q0 70 59 70 29 0 43.5-20t14.5-50q-2-69-58-69zM195 0h-133v445h133v-445z" glyph-name="idieresis" horiz-adv-x="257" unicode="&#xef;"/><glyph d="M381 671l-55-34q161-152 161-354 0-136-66.5-214.5t-170.5-78.5q-101 0-164 59.5t-63 167.5q0 113 64 175.5t156 62.5q40 0 62-8-31 60-91 120l-70-43-46 51 65 40q-26 23-58 46l110 61q30-20 57-39l63 39zM334 331q-20 11-61 11-50 0-80-30t-30-94q0-57 24.5-83.5t64.5-26.5q90 0 90 144 0 47-8 79z" glyph-name="eth" horiz-adv-x="510" unicode="&#xf0;"/><glyph d="M481 0h-133v287q0 27-13.5 38.5t-45.5 11.5q-51 0-94-26v-311h-133v445h115l9-44q68 54 154 54 141 0 141-135v-320zM437 622q-34-63-59.5-85.5t-55.5-22.5q-27 0-69 21l-36 18-52-55-50 34q34 63 59.5 85.5t55.5 22.5q26 0 69-21l36-18 52 55z" glyph-name="ntilde" horiz-adv-x="539" unicode="&#xf1;"/><glyph d="M260-10q-105 0-171 64t-66 169q0 102 70 167t170 65q105 0 171.5-64t66.5-169q0-101-70.5-166.5t-170.5-65.5zM361 222q0 59-26 89t-72 30-73-30-27-88q0-59 26-89t72-30 73 30 27 88zM320 511l-96-11-117 170h154z" glyph-name="ograve" horiz-adv-x="524" unicode="&#xf2;"/><glyph d="M260-10q-105 0-171 64t-66 169q0 102 70 167t170 65q105 0 171.5-64t66.5-169q0-101-70.5-166.5t-170.5-65.5zM361 222q0 59-26 89t-72 30-73-30-27-88q0-59 26-89t72-30 73 30 27 88zM300 500l-96 11 59 159h154z" glyph-name="oacute" horiz-adv-x="524" unicode="&#xf3;"/><glyph d="M260-10q-105 0-171 64t-66 169q0 102 70 167t170 65q105 0 171.5-64t66.5-169q0-101-70.5-166.5t-170.5-65.5zM361 222q0 59-26 89t-72 30-73-30-27-88q0-59 26-89t72-30 73 30 27 88zM419 512l-100-12-59 89-60-89-95 12 84 158h146z" glyph-name="ocircumflex" horiz-adv-x="524" unicode="&#xf4;"/><glyph d="M260-10q-105 0-171 64t-66 169q0 102 70 167t170 65q105 0 171.5-64t66.5-169q0-101-70.5-166.5t-170.5-65.5zM361 222q0 59-26 89t-72 30-73-30-27-88q0-59 26-89t72-30 73 30 27 88zM423 622q-34-63-59.5-85.5t-55.5-22.5q-27 0-69 21l-36 18-52-55-50 34q34 63 59.5 85.5t55.5 22.5q26 0 69-21l36-18 52 55z" glyph-name="otilde" horiz-adv-x="524" unicode="&#xf5;"/><glyph d="M260-10q-105 0-171 64t-66 169q0 102 70 167t170 65q105 0 171.5-64t66.5-169q0-101-70.5-166.5t-170.5-65.5zM361 222q0 59-26 89t-72 30-73-30-27-88q0-59 26-89t72-30 73 30 27 88zM173 500q-33 0-50 19.5t-17 49.5q0 31 17 50.5t51 19.5q32 0 49.5-20t17.5-50q-1-31-18-50t-50-19zM352 500q-33 0-50 19.5t-17 49.5q0 31 17 50.5t51 19.5q32 0 49-20t17-50q-1-31-17.5-50t-49.5-19z" glyph-name="odieresis" horiz-adv-x="524" unicode="&#xf6;"/><glyph d="M439 185h-377v75h377v-75zM250-10q-34 0-55 20t-21 56q0 38 21 58t55 20 55-20 21-58q0-36-21-56t-55-20zM250 301q-34 0-55 20t-21 56q0 38 21 58t55 20 55-20 21-58q0-36-21-56t-55-20z" glyph-name="divide" unicode="&#xf7;"/><glyph d="M504 501l-74-106q71-65 71-173 0-101-70.5-166.5t-170.5-65.5q-52 0-101 18l-45-64h-91l72 104q-72 64-72 175 0 102 70 167t170 65q56 0 104-20l46 66h91zM163 223q0-36 11-63l123 176q-17 5-34 5-46 0-73-30t-27-88zM361 222q0 33-10 60l-122-174q13-4 32-4 46 0 73 30t27 88z" glyph-name="oslash" horiz-adv-x="524" unicode="&#xf8;"/><glyph d="M60 445h133v-287q0-27 13-38.5t42-11.5q47 0 90 26v311h133v-445h-115l-9 44q-69-54-150-54-137 0-137 135v320zM326 511l-96-11-117 170h154z" glyph-name="ugrave" horiz-adv-x="533" unicode="&#xf9;"/><glyph d="M60 445h133v-287q0-27 13-38.5t42-11.5q47 0 90 26v311h133v-445h-115l-9 44q-69-54-150-54-137 0-137 135v320zM304 500l-96 11 59 159h154z" glyph-name="uacute" horiz-adv-x="533" unicode="&#xfa;"/><glyph d="M60 445h133v-287q0-27 13-38.5t42-11.5q47 0 90 26v311h133v-445h-115l-9 44q-69-54-150-54-137 0-137 135v320zM425 512l-100-12-59 89-60-89-95 12 84 158h146z" glyph-name="ucircumflex" horiz-adv-x="533" unicode="&#xfb;"/><glyph d="M60 445h133v-287q0-27 13-38.5t42-11.5q47 0 90 26v311h133v-445h-115l-9 44q-69-54-150-54-137 0-137 135v320zM178 500q-33 0-50 19.5t-17 49.5q0 31 17 50.5t51 19.5q32 0 49.5-20t17.5-50q-1-31-18-50t-50-19zM357 500q-33 0-50 19.5t-17 49.5q0 31 17 50.5t51 19.5q32 0 49-20t17-50q-1-31-17.5-50t-49.5-19z" glyph-name="udieresis" horiz-adv-x="533" unicode="&#xfc;"/><glyph d="M484 445l-174-445q-71-184-124-251l-118 51q61 79 116 200l-175 440 142 10 81-231 19-68 19 68 77 226h137zM287 500l-96 11 59 159h154z" glyph-name="yacute" horiz-adv-x="490" unicode="&#xfd;"/><glyph d="M195 722v-275q37 8 70 8 115 0 178-56.5t63-167.5q0-105-68-173t-181-68q-32 0-62 9v-239h-133v940zM195 331v-214q24-12 60-12 51 0 81 31t30 95q0 109-110 109-36 0-61-9z" glyph-name="thorn" horiz-adv-x="529" unicode="&#xfe;"/><glyph d="M484 445l-174-445q-71-184-124-251l-118 51q61 79 116 200l-175 440 142 10 81-231 19-68 19 68 77 226h137zM164 500q-33 0-50 19.5t-17 49.5q0 31 17 50.5t51 19.5q32 0 49.5-20t17.5-50q-1-31-18-50t-50-19zM343 500q-33 0-50 19.5t-17 49.5q0 31 17 50.5t51 19.5q32 0 49-20t17-50q-1-31-17.5-50t-49.5-19z" glyph-name="ydieresis" horiz-adv-x="490" unicode="&#xff;"/><glyph d="M493 0l-59 161h-231l-60-161h-142l245 637h153l245-637h-151zM306 438l-60-160h145l-59 160-13 54zM439 695h-232v83h232v-83z" glyph-name="Amacron" horiz-adv-x="645" unicode="&#x100;"/><glyph d="M279 31q-55-41-121-41-62 0-97.5 31.5t-35.5 84.5q0 73 52.5 110.5t179.5 49.5v29q0 27-21 35-18 7-52 7-44 0-81-14t-54-33v123q59 42 154 42 184 0 184-163 0-7-3.5-89t-3.5-94q13-10 33-10 9 0 15 2l-12-105q-18-6-41-6-55 0-96 41zM257 95v88q-64-8-86.5-20t-22.5-39q0-22 13-31t44-9q28 0 52 11zM334 529h-240v94h240v-94z" glyph-name="amacron" horiz-adv-x="446" unicode="&#x101;"/><glyph d="M493 0l-59 161h-231l-60-161h-142l245 637h153l245-637h-151zM306 438l-60-160h145l-59 160-13 54zM373 797l91-11q-17-104-141-104-125 0-141 104l93 11q5-38 49-38 42 0 49 38z" glyph-name="Abreve" horiz-adv-x="645" unicode="&#x102;"/><glyph d="M279 31q-55-41-121-41-62 0-97.5 31.5t-35.5 84.5q0 73 52.5 110.5t179.5 49.5v29q0 27-21 35-18 7-52 7-44 0-81-14t-54-33v123q59 42 154 42 184 0 184-163 0-7-3.5-89t-3.5-94q13-10 33-10 9 0 15 2l-12-105q-18-6-41-6-55 0-96 41zM257 95v88q-64-8-86.5-20t-22.5-39q0-22 13-31t44-9q28 0 52 11zM272 672l89-12q0-74-42-117t-105-43q-64 0-105.5 43t-41.5 117l89 12q6-43 17-60t41-17 41 16.5 17 60.5z" glyph-name="abreve" horiz-adv-x="446" unicode="&#x103;"/><glyph d="M493 0l-59 161h-231l-60-161h-142l245 637h153l245-637q-41-44-54-67t-13-45q0-37 42-37 25 0 46 15v-67q-32-21-81-21-48 0-74.5 23.5t-26.5 61.5q0 67 71 137h-61zM306 438l-60-160h145l-59 160-13 54z" glyph-name="Aogonek" horiz-adv-x="645" unicode="&#x104;"/><glyph d="M413-134v-67q-32-21-81-21-48 0-74.5 23.5t-26.5 61.5q0 71 78 144-15 8-30 24-55-41-121-41-62 0-97.5 31.5t-35.5 84.5q0 73 52.5 110.5t179.5 49.5v29q0 27-21 35-18 7-52 7-44 0-81-14t-54-33v123q59 42 154 42 184 0 184-163 0-7-3.5-89t-3.5-94q13-10 33-10 9 0 15 2l-12-105q-14-4-33-6-58-64-58-102 0-37 42-37 25 0 46 15zM257 95v88q-64-8-86.5-20t-22.5-39q0-22 13-31t44-9q28 0 52 11z" glyph-name="aogonek" horiz-adv-x="446" unicode="&#x105;"/><glyph d="M587 178v-139q-70-49-190-49-164 0-268 87t-104 233q0 149 100 243t253 94q131 0 205-43v-144q-29 26-81.5 42.5t-110.5 16.5q-99 0-158-53.5t-59-155.5q0-88 60.5-140t167.5-52q58 0 109.5 17t75.5 43zM417 682l-109 14 51 98h161z" glyph-name="Cacute" horiz-adv-x="629" unicode="&#x106;"/><glyph d="M427 338l-118-52q-7 52-67 52-38 0-59-29.5t-21-86.5q0-110 122-110 37 0 70.5 13t51.5 31v-121q-51-45-144-45-114 0-176.5 62t-62.5 170q0 105 63.5 169t162.5 64q77 0 125-32t53-85zM280 500l-96 11 59 159h154z" glyph-name="cacute" horiz-adv-x="442" unicode="&#x107;"/><glyph d="M587 178v-139q-70-49-190-49-164 0-268 87t-104 233q0 149 100 243t253 94q131 0 205-43v-144q-29 26-81.5 42.5t-110.5 16.5q-99 0-158-53.5t-59-155.5q0-88 60.5-140t167.5-52q58 0 109.5 17t75.5 43zM517 690l-100-8-46 50-45-50-97 8 74 104h140z" glyph-name="Ccircumflex" horiz-adv-x="629" unicode="&#x108;"/><glyph d="M427 338l-118-52q-7 52-67 52-38 0-59-29.5t-21-86.5q0-110 122-110 37 0 70.5 13t51.5 31v-121q-51-45-144-45-114 0-176.5 62t-62.5 170q0 105 63.5 169t162.5 64q77 0 125-32t53-85zM403 512l-100-12-59 89-60-89-95 12 84 158h146z" glyph-name="ccircumflex" horiz-adv-x="442" unicode="&#x109;"/><glyph d="M587 178v-139q-70-49-190-49-164 0-268 87t-104 233q0 149 100 243t253 94q131 0 205-43v-144q-29 26-81.5 42.5t-110.5 16.5q-99 0-158-53.5t-59-155.5q0-88 60.5-140t167.5-52q58 0 109.5 17t75.5 43zM437 743q-2-62-64-62-31 0-47 17t-16 45 16 44.5 47 16.5 47.5-17 16.5-44z" glyph-name="Cdotaccent" horiz-adv-x="629" unicode="&#x10a;"/><glyph d="M427 338l-118-52q-7 52-67 52-38 0-59-29.5t-21-86.5q0-110 122-110 37 0 70.5 13t51.5 31v-121q-51-45-144-45-114 0-176.5 62t-62.5 170q0 105 63.5 169t162.5 64q77 0 125-32t53-85zM246 500q-37 0-56 21.5t-19 54.5q0 35 19 56t57 21q36 0 55-22t19-55q-1-34-19.5-55t-55.5-21z" glyph-name="cdotaccent" horiz-adv-x="442" unicode="&#x10b;"/><glyph d="M587 178v-139q-70-49-190-49-164 0-268 87t-104 233q0 149 100 243t253 94q131 0 205-43v-144q-29 26-81.5 42.5t-110.5 16.5q-99 0-158-53.5t-59-155.5q0-88 60.5-140t167.5-52q58 0 109.5 17t75.5 43zM229 789l100 8 46-50 45 50 97-8-74-104h-140z" glyph-name="Ccaron" horiz-adv-x="629" unicode="&#x10c;"/><glyph d="M427 338l-118-52q-7 52-67 52-38 0-59-29.5t-21-86.5q0-110 122-110 37 0 70.5 13t51.5 31v-121q-51-45-144-45-114 0-176.5 62t-62.5 170q0 105 63.5 169t162.5 64q77 0 125-32t53-85zM89 663l100 12 59-89 60 89 95-12-84-158h-146z" glyph-name="ccaron" horiz-adv-x="442" unicode="&#x10d;"/><glyph d="M214 515v-393h97q96 0 150 50.5t54 153.5q0 102-57 145.5t-168 43.5h-76zM321 0h-250v637h227q173 0 269.5-76t96.5-235q0-147-99-236.5t-244-89.5zM192 789l100 8 46-50 45 50 97-8-74-104h-140z" glyph-name="Dcaron" horiz-adv-x="689" unicode="&#x10e;"/><glyph d="M465 722v-688q-85-44-200-44-112 0-177 60t-65 167 66.5 172.5 178.5 65.5q32 0 64-9v254zM332 114v216q-23 10-62 10-51 0-79-31t-28-92q0-59 29.5-85.5t78.5-26.5q36 0 61 9zM576 504l-95 35q60 97 64 164h120q0-49-18-94.5t-71-104.5z" glyph-name="dcaron" horiz-adv-x="632" unicode="&#x10f;"/><glyph d="M321 0h-250v270h-44v104h44v263h227q173 0 269.5-76t96.5-235q0-147-99-236.5t-244-89.5zM324 270h-110v-148h97q96 0 150 50.5t54 153.5q0 102-57 145.5t-168 43.5h-76v-141h110v-104z" glyph-name="Dcroat" horiz-adv-x="689" unicode="&#x110;"/><glyph d="M505 543h-40v-509q-85-44-200-44-112 0-177 60t-65 167 66.5 172.5 178.5 65.5q32 0 64-9v97h-94v94h94v63l133 22v-85h40v-94zM332 114v216q-23 10-62 10-51 0-79-31t-28-92q0-59 29.5-85.5t78.5-26.5q36 0 61 9z" glyph-name="dcroat" horiz-adv-x="527" unicode="&#x111;"/><glyph d="M509 0h-438v637h428v-127h-285v-126h255v-127h-255v-130h295v-127zM402 695h-232v83h232v-83z" glyph-name="Emacron" horiz-adv-x="551" unicode="&#x112;"/><glyph d="M419 149v-114q-54-45-150-45-117 0-181.5 62t-64.5 166q0 110 63 173.5t160 63.5q88 0 138.5-50t50.5-142q0-38-5-73h-275q2-31 35.5-57.5t96.5-26.5q41 0 77.5 12.5t54.5 30.5zM159 278h153v9q0 67-70 67-37 0-58.5-21.5t-24.5-54.5zM367 529h-240v94h240v-94z" glyph-name="emacron" horiz-adv-x="462" unicode="&#x113;"/><glyph d="M509 0h-438v637h428v-127h-285v-126h255v-127h-255v-130h295v-127zM336 797l91-11q-17-104-141-104-125 0-141 104l93 11q5-38 49-38 42 0 49 38z" glyph-name="Ebreve" horiz-adv-x="551" unicode="&#x114;"/><glyph d="M419 149v-114q-54-45-150-45-117 0-181.5 62t-64.5 166q0 110 63 173.5t160 63.5q88 0 138.5-50t50.5-142q0-38-5-73h-275q2-31 35.5-57.5t96.5-26.5q41 0 77.5 12.5t54.5 30.5zM159 278h153v9q0 67-70 67-37 0-58.5-21.5t-24.5-54.5zM305 672l89-12q0-74-42-117t-105-43q-64 0-105.5 43t-41.5 117l89 12q6-43 17-60t41-17 41 16.5 17 60.5z" glyph-name="ebreve" horiz-adv-x="462" unicode="&#x115;"/><glyph d="M509 0h-438v637h428v-127h-285v-126h255v-127h-255v-130h295v-127zM350 743q-2-62-64-62-31 0-47 17t-16 45 16 44.5 47 16.5 47.5-17 16.5-44z" glyph-name="Edotaccent" horiz-adv-x="551" unicode="&#x116;"/><glyph d="M419 149v-114q-54-45-150-45-117 0-181.5 62t-64.5 166q0 110 63 173.5t160 63.5q88 0 138.5-50t50.5-142q0-38-5-73h-275q2-31 35.5-57.5t96.5-26.5q41 0 77.5 12.5t54.5 30.5zM159 278h153v9q0 67-70 67-37 0-58.5-21.5t-24.5-54.5zM247 500q-37 0-56 21.5t-19 54.5q0 35 19 56t57 21q36 0 55-22t19-55q-1-34-19.5-55t-55.5-21z" glyph-name="edotaccent" horiz-adv-x="462" unicode="&#x117;"/><glyph d="M492-134v-67q-32-21-81-21-48 0-74.5 23.5t-26.5 61.5q0 67 71 137h-310v637h428v-127h-285v-126h255v-127h-255v-130h295v-127h-38q-67-73-67-112 0-37 42-37 25 0 46 15z" glyph-name="Eogonek" horiz-adv-x="551" unicode="&#x118;"/><glyph d="M398-134v-67q-32-21-81-21-48 0-74.5 23.5t-26.5 61.5q0 64 61 127h-8q-117 0-181.5 62t-64.5 166q0 110 63 173.5t160 63.5q88 0 138.5-50t50.5-142q0-38-5-73h-275q2-31 35.5-57.5t96.5-26.5q41 0 77.5 12.5t54.5 30.5v-114q-109-92-109-147 0-37 42-37 25 0 46 15zM159 278h153v9q0 67-70 67-37 0-58.5-21.5t-24.5-54.5z" glyph-name="eogonek" horiz-adv-x="462" unicode="&#x119;"/><glyph d="M509 0h-438v637h428v-127h-285v-126h255v-127h-255v-130h295v-127zM143 789l100 8 46-50 45 50 97-8-74-104h-140z" glyph-name="Ecaron" horiz-adv-x="551" unicode="&#x11a;"/><glyph d="M419 149v-114q-54-45-150-45-117 0-181.5 62t-64.5 166q0 110 63 173.5t160 63.5q88 0 138.5-50t50.5-142q0-38-5-73h-275q2-31 35.5-57.5t96.5-26.5q41 0 77.5 12.5t54.5 30.5zM159 278h153v9q0 67-70 67-37 0-58.5-21.5t-24.5-54.5zM90 663l100 12 59-89 60 89 95-12-84-158h-146z" glyph-name="ecaron" horiz-adv-x="462" unicode="&#x11b;"/><glyph d="M610 296v-261q-88-45-216-45-167 0-268 85.5t-101 234.5q0 152 103.5 244.5t269.5 92.5q125 0 201-42v-145q-30 25-84 42t-113 17q-105 0-166.5-54.5t-61.5-154.5q0-95 61-144t170-49q37 0 66 6v173h139zM524 690l-100-8-46 50-45-50-97 8 74 104h140z" glyph-name="Gcircumflex" horiz-adv-x="674" unicode="&#x11c;"/><glyph d="M383 540l-96-12-56 67-57-67-91 12 80 130h140zM465 510q6-14 6-29 0-41-26-64.5t-72-23.5q48-44 48-116 0-75-55-124.5t-137-49.5q-12 0-20 1l-22-17q-10-7-10-16 0-10 16-10h148q133 0 133-121 0-82-78-136t-201-54q-96 0-144.5 28t-48.5 78q0 64 85 109-44 24-44 65 0 22 11 38l78 54q-98 46-98 154 0 79 55 129t138 50q60 0 97-21l25 76h116zM161-58q-32-24-32-48 0-40 85-40 66 0 98.5 17.5t32.5 44.5q0 26-35 26h-149zM228 199q33 0 52 22t19 60-19 58-53 20q-33 0-52-22t-19-60 19-58 53-20z" glyph-name="gcircumflex" horiz-adv-x="472" unicode="&#x11d;"/><glyph d="M610 296v-261q-88-45-216-45-167 0-268 85.5t-101 234.5q0 152 103.5 244.5t269.5 92.5q125 0 201-42v-145q-30 25-84 42t-113 17q-105 0-166.5-54.5t-61.5-154.5q0-95 61-144t170-49q37 0 66 6v173h139zM430 797l91-11q-17-104-141-104-125 0-141 104l93 11q5-38 49-38 42 0 49 38z" glyph-name="Gbreve" horiz-adv-x="674" unicode="&#x11e;"/><glyph d="M465 510q6-14 6-29 0-41-26-64.5t-72-23.5q48-44 48-116 0-75-55-124.5t-137-49.5q-12 0-20 1l-22-17q-10-7-10-16 0-10 16-10h148q133 0 133-121 0-82-78-136t-201-54q-96 0-144.5 28t-48.5 78q0 64 85 109-44 24-44 65 0 22 11 38l78 54q-98 46-98 154 0 79 55 129t138 50q60 0 97-21l25 76h116zM161-58q-32-24-32-48 0-40 85-40 66 0 98.5 17.5t32.5 44.5q0 26-35 26h-149zM228 199q33 0 52 22t19 60-19 58-53 20q-33 0-52-22t-19-60 19-58 53-20zM284 672l89-12q0-74-42-117t-105-43q-64 0-105.5 43t-41.5 117l89 12q6-43 17-60t41-17 41 16.5 17 60.5z" glyph-name="gbreve" horiz-adv-x="472" unicode="&#x11f;"/><glyph d="M610 296v-261q-88-45-216-45-167 0-268 85.5t-101 234.5q0 152 103.5 244.5t269.5 92.5q125 0 201-42v-145q-30 25-84 42t-113 17q-105 0-166.5-54.5t-61.5-154.5q0-95 61-144t170-49q37 0 66 6v173h139zM444 743q-2-62-64-62-31 0-47 17t-16 45 16 44.5 47 16.5 47.5-17 16.5-44z" glyph-name="Gdotaccent" horiz-adv-x="674" unicode="&#x120;"/><glyph d="M465 510q6-14 6-29 0-41-26-64.5t-72-23.5q48-44 48-116 0-75-55-124.5t-137-49.5q-12 0-20 1l-22-17q-10-7-10-16 0-10 16-10h148q133 0 133-121 0-82-78-136t-201-54q-96 0-144.5 28t-48.5 78q0 64 85 109-44 24-44 65 0 22 11 38l78 54q-98 46-98 154 0 79 55 129t138 50q60 0 97-21l25 76h116zM161-58q-32-24-32-48 0-40 85-40 66 0 98.5 17.5t32.5 44.5q0 26-35 26h-149zM228 199q33 0 52 22t19 60-19 58-53 20q-33 0-52-22t-19-60 19-58 53-20zM225 500q-37 0-56 21.5t-19 54.5q0 35 19 56t57 21q36 0 55-22t19-55q-1-34-19.5-55t-55.5-21z" glyph-name="gdotaccent" horiz-adv-x="472" unicode="&#x121;"/><glyph d="M610 296v-261q-88-45-216-45-167 0-268 85.5t-101 234.5q0 152 103.5 244.5t269.5 92.5q125 0 201-42v-145q-30 25-84 42t-113 17q-105 0-166.5-54.5t-61.5-154.5q0-95 61-144t170-49q37 0 66 6v173h139zM374-240l-95 35q60 97 64 164h120q0-49-18-94.5t-71-104.5z" glyph-name="Gcommaaccent" horiz-adv-x="674" unicode="&#x122;"/><glyph d="M465 510q6-14 6-29 0-41-26-64.5t-72-23.5q48-44 48-116 0-75-55-124.5t-137-49.5q-12 0-20 1l-22-17q-10-7-10-16 0-10 16-10h148q133 0 133-121 0-82-78-136t-201-54q-96 0-144.5 28t-48.5 78q0 64 85 109-44 24-44 65 0 22 11 38l78 54q-98 46-98 154 0 79 55 129t138 50q60 0 97-21l25 76h116zM161-58q-32-24-32-48 0-40 85-40 66 0 98.5 17.5t32.5 44.5q0 26-35 26h-149zM228 199q33 0 52 22t19 60-19 58-53 20q-33 0-52-22t-19-60 19-58 53-20zM254 709l95-35q-60-97-64-164h-120q0 49 18 94.5t71 104.5z" glyph-name="gcommaaccent" horiz-adv-x="472" unicode="&#x123;"/><glyph d="M623 0h-143v256h-266v-256h-143v637h143v-252h266v252h143v-637zM491 690l-100-8-46 50-45-50-97 8 74 104h140z" glyph-name="Hcircumflex" horiz-adv-x="694" unicode="&#x124;"/><glyph d="M487 0h-133v287q0 27-14 38.5t-48 11.5q-54 0-97-26v-311h-133v700l133 22v-315q65 48 148 48 144 0 144-135v-320zM307 743l-100-8-46 50-45-50-97 8 74 104h140z" glyph-name="hcircumflex" horiz-adv-x="545" unicode="&#x125;"/><glyph d="M623 0h-143v256h-266v-256h-143v429h-48v98h48v110h143v-110h266v110h143v-110h48v-98h-48v-429zM214 375h266v54h-266v-54z" glyph-name="Hbar" horiz-adv-x="694" unicode="&#x126;"/><glyph d="M289 543h-94v-136q65 48 148 48 144 0 144-135v-320h-133v287q0 27-14 38.5t-48 11.5q-54 0-97-26v-311h-133v543h-40v94h40v63l133 22v-85h94v-94z" glyph-name="hbar" horiz-adv-x="545" unicode="&#x127;"/><glyph d="M214 0h-143v637h143v-637zM248 799l40-30q-54-86-102-86-28 0-68 18l-35 15-46-40-40 30q54 86 102 86 28 0 68-18l35-15z" glyph-name="Itilde" horiz-adv-x="285" unicode="&#x128;"/><glyph d="M180 600l44 53 45-30q-29-65-51.5-88t-49.5-23q-22 0-60 22l-31 19-44-53-46 30q30 65 52.5 88t49.5 23q22 0 60-22zM195 0h-133v445h133v-445z" glyph-name="itilde" horiz-adv-x="257" unicode="&#x129;"/><glyph d="M214 0h-143v637h143v-637zM258 695h-232v83h232v-83z" glyph-name="Imacron" horiz-adv-x="285" unicode="&#x12a;"/><glyph d="M240 529h-223v94h223v-94zM195 0h-133v445h133v-445z" glyph-name="imacron" horiz-adv-x="257" unicode="&#x12b;"/><glyph d="M214 0h-143v637h143v-637zM192 797l91-11q-17-104-141-104-125 0-141 104l93 11q5-38 49-38 42 0 49 38z" glyph-name="Ibreve" horiz-adv-x="285" unicode="&#x12c;"/><glyph d="M179 672l77-12q0-75-34-117.5t-93-42.5-93.5 42.5-34.5 117.5l77 12q5-40 15-56.5t36-16.5 35.5 16 14.5 57zM195 0h-133v445h133v-445z" glyph-name="ibreve" horiz-adv-x="257" unicode="&#x12d;"/><glyph d="M214 0q-61-74-61-112 0-37 42-37 25 0 46 15v-67q-32-21-81-21-48 0-74.5 23.5t-26.5 61.5q0 61 64 137h-52v637h143v-637z" glyph-name="Iogonek" horiz-adv-x="285" unicode="&#x12e;"/><glyph d="M195 0q-61-74-61-112 0-37 42-37 25 0 46 15v-67q-32-21-81-21-48 0-74.5 23.5t-26.5 61.5q0 61 64 137h-42v445h133v-445zM128 522q-38 0-57.5 21t-19.5 55q0 35 20 56t58 21 58-21.5 20-55.5-20.5-55-58.5-21z" glyph-name="iogonek" horiz-adv-x="257" unicode="&#x12f;"/><glyph d="M214 0h-143v637h143v-637zM206 743q-2-62-64-62-31 0-47 17t-16 45 16 44.5 47 16.5 47.5-17 16.5-44z" glyph-name="Idotaccent" horiz-adv-x="285" unicode="&#x130;"/><glyph d="M195 0h-133v445h133v-445z" glyph-name="dotlessi" horiz-adv-x="257" unicode="&#x131;"/><glyph d="M214 0h-143v637h143v-637zM493 637v-530q0-62-11.5-104.5t-43.5-98.5l-62-109-118 63 55 104q37 69 37 136v539h143z" glyph-name="IJ" horiz-adv-x="564" unicode="&#x132;"/><glyph d="M128 522q-38 0-57.5 21t-19.5 55q0 35 20 56t58 21 58-21.5 20-55.5-20.5-55-58.5-21zM195 0h-133v445h133v-445zM247-201l32 71q25 55 32.5 85.5t7.5 78.5v411h133v-411q0-60-10-104t-37-97l-41-83zM385 522q-38 0-57.5 21t-19.5 55q0 35 20 56t58 21 57.5-21 19.5-56q0-34-20-55t-58-21z" glyph-name="ij" horiz-adv-x="514" unicode="&#x133;"/><glyph d="M214 637v-530q0-62-11.5-104.5t-43.5-98.5l-62-109-118 63 55 104q37 69 37 136v539h143zM286 690l-100-8-46 50-45-50-97 8 74 104h140z" glyph-name="Jcircumflex" horiz-adv-x="285" unicode="&#x134;"/><glyph d="M257 512l-93-12-37 95-38-95-88 12 54 158h148zM-10-201l32 71q25 55 32.5 85.5t7.5 78.5v411h133v-411q0-60-10-104t-37-97l-41-83z" glyph-name="jcircumflex" horiz-adv-x="257" unicode="&#x135;"/><glyph d="M640 0h-177l-208 260h-41v-260h-143v637h143v-254h41l210 254h167l-264-302zM308-240l-95 35q60 97 64 164h120q0-49-18-94.5t-71-104.5z" glyph-name="Kcommaaccent" horiz-adv-x="648" unicode="&#x136;"/><glyph d="M509 0h-158l-132 186h-24v-186h-133v700l133 22v-438h23l135 161h154l-181-197zM247-240l-95 35q60 97 64 164h120q0-49-18-94.5t-71-104.5z" glyph-name="kcommaaccent" horiz-adv-x="510" unicode="&#x137;"/><glyph d="M509 0h-158l-132 186h-24v-186h-133v445h133v-161h23l135 161h154l-181-197z" glyph-name="kgreenlandic" horiz-adv-x="510" unicode="&#x138;"/><glyph d="M489 0h-418v637h143v-510h275v-127zM200 682l-109 14 51 98h161z" glyph-name="Lacute" horiz-adv-x="506" unicode="&#x139;"/><glyph d="M195 0h-133v700l133 22v-722zM176 736l-109 14 51 98h161z" glyph-name="lacute" horiz-adv-x="257" unicode="&#x13a;"/><glyph d="M489 0h-418v637h143v-510h275v-127zM265-240l-95 35q60 97 64 164h120q0-49-18-94.5t-71-104.5z" glyph-name="Lcommaaccent" horiz-adv-x="506" unicode="&#x13b;"/><glyph d="M100-240l-95 35q60 97 64 164h120q0-49-18-94.5t-71-104.5zM195 0h-133v700l133 22v-722z" glyph-name="lcommaaccent" horiz-adv-x="257" unicode="&#x13c;"/><glyph d="M489 0h-418v637h143v-510h275v-127zM409 429l-95 35q60 97 64 164h120q0-49-18-94.5t-71-104.5z" glyph-name="Lcaron" horiz-adv-x="506" unicode="&#x13d;"/><glyph d="M195 0h-133v700l133 22v-722zM306 504l-95 35q60 97 64 164h120q0-49-18-94.5t-71-104.5z" glyph-name="lcaron" horiz-adv-x="362" unicode="&#x13e;"/><glyph d="M489 0h-418v637h143v-510h275v-127zM391 295q-36 0-54 21.5t-18 54.5q0 35 18 56t55 21q35 0 53.5-22t18.5-55q-1-34-19-55t-54-21z" glyph-name="Ldot" horiz-adv-x="506" unicode="&#x13f;"/><glyph d="M195 0h-133v700l133 22v-722zM315 295q-36 0-54 21.5t-18 54.5q0 35 18 56t55 21q35 0 53.5-22t18.5-55q-1-34-19-55t-54-21z" glyph-name="ldot" horiz-adv-x="372" unicode="&#x140;"/><glyph d="M489 0h-418v227l-44-22v108l44 22v302h143v-228l141 72v-108l-141-72v-174h275v-127z" glyph-name="Lslash" horiz-adv-x="506" unicode="&#x141;"/><glyph d="M195 0h-133v277l-47-20v103l47 20v320l133 22v-283l47 21v-103l-47-21v-336z" glyph-name="lslash" horiz-adv-x="257" unicode="&#x142;"/><glyph d="M611 0h-140l-235 393-32 72v-465h-133v637h164l211-353 32-72v425h133v-637zM383 682l-109 14 51 98h161z" glyph-name="Nacute" horiz-adv-x="682" unicode="&#x143;"/><glyph d="M481 0h-133v287q0 27-13.5 38.5t-45.5 11.5q-51 0-94-26v-311h-133v445h115l9-44q68 54 154 54 141 0 141-135v-320zM306 500l-96 11 59 159h154z" glyph-name="nacute" horiz-adv-x="539" unicode="&#x144;"/><glyph d="M611 0h-140l-235 393-32 72v-465h-133v637h164l211-353 32-72v425h133v-637zM319-240l-95 35q60 97 64 164h120q0-49-18-94.5t-71-104.5z" glyph-name="Ncommaaccent" horiz-adv-x="682" unicode="&#x145;"/><glyph d="M481 0h-133v287q0 27-13.5 38.5t-45.5 11.5q-51 0-94-26v-311h-133v445h115l9-44q68 54 154 54 141 0 141-135v-320zM246-240l-95 35q60 97 64 164h120q0-49-18-94.5t-71-104.5z" glyph-name="ncommaaccent" horiz-adv-x="539" unicode="&#x146;"/><glyph d="M611 0h-140l-235 393-32 72v-465h-133v637h164l211-353 32-72v425h133v-637zM202 789l100 8 46-50 45 50 97-8-74-104h-140z" glyph-name="Ncaron" horiz-adv-x="682" unicode="&#x147;"/><glyph d="M481 0h-133v287q0 27-13.5 38.5t-45.5 11.5q-51 0-94-26v-311h-133v445h115l9-44q68 54 154 54 141 0 141-135v-320zM116 663l100 12 59-89 60 89 95-12-84-158h-146z" glyph-name="ncaron" horiz-adv-x="539" unicode="&#x148;"/><glyph d="M539 0h-133v287q0 27-13.5 38.5t-45.5 11.5q-51 0-94-26v-311h-133v445h115l9-44q68 54 154 54 141 0 141-135v-320zM87 504l-95 35q60 97 64 164h120q0-49-18-94.5t-71-104.5z" glyph-name="napostrophe" horiz-adv-x="597" unicode="&#x149;"/><glyph d="M611 637v-533q0-87-38-172l-40-89-122 50 30 67q25 56 25 71l-230 352-32 72v-455h-133v637h152l223-353 32-72v425h133z" glyph-name="Eng" horiz-adv-x="682" unicode="&#x14a;"/><glyph d="M403-174l-105 67q29 39 39.5 65t10.5 56v273q0 27-13.5 38.5t-45.5 11.5q-51 0-94-26v-311h-133v445h115l8-38h9q65 48 146 48 141 0 141-135v-285q0-68-14.5-106.5t-63.5-102.5z" glyph-name="eng" horiz-adv-x="555" unicode="&#x14b;"/><glyph d="M25 314q0 147 102.5 240t239.5 93q144 0 240-87t96-237q0-147-102.5-240t-239.5-93q-144 0-240 87.5t-96 236.5zM554 323q0 93-53.5 146.5t-133.5 53.5q-82 0-137.5-57t-55.5-152q0-93 53.5-146.5t133.5-53.5q82 0 137.5 56.5t55.5 152.5zM480 695h-232v83h232v-83z" glyph-name="Omacron" horiz-adv-x="728" unicode="&#x14c;"/><glyph d="M260-10q-105 0-171 64t-66 169q0 102 70 167t170 65q105 0 171.5-64t66.5-169q0-101-70.5-166.5t-170.5-65.5zM361 222q0 59-26 89t-72 30-73-30-27-88q0-59 26-89t72-30 73 30 27 88zM382 529h-240v94h240v-94z" glyph-name="omacron" horiz-adv-x="524" unicode="&#x14d;"/><glyph d="M25 314q0 147 102.5 240t239.5 93q144 0 240-87t96-237q0-147-102.5-240t-239.5-93q-144 0-240 87.5t-96 236.5zM554 323q0 93-53.5 146.5t-133.5 53.5q-82 0-137.5-57t-55.5-152q0-93 53.5-146.5t133.5-53.5q82 0 137.5 56.5t55.5 152.5zM414 797l91-11q-17-104-141-104-125 0-141 104l93 11q5-38 49-38 42 0 49 38z" glyph-name="Obreve" horiz-adv-x="728" unicode="&#x14e;"/><glyph d="M320 672l89-12q0-74-42-117t-105-43q-64 0-105.5 43t-41.5 117l89 12q6-43 17-60t41-17 41 16.5 17 60.5zM260-10q-105 0-171 64t-66 169q0 102 70 167t170 65q105 0 171.5-64t66.5-169q0-101-70.5-166.5t-170.5-65.5zM361 222q0 59-26 89t-72 30-73-30-27-88q0-59 26-89t72-30 73 30 27 88z" glyph-name="obreve" horiz-adv-x="524" unicode="&#x14f;"/><glyph d="M25 314q0 147 102.5 240t239.5 93q144 0 240-87t96-237q0-147-102.5-240t-239.5-93q-144 0-240 87.5t-96 236.5zM554 323q0 93-53.5 146.5t-133.5 53.5q-82 0-137.5-57t-55.5-152q0-93 53.5-146.5t133.5-53.5q82 0 137.5 56.5t55.5 152.5zM320 682l-106 14 51 98h148zM497 682l-106 14 51 98h148z" glyph-name="Ohungarumlaut" horiz-adv-x="728" unicode="&#x150;"/><glyph d="M213 500l-86 11 55 159h136zM375 500l-86 11 55 159h136zM260-10q-105 0-171 64t-66 169q0 102 70 167t170 65q105 0 171.5-64t66.5-169q0-101-70.5-166.5t-170.5-65.5zM361 222q0 59-26 89t-72 30-73-30-27-88q0-59 26-89t72-30 73 30 27 88z" glyph-name="ohungarumlaut" horiz-adv-x="524" unicode="&#x151;"/><glyph d="M481 123v391q-45 12-108 12-91 0-145-52.5t-54-158.5q0-102 52.5-153t142.5-51q69 0 112 12zM909 637v-127h-285v-126h255v-127h-255v-130h295v-127h-438q-51-10-112-10-161 0-252.5 84.5t-91.5 240.5q0 152 96 242t252 90q57 0 108-10h428z" glyph-name="OE" horiz-adv-x="961" unicode="&#x152;"/><glyph d="M763 149v-114q-54-45-150-45-122 0-185 73-65-73-171-73-104 0-169 63.5t-65 169.5q0 102 68.5 167t168.5 65q110 0 170-70 62 70 160 70 88 0 138.5-50t50.5-142q0-38-5-73h-275q2-31 35.5-57.5t96.5-26.5q41 0 77.5 12.5t54.5 30.5zM261 101q46 0 73 31t27 90-26 90.5-72 31.5-73-31-27-90 26-90.5 72-31.5zM503 279h153v7q0 69-72 69-35 0-56.5-21.5t-24.5-54.5z" glyph-name="oe" horiz-adv-x="806" unicode="&#x153;"/><glyph d="M211 338h70q50 0 78 25.5t28 70.5q0 87-108 87h-68v-183zM601 0h-166l-142 230h-82v-230h-140v637h225q115 0 175-52t60-141q0-54-29-99.5t-79-70.5zM321 682l-109 14 51 98h161z" glyph-name="Racute" horiz-adv-x="599" unicode="&#x154;"/><glyph d="M359 439v-114q-21 12-52 12-56 0-112-42v-295h-133v445h115l12-45q64 55 117 55 34 0 53-16zM240 500l-96 11 59 159h154z" glyph-name="racute" horiz-adv-x="379" unicode="&#x155;"/><glyph d="M211 338h70q50 0 78 25.5t28 70.5q0 87-108 87h-68v-183zM601 0h-166l-142 230h-82v-230h-140v637h225q115 0 175-52t60-141q0-54-29-99.5t-79-70.5zM293-240l-95 35q60 97 64 164h120q0-49-18-94.5t-71-104.5z" glyph-name="Rcommaaccent" horiz-adv-x="599" unicode="&#x156;"/><glyph d="M359 439v-114q-21 12-52 12-56 0-112-42v-295h-133v445h115l12-45q64 55 117 55 34 0 53-16zM101-240l-95 35q60 97 64 164h120q0-49-18-94.5t-71-104.5z" glyph-name="rcommaaccent" horiz-adv-x="379" unicode="&#x157;"/><glyph d="M211 338h70q50 0 78 25.5t28 70.5q0 87-108 87h-68v-183zM601 0h-166l-142 230h-82v-230h-140v637h225q115 0 175-52t60-141q0-54-29-99.5t-79-70.5zM136 789l100 8 46-50 45 50 97-8-74-104h-140z" glyph-name="Rcaron" horiz-adv-x="599" unicode="&#x158;"/><glyph d="M359 439v-114q-21 12-52 12-56 0-112-42v-295h-133v445h115l12-45q64 55 117 55 34 0 53-16zM49 663l100 12 59-89 60 89 95-12-84-158h-146z" glyph-name="rcaron" horiz-adv-x="379" unicode="&#x159;"/><glyph d="M455 188q0-87-62.5-142.5t-174.5-55.5q-124 0-182 42l12 132q66-53 165-53 52 0 72.5 16t20.5 48q0 28-27.5 48.5t-67 36.5-79 37-67 60-27.5 94q0 87 63.5 141.5t173.5 54.5q100 0 153-30v-131q-22 16-63.5 28t-83.5 12q-54 0-74-15.5t-20-45.5q0-22 27.5-40t67-34.5 79-38.5 67-64 27.5-100zM298 682l-109 14 51 98h161z" glyph-name="Sacute" horiz-adv-x="485" unicode="&#x15a;"/><glyph d="M40 24l9 120q41-45 129-45 48 0 48 31 0 12-19.5 22.5t-47 21-55.5 25-47.5 43-19.5 68.5q0 65 48 105t137 40q79 0 121-27v-116q-19 14-55.5 24t-72.5 10q-26 0-35-7.5t-9-21.5 29.5-26.5 65-24.5 65-45.5 29.5-83.5q0-64-48-105.5t-136-41.5-136 34zM239 500l-96 11 59 159h154z" glyph-name="sacute" horiz-adv-x="387" unicode="&#x15b;"/><glyph d="M455 188q0-87-62.5-142.5t-174.5-55.5q-124 0-182 42l12 132q66-53 165-53 52 0 72.5 16t20.5 48q0 28-27.5 48.5t-67 36.5-79 37-67 60-27.5 94q0 87 63.5 141.5t173.5 54.5q100 0 153-30v-131q-22 16-63.5 28t-83.5 12q-54 0-74-15.5t-20-45.5q0-22 27.5-40t67-34.5 79-38.5 67-64 27.5-100zM407 690l-100-8-46 50-45-50-97 8 74 104h140z" glyph-name="Scircumflex" horiz-adv-x="485" unicode="&#x15c;"/><glyph d="M40 24l9 120q41-45 129-45 48 0 48 31 0 12-19.5 22.5t-47 21-55.5 25-47.5 43-19.5 68.5q0 65 48 105t137 40q79 0 121-27v-116q-19 14-55.5 24t-72.5 10q-26 0-35-7.5t-9-21.5 29.5-26.5 65-24.5 65-45.5 29.5-83.5q0-64-48-105.5t-136-41.5-136 34zM362 512l-100-12-59 89-60-89-95 12 84 158h146z" glyph-name="scircumflex" horiz-adv-x="387" unicode="&#x15d;"/><glyph d="M455 188q0-87-62.5-142.5t-174.5-55.5q-124 0-182 42l12 132q66-53 165-53 52 0 72.5 16t20.5 48q0 28-27.5 48.5t-67 36.5-79 37-67 60-27.5 94q0 87 63.5 141.5t173.5 54.5q100 0 153-30v-131q-22 16-63.5 28t-83.5 12q-54 0-74-15.5t-20-45.5q0-22 27.5-40t67-34.5 79-38.5 67-64 27.5-100zM133-203v69q23-23 70-23 37 0 37 21 0 11-12.5 17t-32.5 13.5-31 18.5l45 61h50l-11-29q3-2 26-13.5t36-27.5 13-44q0-35-30-58.5t-80-23.5q-54 0-80 19z" glyph-name="Scedilla" horiz-adv-x="485" unicode="&#x15e;"/><glyph d="M40 24l9 120q41-45 129-45 48 0 48 31 0 12-19.5 22.5t-47 21-55.5 25-47.5 43-19.5 68.5q0 65 48 105t137 40q79 0 121-27v-116q-19 14-55.5 24t-72.5 10q-26 0-35-7.5t-9-21.5 29.5-26.5 65-24.5 65-45.5 29.5-83.5q0-64-48-105.5t-136-41.5-136 34zM82-203v69q23-23 70-23 37 0 37 21 0 11-12.5 17t-32.5 13.5-31 18.5l45 61h50l-11-29q3-2 26-13.5t36-27.5 13-44q0-35-30-58.5t-80-23.5q-54 0-80 19z" glyph-name="scedilla" horiz-adv-x="387" unicode="&#x15f;"/><glyph d="M455 188q0-87-62.5-142.5t-174.5-55.5q-124 0-182 42l12 132q66-53 165-53 52 0 72.5 16t20.5 48q0 28-27.5 48.5t-67 36.5-79 37-67 60-27.5 94q0 87 63.5 141.5t173.5 54.5q100 0 153-30v-131q-22 16-63.5 28t-83.5 12q-54 0-74-15.5t-20-45.5q0-22 27.5-40t67-34.5 79-38.5 67-64 27.5-100zM119 789l100 8 46-50 45 50 97-8-74-104h-140z" glyph-name="Scaron" horiz-adv-x="485" unicode="&#x160;"/><glyph d="M40 24l9 120q41-45 129-45 48 0 48 31 0 12-19.5 22.5t-47 21-55.5 25-47.5 43-19.5 68.5q0 65 48 105t137 40q79 0 121-27v-116q-19 14-55.5 24t-72.5 10q-26 0-35-7.5t-9-21.5 29.5-26.5 65-24.5 65-45.5 29.5-83.5q0-64-48-105.5t-136-41.5-136 34zM48 663l100 12 59-89 60 89 95-12-84-158h-146z" glyph-name="scaron" horiz-adv-x="387" unicode="&#x161;"/><glyph d="M561 510h-199v-510h-143v510h-199v127h541v-127zM195-203v69q23-23 70-23 37 0 37 21 0 11-12.5 17t-32.5 13.5-31 18.5l45 61h50l-11-29q3-2 26-13.5t36-27.5 13-44q0-35-30-58.5t-80-23.5q-54 0-80 19z" glyph-name="Tcommaaccent" horiz-adv-x="581" unicode="&#x162;"/><glyph d="M327 132v-97q-38-45-121-45-126 0-126 115v235h-60v105h60v95l133 31v-126h111v-105h-111v-210q0-14 9.5-20.5t37.5-6.5q48 0 67 29zM97-203v69q23-23 70-23 37 0 37 21 0 11-12.5 17t-32.5 13.5-31 18.5l45 61h50l-11-29q3-2 26-13.5t36-27.5 13-44q0-35-30-58.5t-80-23.5q-54 0-80 19z" glyph-name="tcommaaccent" horiz-adv-x="359" unicode="&#x163;"/><glyph d="M561 510h-199v-510h-143v510h-199v127h541v-127zM146 789l100 8 46-50 45 50 97-8-74-104h-140z" glyph-name="Tcaron" horiz-adv-x="581" unicode="&#x164;"/><glyph d="M327 132v-97q-38-45-121-45-126 0-126 115v235h-60v105h60v95l133 31v-126h111v-105h-111v-210q0-14 9.5-20.5t37.5-6.5q48 0 67 29zM318 484l-89 33q56 90 60 154h113q0-47-17-89t-67-98z" glyph-name="tcaron" horiz-adv-x="359" unicode="&#x165;"/><glyph d="M460 239h-98v-239h-143v239h-98v104h98v167h-199v127h541v-127h-199v-167h98v-104z" glyph-name="Tbar" horiz-adv-x="581" unicode="&#x166;"/><glyph d="M295 184h-82v-54q0-14 9.5-20.5t37.5-6.5q48 0 67 29v-97q-38-45-121-45-126 0-126 115v79h-51v97h51v59h-60v105h60v95l133 31v-126h111v-105h-111v-59h82v-97z" glyph-name="tbar" horiz-adv-x="359" unicode="&#x167;"/><glyph d="M613 637v-428q0-97-76.5-158t-205.5-61q-127 0-198.5 60.5t-71.5 158.5v428h143v-388q0-59 31.5-90.5t105.5-31.5 105.5 31.5 31.5 90.5v388h135zM449 799l40-30q-54-86-102-86-28 0-68 18l-35 15-46-40-40 30q54 86 102 86 28 0 68-18l35-15z" glyph-name="Utilde" horiz-adv-x="674" unicode="&#x168;"/><glyph d="M60 445h133v-287q0-27 13-38.5t42-11.5q47 0 90 26v311h133v-445h-115l-9 44q-69-54-150-54-137 0-137 135v320zM429 622q-34-63-59.5-85.5t-55.5-22.5q-27 0-69 21l-36 18-52-55-50 34q34 63 59.5 85.5t55.5 22.5q26 0 69-21l36-18 52 55z" glyph-name="utilde" horiz-adv-x="533" unicode="&#x169;"/><glyph d="M613 637v-428q0-97-76.5-158t-205.5-61q-127 0-198.5 60.5t-71.5 158.5v428h143v-388q0-59 31.5-90.5t105.5-31.5 105.5 31.5 31.5 90.5v388h135zM459 695h-232v83h232v-83z" glyph-name="Umacron" horiz-adv-x="674" unicode="&#x16a;"/><glyph d="M60 445h133v-287q0-27 13-38.5t42-11.5q47 0 90 26v311h133v-445h-115l-9 44q-69-54-150-54-137 0-137 135v320zM386 529h-240v94h240v-94z" glyph-name="umacron" horiz-adv-x="533" unicode="&#x16b;"/><glyph d="M613 637v-428q0-97-76.5-158t-205.5-61q-127 0-198.5 60.5t-71.5 158.5v428h143v-388q0-59 31.5-90.5t105.5-31.5 105.5 31.5 31.5 90.5v388h135zM393 797l91-11q-17-104-141-104-125 0-141 104l93 11q5-38 49-38 42 0 49 38z" glyph-name="Ubreve" horiz-adv-x="674" unicode="&#x16c;"/><glyph d="M60 445h133v-287q0-27 13-38.5t42-11.5q47 0 90 26v311h133v-445h-115l-9 44q-69-54-150-54-137 0-137 135v320zM325 672l89-12q0-74-42-117t-105-43q-64 0-105.5 43t-41.5 117l89 12q6-43 17-60t41-17 41 16.5 17 60.5z" glyph-name="ubreve" horiz-adv-x="533" unicode="&#x16d;"/><glyph d="M613 637v-428q0-97-76.5-158t-205.5-61q-127 0-198.5 60.5t-71.5 158.5v428h143v-388q0-59 31.5-90.5t105.5-31.5 105.5 31.5 31.5 90.5v388h135zM450 762q0-40-28-64t-77-24q-50 0-78 23.5t-28 63.5 28 64 77 24q50 0 78-23.5t28-63.5zM345 731q16 0 23 7t7 24-7 23.5-24 6.5q-16 0-23-7t-7-24q0-30 31-30z" glyph-name="Uring" horiz-adv-x="674" unicode="&#x16e;"/><glyph d="M60 445h133v-287q0-27 13-38.5t42-11.5q47 0 90 26v311h133v-445h-115l-9 44q-69-54-150-54-137 0-137 135v320zM373 587q0-40-28-64t-77-24q-50 0-78 23.5t-28 63.5 28 64 77 24q50 0 78-23.5t28-63.5zM268 556q16 0 23 7t7 24-7 23.5-24 6.5q-16 0-23-7t-7-24q0-30 31-30z" glyph-name="uring" horiz-adv-x="533" unicode="&#x16f;"/><glyph d="M613 637v-428q0-97-76.5-158t-205.5-61q-127 0-198.5 60.5t-71.5 158.5v428h143v-388q0-59 31.5-90.5t105.5-31.5 105.5 31.5 31.5 90.5v388h135zM292 682l-106 14 51 98h148zM469 682l-106 14 51 98h148z" glyph-name="Uhungarumlaut" horiz-adv-x="674" unicode="&#x170;"/><glyph d="M60 445h133v-287q0-27 13-38.5t42-11.5q47 0 90 26v311h133v-445h-115l-9 44q-69-54-150-54-137 0-137 135v320zM212 500l-86 11 55 159h136zM374 500l-86 11 55 159h136z" glyph-name="uhungarumlaut" horiz-adv-x="533" unicode="&#x171;"/><glyph d="M493-134v-67q-32-21-81-21-48 0-74.5 23.5t-26.5 61.5q0 66 63 129-18-2-43-2-127 0-198.5 60.5t-71.5 158.5v428h143v-388q0-59 31.5-90.5t105.5-31.5 105.5 31.5 31.5 90.5v388h135v-428q0-123-116-183-54-54-73-84t-19-54q0-37 42-37 25 0 46 15z" glyph-name="Uogonek" horiz-adv-x="674" unicode="&#x172;"/><glyph d="M60 445h133v-287q0-27 13-38.5t42-11.5q47 0 90 26v311h133v-445q-41-44-54-67t-13-45q0-37 42-37 25 0 46 15v-67q-32-21-81-21-48 0-74.5 23.5t-26.5 61.5q0 70 71 137h-25l-9 44q-69-54-150-54-137 0-137 135v320z" glyph-name="uogonek" horiz-adv-x="533" unicode="&#x173;"/><glyph d="M956 637l-186-637h-158l-102 349-16 81-17-81-110-349h-158l-182 637h147l107-415 15-81 17 81 113 327-28 88h149l126-415 17-81 15 81 113 415h138zM637 690l-100-8-46 50-45-50-97 8 74 104h140z" glyph-name="Wcircumflex" horiz-adv-x="981" unicode="&#x174;"/><glyph d="M751 445l-155-445h-143l-60 202-15 70-17-70-70-202h-143l-130 440 140 10 65-257 13-69 16 69 65 193-19 54 142 10 76-257 15-69 14 69 77 252h129zM541 512l-100-12-59 89-60-89-95 12 84 158h146z" glyph-name="wcircumflex" horiz-adv-x="757" unicode="&#x175;"/><glyph d="M577 637l-214-384v-253h-143v253l-214 384h157l101-188 32-68 31 68 102 188h148zM441 690l-100-8-46 50-45-50-97 8 74 104h140z" glyph-name="Ycircumflex" horiz-adv-x="583" unicode="&#x176;"/><glyph d="M484 445l-174-445q-71-184-124-251l-118 51q61 79 116 200l-175 440 142 10 81-231 19-68 19 68 77 226h137zM409 512l-100-12-59 89-60-89-95 12 84 158h146z" glyph-name="ycircumflex" horiz-adv-x="490" unicode="&#x177;"/><glyph d="M577 637l-214-384v-253h-143v253l-214 384h157l101-188 32-68 31 68 102 188h148zM272 741q-2-58-62-58-30 0-45.5 16t-15.5 42 15.5 42 45.5 16 46-16.5 16-41.5zM448 741q-1-26-16.5-42t-45.5-16-46 16.5-16 41.5q0 26 16 42t47 16q29 0 45-16.5t16-41.5z" glyph-name="Ydieresis" horiz-adv-x="583" unicode="&#x178;"/><glyph d="M542 0h-506v113l323 397h-297v127h468v-113l-323-397h335v-127zM334 682l-109 14 51 98h161z" glyph-name="Zacute" horiz-adv-x="579" unicode="&#x179;"/><glyph d="M390 0h-363v105l205 225h-198v115h349v-105l-205-225h212v-115zM242 500l-96 11 59 159h154z" glyph-name="zacute" horiz-adv-x="417" unicode="&#x17a;"/><glyph d="M542 0h-506v113l323 397h-297v127h468v-113l-323-397h335v-127zM356 743q-2-62-64-62-31 0-47 17t-16 45 16 44.5 47 16.5 47.5-17 16.5-44z" glyph-name="Zdotaccent" horiz-adv-x="579" unicode="&#x17b;"/><glyph d="M390 0h-363v105l205 225h-198v115h349v-105l-205-225h212v-115zM211 500q-37 0-56 21.5t-19 54.5q0 35 19 56t57 21q36 0 55-22t19-55q-1-34-19.5-55t-55.5-21z" glyph-name="zdotaccent" horiz-adv-x="417" unicode="&#x17c;"/><glyph d="M542 0h-506v113l323 397h-297v127h468v-113l-323-397h335v-127zM148 789l100 8 46-50 45 50 97-8-74-104h-140z" glyph-name="Zcaron" horiz-adv-x="579" unicode="&#x17d;"/><glyph d="M390 0h-363v105l205 225h-198v115h349v-105l-205-225h212v-115zM54 663l100 12 59-89 60 89 95-12-84-158h-146z" glyph-name="zcaron" horiz-adv-x="417" unicode="&#x17e;"/><glyph d="M195 0h-133v468q0 116 66 185t169 69q57 0 93-17v-121q-23 18-76 18-119 0-119-136v-466z" glyph-name="longs" horiz-adv-x="268" unicode="&#x17f;"/><glyph d="M53 468v133q77 46 202 46 160 0 253-88.5t93-235.5q0-150-87.5-241.5t-218.5-91.5q-125 0-195 70t-70 200q0 31 7 82h420q-6 75-63.5 126t-156.5 51q-118 0-184-51zM448 239h-277v-14q0-53 32.5-86t96.5-33 103 38.5 45 94.5z" glyph-name="uni018F" horiz-adv-x="626" unicode="&#x18f;"/><glyph d="M284 248v-179q0-106-50-171.5t-135-65.5q-49 0-79 17v116q18-18 59-18 39 0 57 27t18 90v184h-120v105h120v40q0 116 65 185t168 69q59 0 93-21v-116q-22 22-76 22-120 0-120-138v-41h158v-105h-158z" glyph-name="florin" unicode="&#x192;"/><glyph d="M470 274h-144l-119-147h335v-127h-506v113l131 161h-65v96h143l114 140h-297v127h468v-113l-126-154h66v-96z" glyph-name="uni01B5" horiz-adv-x="579" unicode="&#x1b5;"/><glyph d="M357 181h-119l-60-66h212v-115h-363v105l69 76h-41v86h119l58 63h-198v115h349v-105l-67-73h41v-86z" glyph-name="uni01B6" horiz-adv-x="417" unicode="&#x1b6;"/><glyph d="M490 0l-59 161h-231l-60-161h-139l243 637h153l243-637h-150zM428 762q0-40-28-64t-77-24q-50 0-78 23.5t-28 63.5q0 60 57 80l40 63h136l-73-65q51-22 51-77zM303 438l-60-160h145l-59 160-13 54zM323 731q16 0 23 7t7 24-7 23.5-24 6.5q-16 0-23-7t-7-24q0-30 31-30z" glyph-name="Aringacute" horiz-adv-x="645" unicode="&#x1fa;"/><glyph d="M279 31q-55-41-121-41-62 0-97.5 31.5t-35.5 84.5q0 73 52.5 110.5t179.5 49.5v29q0 27-21 35-18 7-52 7-44 0-81-14t-54-33v123q59 42 154 42 184 0 184-163 0-7-3.5-89t-3.5-94q13-10 33-10 9 0 15 2l-12-105q-18-6-41-6-55 0-96 41zM321 587q0-40-28-64t-77-24q-50 0-78 23.5t-28 63.5q0 58 56 80l53 83h136l-88-84q54-20 54-78zM257 95v88q-64-8-86.5-20t-22.5-39q0-22 13-31t44-9q28 0 52 11zM216 556q16 0 23 7t7 24-7 23.5-24 6.5q-16 0-23-7t-7-24q0-30 31-30z" glyph-name="aringacute" horiz-adv-x="446" unicode="&#x1fb;"/><glyph d="M886 0h-438v258h-208l-97-258h-142l243 637h632v-125h-285v-129h255v-125h-255v-133h295v-125zM336 512l-49-129h161v129h-112zM576 682l-109 14 51 98h161z" glyph-name="AEacute" horiz-adv-x="928" unicode="&#x1fc;"/><glyph d="M208 85q37 0 75 19-18 32-21 80-68-9-91-21t-23-39q0-39 60-39zM651 149v-114q-54-45-150-45-101 0-159 47-93-47-175-47-68 0-105 31t-37 85q0 72 53.5 110t182.5 50v29q0 27-20 35-18 7-55 7-46 0-83-14t-54-33v123q59 42 154 42 97 0 136-46 58 46 139 46 88 0 138.5-50t50.5-142q0-38-5-73h-275q2-31 35.5-57.5t96.5-26.5q41 0 77.5 12.5t54.5 30.5zM391 279h153v7q0 69-72 69-35 0-56.5-21.5t-24.5-54.5zM396 500l-96 11 59 159h154z" glyph-name="aeacute" horiz-adv-x="694" unicode="&#x1fd;"/><glyph d="M683 693l-87-124q107-89 107-246 0-147-102.5-240t-239.5-93q-81 0-150 29l-53-75h-99l82 117q-116 90-116 253 0 147 102.5 240t239.5 93q87 0 161-34l56 80h99zM174 314q0-86 46-140l232 330q-41 19-85 19-82 0-137.5-57t-55.5-152zM554 323q0 77-40 130l-227-325q34-14 74-14 82 0 137.5 56.5t55.5 152.5zM410 682l-109 14 51 98h161z" glyph-name="Oslashacute" horiz-adv-x="728" unicode="&#x1fe;"/><glyph d="M504 501l-74-106q71-65 71-173 0-101-70.5-166.5t-170.5-65.5q-52 0-101 18l-45-64h-91l72 104q-72 64-72 175 0 102 70 167t170 65q56 0 104-20l46 66h91zM163 223q0-36 11-63l123 176q-17 5-34 5-46 0-73-30t-27-88zM361 222q0 33-10 60l-122-174q13-4 32-4 46 0 73 30t27 88zM300 500l-96 11 59 159h154z" glyph-name="oslashacute" horiz-adv-x="524" unicode="&#x1ff;"/><glyph d="M455 188q0-87-62.5-142.5t-174.5-55.5q-124 0-182 42l12 132q66-53 165-53 52 0 72.5 16t20.5 48q0 28-27.5 48.5t-67 36.5-79 37-67 60-27.5 94q0 87 63.5 141.5t173.5 54.5q100 0 153-30v-131q-22 16-63.5 28t-83.5 12q-54 0-74-15.5t-20-45.5q0-22 27.5-40t67-34.5 79-38.5 67-64 27.5-100zM200-240l-95 35q60 97 64 164h120q0-49-18-94.5t-71-104.5z" glyph-name="Scommaaccent" horiz-adv-x="485" unicode="&#x218;"/><glyph d="M40 24l9 120q41-45 129-45 48 0 48 31 0 12-19.5 22.5t-47 21-55.5 25-47.5 43-19.5 68.5q0 65 48 105t137 40q79 0 121-27v-116q-19 14-55.5 24t-72.5 10q-26 0-35-7.5t-9-21.5 29.5-26.5 65-24.5 65-45.5 29.5-83.5q0-64-48-105.5t-136-41.5-136 34zM162-240l-95 35q60 97 64 164h120q0-49-18-94.5t-71-104.5z" glyph-name="scommaaccent" horiz-adv-x="387" unicode="&#x219;"/><glyph d="M561 510h-199v-510h-143v510h-199v127h541v-127zM263-240l-95 35q60 97 64 164h120q0-49-18-94.5t-71-104.5z" glyph-name="uni021A" horiz-adv-x="581" unicode="&#x21a;"/><glyph d="M327 132v-97q-38-45-121-45-126 0-126 115v235h-60v105h60v95l133 31v-126h111v-105h-111v-210q0-14 9.5-20.5t37.5-6.5q48 0 67 29zM181-240l-95 35q60 97 64 164h120q0-49-18-94.5t-71-104.5z" glyph-name="uni021B" horiz-adv-x="359" unicode="&#x21b;"/><glyph d="M-10-201l32 71q25 55 32.5 85.5t7.5 78.5v411h133v-411q0-60-10-104t-37-97l-41-83z" glyph-name="uni0237" horiz-adv-x="257" unicode="&#x237;"/><glyph d="M382 512l-100-12-59 89-60-89-95 12 84 158h146z" glyph-name="circumflex" horiz-adv-x="450" unicode="&#x2c6;"/><glyph d="M331 587q0-40-28-64t-77-24q-50 0-78 23.5t-28 63.5 28 64 77 24q50 0 78-23.5t28-63.5zM226 556q16 0 23 7t7 24-7 23.5-24 6.5q-16 0-23-7t-7-24q0-30 31-30z" glyph-name="ring" horiz-adv-x="450" unicode="&#x2da;"/><glyph d="M386 622q-34-63-59.5-85.5t-55.5-22.5q-27 0-69 21l-36 18-52-55-50 34q34 63 59.5 85.5t55.5 22.5q26 0 69-21l36-18 52 55z" glyph-name="tilde" horiz-adv-x="450" unicode="&#x2dc;"/><glyph d="M956 637l-186-637h-158l-102 349-16 81-17-81-110-349h-158l-182 637h147l107-415 15-81 17 81 113 327-28 88h149l126-415 17-81 15 81 113 415h138zM561 696l-109-14-103 112h161z" glyph-name="Wgrave" horiz-adv-x="981" unicode="&#x1e80;"/><glyph d="M751 445l-155-445h-143l-60 202-15 70-17-70-70-202h-143l-130 440 140 10 65-257 13-69 16 69 65 193-19 54 142 10 76-257 15-69 14 69 77 252h129zM450 511l-96-11-117 170h154z" glyph-name="wgrave" horiz-adv-x="757" unicode="&#x1e81;"/><glyph d="M956 637l-186-637h-158l-102 349-16 81-17-81-110-349h-158l-182 637h147l107-415 15-81 17 81 113 327-28 88h149l126-415 17-81 15 81 113 415h138zM528 682l-109 14 51 98h161z" glyph-name="Wacute" horiz-adv-x="981" unicode="&#x1e82;"/><glyph d="M751 445l-155-445h-143l-60 202-15 70-17-70-70-202h-143l-130 440 140 10 65-257 13-69 16 69 65 193-19 54 142 10 76-257 15-69 14 69 77 252h129zM416 500l-96 11 59 159h154z" glyph-name="wacute" horiz-adv-x="757" unicode="&#x1e83;"/><glyph d="M956 637l-186-637h-158l-102 349-16 81-17-81-110-349h-158l-182 637h147l107-415 15-81 17 81 113 327-28 88h149l126-415 17-81 15 81 113 415h138zM464 741q-2-58-62-58-30 0-45.5 16t-15.5 42 15.5 42 45.5 16 46-16.5 16-41.5zM640 741q-1-26-16.5-42t-45.5-16-46 16.5-16 41.5q0 26 16 42t47 16q29 0 45-16.5t16-41.5z" glyph-name="Wdieresis" horiz-adv-x="981" unicode="&#x1e84;"/><glyph d="M751 445l-155-445h-143l-60 202-15 70-17-70-70-202h-143l-130 440 140 10 65-257 13-69 16 69 65 193-19 54 142 10 76-257 15-69 14 69 77 252h129zM295 500q-33 0-50 19.5t-17 49.5q0 31 17 50.5t51 19.5q32 0 49.5-20t17.5-50q-1-31-18-50t-50-19zM474 500q-33 0-50 19.5t-17 49.5q0 31 17 50.5t51 19.5q32 0 49-20t17-50q-1-31-17.5-50t-49.5-19z" glyph-name="wdieresis" horiz-adv-x="757" unicode="&#x1e85;"/><glyph d="M634 0h-171l-145 226-152-226h-151l226 325-222 312h171l143-212 146 212h151l-220-313zM389 743q-2-62-64-62-31 0-47 17t-16 45 16 44.5 47 16.5 47.5-17 16.5-44z" glyph-name="uni1E8A" horiz-adv-x="649" unicode="&#x1e8a;"/><glyph d="M494 0h-160l-88 139-92-139h-145l154 218-152 222 154 10 87-144 88 139h145l-151-218zM249 500q-37 0-56 21.5t-19 54.5q0 35 19 56t57 21q36 0 55-22t19-55q-1-34-19.5-55t-55.5-21z" glyph-name="uni1E8B" horiz-adv-x="498" unicode="&#x1e8b;"/><glyph d="M577 637l-214-384v-253h-143v253l-214 384h157l101-188 32-68 31 68 102 188h148zM368 696l-109-14-103 112h161z" glyph-name="Ygrave" horiz-adv-x="583" unicode="&#x1ef2;"/><glyph d="M484 445l-174-445q-71-184-124-251l-118 51q61 79 116 200l-175 440 142 10 81-231 19-68 19 68 77 226h137zM310 511l-96-11-117 170h154z" glyph-name="ygrave" horiz-adv-x="490" unicode="&#x1ef3;"/><glyph glyph-name="uni2007" unicode="&#x2007;"/><glyph glyph-name="uni2008" horiz-adv-x="270" unicode="&#x2008;"/><glyph glyph-name="uni200B" horiz-adv-x="0" unicode="&#x200b;"/><glyph d="M380 193h-310v99h310v-99z" glyph-name="endash" horiz-adv-x="450" unicode="&#x2013;"/><glyph d="M830 193h-760v99h760v-99z" glyph-name="emdash" horiz-adv-x="900" unicode="&#x2014;"/><glyph d="M116 712l104-30q-40-87-55.5-132.5t-20.5-94.5h-127q3 59 22.5 111.5t76.5 145.5z" glyph-name="quoteleft" horiz-adv-x="232" unicode="&#x2018;"/><glyph d="M116 445l-104 30q40 87 55.5 132.5t20.5 94.5h127q-3-59-22.5-111.5t-76.5-145.5z" glyph-name="quoteright" horiz-adv-x="232" unicode="&#x2019;"/><glyph d="M116-126l-104 30q40 87 55.5 132.5t20.5 94.5h127q-3-59-22.5-111.5t-76.5-145.5z" glyph-name="quotesinglbase" horiz-adv-x="232" unicode="&#x201a;"/><glyph d="M116 712l104-30q-40-87-55.5-132.5t-20.5-94.5h-127q3 59 22.5 111.5t76.5 145.5zM296 712l104-30q-40-87-55.5-132.5t-20.5-94.5h-127q3 59 22.5 111.5t76.5 145.5z" glyph-name="quotedblleft" horiz-adv-x="412" unicode="&#x201c;"/><glyph d="M116 445l-104 30q40 87 55.5 132.5t20.5 94.5h127q-3-59-22.5-111.5t-76.5-145.5zM296 445l-104 30q40 87 55.5 132.5t20.5 94.5h127q-3-59-22.5-111.5t-76.5-145.5z" glyph-name="quotedblright" horiz-adv-x="412" unicode="&#x201d;"/><glyph d="M116-126l-104 30q40 87 55.5 132.5t20.5 94.5h127q-3-59-22.5-111.5t-76.5-145.5zM296-126l-104 30q40 87 55.5 132.5t20.5 94.5h127q-3-59-22.5-111.5t-76.5-145.5z" glyph-name="quotedblbase" horiz-adv-x="412" unicode="&#x201e;"/><glyph d="M317-163h-133v489h-149v126h149v185h133v-185h149v-126h-149v-489z" glyph-name="dagger" unicode="&#x2020;"/><glyph d="M35 148h149v178h-149v126h149v185h133v-185h149v-126h-149v-178h149v-126h-149v-185h-133v185h-149v126z" glyph-name="daggerdbl" unicode="&#x2021;"/><glyph d="M139 120q-43 0-70.5 26.5t-27.5 74.5q0 49 27 75.5t71 26.5 71.5-26.5 27.5-75.5q0-48-27.5-74.5t-71.5-26.5z" glyph-name="bullet" horiz-adv-x="279" unicode="&#x2022;"/><glyph d="M135-10q-34 0-55 20t-21 56q0 38 21 58t55 20 55-20 21-58q0-36-21-56t-55-20zM390-10q-34 0-55 20t-21 56q0 38 21 58t55 20 55-20 21-58q0-36-21-56t-55-20zM644-10q-34 0-55 20t-21 56q0 38 21 58t55 20 55-20 21-58q0-36-21-56t-55-20z" glyph-name="ellipsis" horiz-adv-x="779" unicode="&#x2026;"/><glyph d="M718 158q0-72-46-111.5t-111-39.5q-67 0-112 38.5t-45 112.5q0 72 46 111.5t111 39.5q67 0 112-38.5t45-112.5zM561 90q58 0 58 68t-58 68-58-68 58-68zM165-23l353 697 60-16-353-697zM339 477q0-72-46-111.5t-111-39.5q-67 0-112 38.5t-45 112.5q0 72 46 111.5t111 39.5q67 0 112-38.5t45-112.5zM182 409q58 0 58 68t-58 68-58-68 58-68zM1064 158q0-72-46-111.5t-111-39.5q-67 0-112 38.5t-45 112.5q0 72 46 111.5t111 39.5q67 0 112-38.5t45-112.5zM907 90q58 0 58 68t-58 68-58-68 58-68z" glyph-name="perthousand" horiz-adv-x="1089" unicode="&#x2030;"/><glyph d="M306 26h-118l-158 196 158 196h118l-123-197z" glyph-name="guilsinglleft" horiz-adv-x="336" unicode="&#x2039;"/><glyph d="M30 418h118l158-196-158-196h-118l123 197z" glyph-name="guilsinglright" horiz-adv-x="336" unicode="&#x203a;"/><glyph d="M-194-24l452 698 61-15-452-698z" glyph-name="fraction" horiz-adv-x="125" unicode="&#x2044;"/><glyph d="M281 387h-32v-69h-78v69h-134v75q48 74 66 109.5t24 65.5h73q-2-32-20.5-70t-69.5-114h62l15 71h62v-64h37z" glyph-name="uni2074" horiz-adv-x="320" unicode="&#x2074;"/><glyph d="M23 410h58q18 121 83 179t160 58q80 0 128-31v-126q-44 42-116 42-99 0-121-122h194v-55h-200q-1-12-1-36 0-20 1-30h200v-55h-196q11-66 42.5-97.5t90.5-31.5q36 0 68 13t49 33v-122q-48-39-130-39-223 0-253 244h-57v55h52v30q0 24 1 36h-53v55z" glyph-name="Euro" unicode="&#x20ac;"/><glyph d="M439 178h-377v91h377v-91z" glyph-name="minus" unicode="&#x2212;"/><glyph d="M128 522q-38 0-57.5 21t-19.5 55q0 35 20 56t58 21 58-21.5 20-55.5-20.5-55-58.5-21zM195 0h-133v445h133v-445z" glyph-name="i.latn_TRK" horiz-adv-x="257"/><glyph d="M489 0h-418v637h143v-510h275v-127zM408 295q-36 0-54.5 21.5t-18.5 54.5q0 35 18 56t55 21q35 0 53.5-22t18.5-55q-1-34-19-55t-53-21z" glyph-name="Ldot.latn_CAT" horiz-adv-x="506"/><glyph d="M195 0h-133v700l133 22v-722zM307 295q-36 0-54.5 21.5t-18.5 54.5q0 35 18 56t55 21q35 0 53.5-22t18.5-55q-1-34-19-55t-53-21z" glyph-name="ldot.latn_CAT" horiz-adv-x="372"/></font>
</defs>
</svg>
