<?xml version="1.0" standalone="no"?>
<!DOCTYPE svg PUBLIC "-//W3C//DTD SVG 1.1//EN" "http://www.w3.org/Graphics/SVG/1.1/DTD/svg11.dtd" >
<svg>
<metadata>
Created by FontForge 20120731 at Wed Jun  1 09:21:33 2016
 By ,,,
2009 Xavier Dupre' published by FSI FontShop International GmbH
</metadata>
<defs>
<font id="YogaSansPro" horiz-adv-x="500" >
  <font-face 
    font-family="YogaSansPro"
    font-weight="400"
    font-stretch="normal"
    units-per-em="1000"
    panose-1="2 11 5 4 2 1 1 1 1 2"
    ascent="749"
    descent="-251"
    x-height="445"
    cap-height="637"
    bbox="-194 -250 1056 904"
    underline-thickness="80"
    underline-position="-35"
    unicode-range="U+000D-2212"
  />
<missing-glyph horiz-adv-x="527" 
d="M80 0v637h367v-637h-367zM141 61h245v515h-245v-515z" />
    <glyph glyph-name="f_f" unicode="ff" horiz-adv-x="589" 
d="M669 621q-27 22 -78 22q-135 0 -135 -173v-25h110v-73h-110v-372h-83v372h-195v-372h-83v372h-71v73h71v30q0 122 58 184.5t144 62.5q45 0 69 -12v-80q-21 13 -59 13q-129 0 -129 -173v-25h195v30q0 122 60 184.5t150 62.5q56 0 86 -20v-81z" />
    <glyph glyph-name="f_f_i" unicode="ffi" horiz-adv-x="793" 
d="M729 0h-83v372h-190v-372h-83v372h-195v-372h-83v372h-71v73h71v30q0 122 58 184.5t144 62.5q45 0 69 -12v-80q-21 13 -59 13q-129 0 -129 -173v-25h195v25q0 120 69.5 186t172.5 66q77 0 110 -26v-83q-37 30 -105 30q-73 0 -118.5 -41t-45.5 -132v-25h273v-445z" />
    <glyph glyph-name="f_f_j" unicode="ffj" horiz-adv-x="809" 
d="M729 445v-410q0 -70 -25 -129l-67 -156l-74 31l62 148q21 49 21 106v337h-190v-372h-83v372h-195v-372h-83v372h-71v73h71v30q0 122 58 184.5t144 62.5q45 0 69 -12v-80q-21 13 -59 13q-129 0 -129 -173v-25h195v25q0 120 69.5 186t172.5 66q77 0 110 -26v-83
q-37 30 -105 30q-73 0 -118.5 -41t-45.5 -132v-25h273z" />
    <glyph glyph-name="f_f_l" unicode="ffl" horiz-adv-x="828" 
d="M748 0h-83v622q-24 11 -66 11q-143 0 -143 -173v-15h110v-73h-110v-372h-83v372h-195v-372h-83v372h-71v73h71v30q0 122 58 184.5t144 62.5q45 0 69 -12v-80q-21 13 -59 13q-129 0 -129 -173v-25h195v20q0 122 63 184.5t155 62.5q47 0 77 -11l80 21v-722z" />
    <glyph glyph-name="f_i" unicode="fi" horiz-adv-x="515" 
d="M451 0h-83v372h-190v-372h-83v372h-71v73h71v29q0 120 68 184t171 64q80 0 113 -26v-83q-36 30 -108 30q-73 0 -117 -41t-44 -132v-25h273v-445z" />
    <glyph glyph-name="f_j" unicode="fj" horiz-adv-x="531" 
d="M451 445v-410q0 -70 -25 -129l-67 -156l-74 31l62 148q21 49 21 106v337h-190v-372h-83v372h-71v73h71v29q0 120 68 184t171 64q80 0 113 -26v-83q-36 30 -108 30q-73 0 -117 -41t-44 -132v-25h273z" />
    <glyph glyph-name="f_l" unicode="fl" horiz-adv-x="550" 
d="M470 0h-83v622q-24 11 -66 11q-143 0 -143 -173v-15h110v-73h-110v-372h-83v372h-71v73h71v20q0 122 63 184.5t155 62.5q47 0 77 -11l80 21v-722z" />
    <glyph glyph-name=".notdef" horiz-adv-x="527" 
d="M80 0v637h367v-637h-367zM141 61h245v515h-245v-515z" />
    <glyph glyph-name=".null" horiz-adv-x="0" 
 />
    <glyph glyph-name=".null" horiz-adv-x="0" 
 />
    <glyph glyph-name="nonmarkingreturn" horiz-adv-x="333" 
 />
    <glyph glyph-name="CR" unicode="&#xd;" horiz-adv-x="240" 
 />
    <glyph glyph-name="space" unicode=" " horiz-adv-x="240" 
 />
    <glyph glyph-name="exclam" unicode="!" horiz-adv-x="332" 
d="M198 224h-64l-18 413h100zM225 48q0 -28 -16.5 -43t-42.5 -15t-42.5 15t-16.5 43q0 29 16 44t43 15t43 -15t16 -44z" />
    <glyph glyph-name="quotedbl" unicode="&#x22;" horiz-adv-x="318" 
d="M123 455h-70l-13 257h96zM265 455h-70l-13 257h96z" />
    <glyph glyph-name="numbersign" unicode="#" 
d="M457 488l-14 -73l-83 -9l-24 -123l84 9l-14 -73l-85 -9l-42 -217l-55 8l40 204l-100 -10l-39 -202l-55 8l37 189l-83 -8l14 73l83 8l24 123l-84 -8l14 73l84 8l29 147l55 -8l-26 -134l99 10l26 132l55 -8l-23 -119zM203 391l-24 -123l99 10l24 123z" />
    <glyph glyph-name="dollar" unicode="$" 
d="M424 190q0 -63 -48 -106.5t-125 -48.5l-7 -94h-41l7 94q-90 5 -134 39l7 80q49 -42 132 -47l13 174q-35 16 -54.5 27.5t-45 31t-37.5 45.5t-12 59q0 63 47 106.5t125 50.5l8 100h41l-7 -99q77 -3 111 -25v-80q-41 30 -117 33l-12 -173q34 -16 54.5 -28t45.5 -32t37 -46.5
t12 -60.5zM339 184q0 41 -71 78l-12 -154q83 8 83 76zM164 451q0 -24 18 -41t53 -34l11 152q-82 -12 -82 -77z" />
    <glyph glyph-name="percent" unicode="%" horiz-adv-x="743" 
d="M181 326q-61 0 -104.5 39.5t-43.5 111.5q0 70 44 110.5t105 40.5t104.5 -39.5t43.5 -111.5q0 -70 -44 -110.5t-105 -40.5zM181 391q76 0 76 86t-75 86q-76 0 -76 -86t75 -86zM165 -23l361 697l52 -16l-361 -697zM561 7q-61 0 -104.5 39.5t-43.5 111.5q0 70 44 110.5
t105 40.5t104.5 -39.5t43.5 -111.5q0 -70 -44 -110.5t-105 -40.5zM561 72q76 0 76 86t-75 86q-76 0 -76 -86t75 -86z" />
    <glyph glyph-name="ampersand" unicode="&#x26;" horiz-adv-x="689" 
d="M669 383l-75 -117q-46 -71 -103 -135q74 -58 132 -58q17 0 32 6l-10 -79q-23 -10 -49 -10q-79 0 -172 79q-98 -79 -200 -79q-93 0 -142.5 42t-49.5 115q0 59 40.5 108t110.5 98q-41 72 -41 138q0 71 46.5 113.5t119.5 42.5q68 0 106.5 -32t38.5 -84q0 -50 -40.5 -93
t-116.5 -96q73 -98 137 -160q43 48 92 126l47 75h97zM233 72q67 0 134 50q-68 66 -144 168q-99 -74 -99 -132q0 -40 28 -63t81 -23zM229 496q0 -40 29 -92q54 37 81 64t27 54q0 24 -17 38t-47 14q-32 0 -52.5 -21.5t-20.5 -56.5z" />
    <glyph glyph-name="quotesingle" unicode="'" horiz-adv-x="176" 
d="M123 455h-70l-13 257h96z" />
    <glyph glyph-name="parenleft" unicode="(" horiz-adv-x="279" 
d="M40 272q0 141 47.5 245t128.5 162l53 -46q-143 -119 -143 -361t143 -361l-53 -46q-81 58 -128.5 162t-47.5 245z" />
    <glyph glyph-name="parenright" unicode=")" horiz-adv-x="279" 
d="M239 270q0 -141 -47.5 -245t-128.5 -162l-53 46q143 119 143 361t-143 361l53 46q81 -58 128.5 -162t47.5 -245z" />
    <glyph glyph-name="asterisk" unicode="*" horiz-adv-x="434" 
d="M286 300l-69 115l-69 -115l-65 48l88 101l-131 30l25 77l124 -53l-13 134h82l-13 -134l124 53l25 -77l-131 -30l88 -101z" />
    <glyph glyph-name="plus" unicode="+" 
d="M284 18h-69v175h-154v61h154v175h69v-175h154v-61h-154v-175z" />
    <glyph glyph-name="comma" unicode="," horiz-adv-x="253" 
d="M74 -171l-61 30q47 86 64.5 138t19.5 104h84q0 -62 -22.5 -121.5t-84.5 -150.5z" />
    <glyph glyph-name="hyphen" unicode="-" horiz-adv-x="300" 
d="M248 206l-196 -39v78l196 39v-78z" />
    <glyph glyph-name="period" unicode="." horiz-adv-x="253" 
d="M188 51q0 -27 -16.5 -44t-45.5 -17q-28 0 -44.5 17.5t-16.5 43.5q0 28 16.5 45t45.5 17q28 0 44.5 -18t16.5 -44z" />
    <glyph glyph-name="slash" unicode="/" horiz-adv-x="354" 
d="M357 656l-343 -793l-58 16l343 793z" />
    <glyph glyph-name="zero" unicode="0" horiz-adv-x="480" 
d="M240 -10q-97 0 -152 63.5t-55 184.5q0 115 56 182.5t151 67.5q97 0 152 -63.5t55 -184.5q0 -115 -56 -182.5t-151 -67.5zM240 71q121 0 121 169q0 167 -121 167t-121 -169q0 -167 121 -167z" />
    <glyph glyph-name="one" unicode="1" horiz-adv-x="380" 
d="M347 0h-279v68l106 8v322h-106v65l106 15h86v-402l87 -8v-68z" />
    <glyph glyph-name="two" unicode="2" horiz-adv-x="480" 
d="M426 0h-358v82q127 72 179 124t52 108q0 94 -98 94q-73 0 -93 -57l-65 39q14 46 57.5 72t106.5 26q80 0 131.5 -45.5t51.5 -121.5q0 -66 -45.5 -123.5t-150.5 -118.5h238z" />
    <glyph glyph-name="three" unicode="3" horiz-adv-x="480" 
d="M414 22q0 -81 -60.5 -136t-161.5 -55q-91 0 -135 35v92q43 -46 136 -46q60 0 94 28t34 78q0 109 -147 109h-59v78h59q139 0 139 108q0 46 -27.5 70.5t-77.5 24.5q-77 0 -97 -57l-65 39q14 46 57.5 72t109.5 26q86 0 138.5 -45.5t52.5 -123.5q0 -46 -26 -86t-73 -59
q53 -18 81 -59t28 -93z" />
    <glyph glyph-name="four" unicode="4" horiz-adv-x="480" 
d="M438 10h-64v-169h-86v169h-248v82q108 178 145 252.5t47 133.5h82q-9 -70 -45.5 -146.5t-145.5 -243.5h165l14 154h72v-153h70z" />
    <glyph glyph-name="five" unicode="5" horiz-adv-x="480" 
d="M421 399h-221l-29 -165q114 -13 181.5 -68t67.5 -146q0 -82 -60.5 -135.5t-150.5 -53.5q-99 0 -151 44v95q23 -26 65 -42.5t86 -16.5q55 0 88.5 28t33.5 79q0 64 -64.5 101t-180.5 39v49l45 271h296z" />
    <glyph glyph-name="six" unicode="6" horiz-adv-x="480" 
d="M432 181q0 -86 -57 -138.5t-135 -52.5q-86 0 -138.5 55t-52.5 155q0 120 85 245.5t244 201.5l49 -64q-108 -50 -180.5 -127.5t-90.5 -139.5q39 39 108 39q70 0 119 -46t49 -128zM239 66q47 0 76 27t29 81q0 52 -27.5 79t-76.5 27q-47 0 -75.5 -28t-28.5 -78q0 -52 28 -80
t75 -28z" />
    <glyph glyph-name="seven" unicode="7" horiz-adv-x="480" 
d="M155 -159h-83q11 84 70.5 208t201.5 350h-302l6 79h386v-82q-247 -393 -279 -555z" />
    <glyph glyph-name="eight" unicode="8" horiz-adv-x="480" 
d="M301 333q64 -40 95 -81t31 -100q0 -69 -54.5 -115.5t-134.5 -46.5q-85 0 -134.5 40.5t-49.5 113.5q0 97 114 176q-105 69 -105 163q0 73 52.5 118.5t129.5 45.5t124 -38t47 -112q0 -87 -115 -164zM223 285q-84 -67 -84 -137q0 -82 102 -82q45 0 72.5 22t27.5 59
q0 38 -27 69.5t-91 68.5zM246 368q85 68 85 127q0 76 -89 76q-43 0 -68 -19.5t-25 -59.5q0 -35 23 -63.5t74 -60.5z" />
    <glyph glyph-name="nine" unicode="9" horiz-adv-x="480" 
d="M48 297q0 86 57 138.5t135 52.5q86 0 138.5 -55t52.5 -155q0 -120 -85 -245.5t-244 -201.5l-49 64q108 50 180.5 127.5t90.5 139.5q-39 -39 -108 -39q-70 0 -119 46t-49 128zM241 412q-47 0 -76 -27t-29 -81q0 -52 27.5 -79t76.5 -27q47 0 75.5 28t28.5 78q0 52 -28 80
t-75 28z" />
    <glyph glyph-name="colon" unicode=":" horiz-adv-x="300" 
d="M213 51q0 -27 -16.5 -44t-45.5 -17q-28 0 -44.5 17.5t-16.5 43.5q0 28 16.5 45t45.5 17q28 0 44.5 -18t16.5 -44zM213 383q0 -27 -16.5 -44t-45.5 -17q-28 0 -44.5 17.5t-16.5 43.5q0 28 16.5 45t45.5 17q28 0 44.5 -18t16.5 -44z" />
    <glyph glyph-name="semicolon" unicode=";" horiz-adv-x="300" 
d="M213 383q0 -27 -16.5 -44t-45.5 -17q-28 0 -44.5 17.5t-16.5 43.5q0 28 16.5 45t45.5 17q28 0 44.5 -18t16.5 -44zM86 -171l-61 30q47 86 64.5 138t19.5 104h84q0 -62 -22.5 -121.5t-84.5 -150.5z" />
    <glyph glyph-name="less" unicode="&#x3c;" 
d="M410 18h-85l-235 206l235 205h85v-7l-221 -195l221 -203v-6z" />
    <glyph glyph-name="equal" unicode="=" 
d="M428 278h-357v61h357v-61zM428 108h-357v61h357v-61z" />
    <glyph glyph-name="greater" unicode="&#x3e;" 
d="M410 223l-235 -205h-85v7l221 195l-221 203v6h85z" />
    <glyph glyph-name="question" unicode="?" horiz-adv-x="421" 
d="M139 247l-14 78q76 12 117 49t41 88q0 50 -32 77.5t-89 27.5q-42 0 -74 -16v82q36 14 78 14q92 0 148 -50t56 -135q0 -80 -62 -141t-169 -74zM239 48q0 -28 -16.5 -43t-42.5 -15t-42.5 15t-16.5 43q0 29 16 44t43 15t43 -15t16 -44z" />
    <glyph glyph-name="at" unicode="@" horiz-adv-x="934" 
d="M564 -64l9 -70q-30 -38 -87.5 -60t-134.5 -22q-141 0 -229.5 90.5t-88.5 250.5q0 145 68 265.5t184.5 188.5t254.5 68q168 0 264.5 -84.5t96.5 -226.5q0 -143 -88.5 -236.5t-194.5 -93.5q-51 0 -76 21.5t-25 56.5q0 11 2 19q-86 -97 -157 -97q-37 0 -62 32.5t-25 83.5
q0 124 71.5 218t153.5 94q57 0 95 -49l20 31h64l-58 -190q-27 -90 -27 -119q0 -35 41 -35q30 0 63 16.5t63.5 47t50.5 82.5t20 115q0 116 -78.5 181.5t-227.5 65.5q-81 0 -157 -33t-134.5 -91.5t-93.5 -145t-35 -185.5q0 -131 70 -202.5t188 -71.5q64 0 118 24.5t82 60.5z
M535 189l42 135q-34 43 -76 43q-49 0 -96 -70t-47 -163q0 -29 9 -40t28 -11q41 0 140 106z" />
    <glyph glyph-name="A" unicode="A" horiz-adv-x="635" 
d="M514 0l-70 187h-256l-73 -187h-96l253 637h100l244 -637h-102zM303 481l-82 -210h192l-79 210l-15 57z" />
    <glyph glyph-name="B" unicode="B" horiz-adv-x="549" 
d="M508 180q0 -85 -66 -132.5t-181 -47.5h-171v637h172q104 0 158 -44t54 -123q0 -42 -20 -78.5t-56 -56.5q110 -40 110 -155zM379 462q0 49 -31 71.5t-96 22.5h-70v-195h79q58 0 88 26t30 75zM412 181q0 52 -34 76t-109 24h-87v-200h91q139 0 139 100z" />
    <glyph glyph-name="C" unicode="C" horiz-adv-x="636" 
d="M586 152v-101q-31 -28 -84 -44.5t-107 -16.5q-159 0 -257 88t-98 231q0 148 98 243t248 95q129 0 196 -54v-102q-29 29 -84 48.5t-112 19.5q-108 0 -176.5 -62.5t-68.5 -187.5q0 -105 71 -168t183 -63q56 0 110.5 21t80.5 53z" />
    <glyph glyph-name="D" unicode="D" horiz-adv-x="683" 
d="M643 328q0 -148 -99 -238t-240 -90h-214v637h191q166 0 264 -77.5t98 -231.5zM185 552v-467h119q107 0 172.5 61.5t65.5 179.5q0 116 -69 171t-192 55h-96z" />
    <glyph glyph-name="E" unicode="E" horiz-adv-x="529" 
d="M489 0h-399v637h388v-87h-293v-185h263v-87h-263v-191h304v-87z" />
    <glyph glyph-name="F" unicode="F" horiz-adv-x="514" 
d="M185 0h-95v637h392v-87h-297v-190h267v-87h-267v-273z" />
    <glyph glyph-name="G" unicode="G" horiz-adv-x="682" 
d="M612 283v-239q-86 -54 -217 -54q-159 0 -257 88t-98 232q0 148 101 242.5t254 94.5q138 0 205 -54v-102q-29 29 -85.5 48.5t-119.5 19.5q-111 0 -182.5 -62.5t-71.5 -186.5q0 -106 71 -169t183 -63q78 0 122 17v188h95z" />
    <glyph glyph-name="H" unicode="H" horiz-adv-x="686" 
d="M596 0h-95v276h-316v-276h-95v637h95v-272h316v272h95v-637z" />
    <glyph glyph-name="I" unicode="I" horiz-adv-x="275" 
d="M185 0h-95v637h95v-637z" />
    <glyph glyph-name="J" unicode="J" horiz-adv-x="279" 
d="M185 637v-533q0 -85 -38 -172l-60 -137l-84 37l64 142q23 51 23 106v557h95z" />
    <glyph glyph-name="K" unicode="K" horiz-adv-x="616" 
d="M595 0h-123l-243 279h-44v-279h-95v637h95v-275h44l247 275h115l-284 -308z" />
    <glyph glyph-name="L" unicode="L" horiz-adv-x="506" 
d="M482 0h-392v637h95v-550h297v-87z" />
    <glyph glyph-name="M" unicode="M" horiz-adv-x="834" 
d="M744 0h-93v512l-19 -67l-167 -405h-100l-167 405l-19 67v-512h-89v637h123l178 -432l26 -75l25 75l179 432h123v-637z" />
    <glyph glyph-name="N" unicode="N" horiz-adv-x="694" 
d="M604 0h-90l-313 491l-22 46v-537h-89v637h121l282 -442l22 -46v488h89v-637z" />
    <glyph glyph-name="O" unicode="O" horiz-adv-x="737" 
d="M366 -10q-139 0 -232.5 88t-93.5 234q0 149 97.5 242t233.5 93q139 0 232.5 -88t93.5 -234q0 -149 -97.5 -242t-233.5 -93zM366 77q101 0 165.5 68t64.5 180q0 106 -62 170.5t-163 64.5t-165.5 -68t-64.5 -180q0 -106 62 -170.5t163 -64.5z" />
    <glyph glyph-name="P" unicode="P" horiz-adv-x="539" 
d="M499 442q0 -88 -63 -145.5t-170 -57.5h-81v-239h-95v637h179q114 0 172 -52t58 -143zM185 556v-236h81q62 0 97.5 31.5t35.5 89.5q0 115 -143 115h-71z" />
    <glyph glyph-name="Q" unicode="Q" horiz-adv-x="737" 
d="M697 325q0 -119 -64 -203t-176 -113q120 -71 202 -71q46 0 73 17v-87q-29 -21 -80 -21q-112 0 -253 90l-99 63q-116 19 -188 101.5t-72 210.5q0 149 97.5 242t233.5 93q139 0 232.5 -88t93.5 -234zM366 77q101 0 165.5 68t64.5 180q0 106 -62 170.5t-163 64.5t-165.5 -68
t-64.5 -180q0 -106 62 -170.5t163 -64.5z" />
    <glyph glyph-name="R" unicode="R" horiz-adv-x="566" 
d="M566 0h-116l-166 242h-100v-242h-94v637h185q106 0 163 -51.5t57 -137.5q0 -58 -31.5 -106.5t-89.5 -72.5zM184 321h85q62 0 95 33.5t33 87.5q0 114 -133 114h-80v-235z" />
    <glyph glyph-name="S" unicode="S" horiz-adv-x="473" 
d="M429 170q0 -77 -57.5 -128.5t-151.5 -51.5q-113 0 -172 46l8 96q64 -56 164 -56q110 0 110 87q0 32 -28.5 58.5t-69.5 47t-82 44t-69.5 62t-28.5 89.5q0 79 59 131t156 52t140 -29v-96q-20 17 -59.5 28t-80.5 11q-57 0 -86.5 -23t-29.5 -66q0 -31 28.5 -55.5t69.5 -45
t82 -44t69.5 -64t28.5 -93.5z" />
    <glyph glyph-name="T" unicode="T" horiz-adv-x="561" 
d="M537 550h-209v-550h-95v550h-209v87h513v-87z" />
    <glyph glyph-name="U" unicode="U" horiz-adv-x="672" 
d="M588 637v-417q0 -103 -70.5 -166.5t-181.5 -63.5q-116 0 -184 63t-68 167v417h95v-381q0 -89 38 -131t121 -42q82 0 120.5 42t38.5 131v381h91z" />
    <glyph glyph-name="V" unicode="V" horiz-adv-x="649" 
d="M622 637l-253 -637h-92l-243 637h104l173 -467l15 -62l16 62l182 467h98z" />
    <glyph glyph-name="W" unicode="W" horiz-adv-x="969" 
d="M932 637l-213 -637h-96l-124 370l-15 59l-14 -59l-128 -370h-96l-205 637h102l141 -464l15 -65l14 65l129 371l-35 93h101l149 -464l15 -65l14 65l149 464h97z" />
    <glyph glyph-name="X" unicode="X" horiz-adv-x="610" 
d="M582 0h-113l-166 250l-169 -250h-106l218 316l-218 321h113l166 -250l169 250h106l-219 -316z" />
    <glyph glyph-name="Y" unicode="Y" horiz-adv-x="563" 
d="M551 637l-222 -378v-259h-95v259l-211 378h109l138 -258l15 -33l15 33l148 258h103z" />
    <glyph glyph-name="Z" unicode="Z" horiz-adv-x="579" 
d="M539 0h-505v73l380 477h-346v87h464v-73l-380 -477h387v-87z" />
    <glyph glyph-name="bracketleft" unicode="[" horiz-adv-x="310" 
d="M280 -118h-195v784h195v-69h-115v-646h115v-69z" />
    <glyph glyph-name="backslash" unicode="\" horiz-adv-x="354" 
d="M340 -137l-343 793l58 16l343 -793z" />
    <glyph glyph-name="bracketright" unicode="]" horiz-adv-x="310" 
d="M30 666h195v-784h-195v69h115v646h-115v69z" />
    <glyph glyph-name="asciicircum" unicode="^" horiz-adv-x="450" 
d="M415 254l-75 -14l-117 228l-118 -228l-70 14l145 285h90z" />
    <glyph glyph-name="underscore" unicode="_" 
d="M500 -128h-500v61h500v-61z" />
    <glyph glyph-name="grave" unicode="`" horiz-adv-x="450" 
d="M326 511l-62 -11l-141 170h115z" />
    <glyph glyph-name="a" unicode="a" horiz-adv-x="435" 
d="M276 82v113q-80 -12 -113 -31t-33 -53q0 -27 16.5 -39t53.5 -12q51 0 76 22zM290 26q-55 -36 -126 -36q-52 0 -86.5 28.5t-34.5 79.5q0 67 57 106.5t176 55.5v64q0 26 -17 37q-22 15 -68 15q-40 0 -76 -14t-54 -36v82q45 47 141 47q76 0 116.5 -35.5t40.5 -104.5
q0 -7 -2.5 -117t-2.5 -122q18 -12 43 -12q7 0 10 1l-8 -72q-11 -3 -23 -3q-56 0 -86 36z" />
    <glyph glyph-name="b" unicode="b" horiz-adv-x="524" 
d="M163 89q33 -20 90 -20q68 0 109 40.5t41 121.5q0 72 -37 108.5t-103 36.5q-64 0 -100 -26v-261zM80 36v666l83 20v-298q51 31 118 31q93 0 151.5 -58.5t58.5 -165.5q0 -109 -66.5 -175t-170.5 -66q-110 0 -174 46z" />
    <glyph glyph-name="c" unicode="c" horiz-adv-x="447" 
d="M417 357l-79 -42q-22 63 -92 63q-62 0 -94 -41t-32 -117q0 -72 41.5 -111t109.5 -39q41 0 78 16.5t56 38.5v-85q-53 -50 -150 -50q-99 0 -160.5 63.5t-61.5 166.5q0 110 62 172.5t158 62.5q69 0 110.5 -26.5t53.5 -71.5z" />
    <glyph glyph-name="d" unicode="d" horiz-adv-x="524" 
d="M361 85v271q-31 20 -90 20q-68 0 -109 -40.5t-41 -121.5q0 -72 39.5 -108.5t110.5 -36.5q53 0 90 16zM444 722v-686q-79 -46 -183 -46q-107 0 -167.5 59t-60.5 165q0 107 66.5 174t164.5 67q57 0 97 -19v266z" />
    <glyph glyph-name="e" unicode="e" horiz-adv-x="467" 
d="M125 280h213v14q0 88 -98 88q-48 0 -78.5 -30t-36.5 -72zM410 119v-85q-53 -44 -147 -44q-103 0 -166.5 63.5t-63.5 166.5q0 108 62 171.5t153 63.5q80 0 128 -46t48 -127q0 -42 -3 -72h-303q1 -64 44.5 -102t113.5 -38q85 0 134 49z" />
    <glyph glyph-name="f" unicode="f" horiz-adv-x="311" 
d="M178 0h-83v372h-71v73h71v30q0 122 60 184.5t150 62.5q56 0 86 -20v-81q-27 22 -78 22q-135 0 -135 -173v-25h110v-73h-110v-372z" />
    <glyph glyph-name="g" unicode="g" horiz-adv-x="471" 
d="M178 -34q-75 -50 -75 -90q0 -51 116 -51q75 0 118 28t43 67q0 46 -50 46h-152zM231 189q40 0 66 27t26 72q0 47 -26.5 72.5t-69.5 25.5q-40 0 -66 -27t-26 -72q0 -47 26.5 -72.5t69.5 -25.5zM448 502q4 -10 4 -25q0 -72 -87 -81q39 -40 39 -109q0 -73 -50.5 -120
t-123.5 -47q-11 0 -22 1l-44 -35q-18 -14 -18 -25q0 -18 35 -18h162q120 0 120 -110q0 -76 -74 -129.5t-183 -53.5q-89 0 -139.5 28.5t-50.5 77.5q0 36 23 65t80 61q-58 16 -58 65q0 20 10 35l76 55q-93 44 -93 150q0 72 50 120t124 48q69 0 109 -31l34 78h77z" />
    <glyph glyph-name="h" unicode="h" horiz-adv-x="536" 
d="M461 0h-83v318q0 59 -74 59q-38 0 -77.5 -13.5t-63.5 -32.5v-331h-83v702l83 20v-318q73 51 165 51q133 0 133 -135v-320z" />
    <glyph glyph-name="i" unicode="i" horiz-adv-x="243" 
d="M179 605q0 -25 -15.5 -41.5t-42.5 -16.5q-26 0 -41.5 16.5t-15.5 41.5q0 26 15.5 42.5t42.5 16.5q26 0 41.5 -16.5t15.5 -42.5zM163 0h-83v445h83v-445z" />
    <glyph glyph-name="j" unicode="j" horiz-adv-x="246" 
d="M-3 -217l63 146q23 54 23 106v410h83v-410q0 -74 -25 -133l-67 -152zM182 605q0 -25 -15.5 -41.5t-42.5 -16.5q-26 0 -41.5 16.5t-15.5 41.5q0 26 15.5 42.5t42.5 16.5q26 0 41.5 -16.5t15.5 -42.5z" />
    <glyph glyph-name="k" unicode="k" horiz-adv-x="480" 
d="M470 0h-108l-176 207h-23v-207h-83v702l83 20v-459h23l180 187l98 -10l-200 -198z" />
    <glyph glyph-name="l" unicode="l" horiz-adv-x="243" 
d="M163 0h-83v702l83 20v-722z" />
    <glyph glyph-name="m" unicode="m" horiz-adv-x="790" 
d="M715 0h-83v318q0 59 -66 59q-70 0 -127 -43v-334h-83v318q0 59 -66 59q-31 0 -67 -13.5t-60 -32.5v-331h-83v445h73l9 -41q70 51 149 51q81 0 114 -59q72 59 161 59q129 0 129 -135v-320z" />
    <glyph glyph-name="n" unicode="n" horiz-adv-x="527" 
d="M452 0h-83v318q0 59 -74 59q-32 0 -70 -14t-62 -32v-331h-83v445h73l9 -41q70 51 157 51q133 0 133 -135v-320z" />
    <glyph glyph-name="o" unicode="o" horiz-adv-x="527" 
d="M494 224q0 -100 -67.5 -167t-164.5 -67q-100 0 -164.5 64.5t-64.5 166.5q0 100 67.5 167t164.5 67q100 0 164.5 -64.5t64.5 -166.5zM262 69q62 0 103 43t41 112q0 70 -39.5 111t-101.5 41t-103 -43t-41 -112q0 -70 39.5 -111t101.5 -41z" />
    <glyph glyph-name="p" unicode="p" horiz-adv-x="524" 
d="M491 231q0 -109 -66.5 -175t-170.5 -66q-48 0 -91 15v-245h-83v655q77 40 183 40q107 0 167.5 -58.5t60.5 -165.5zM163 361v-272q33 -20 90 -20q68 0 109 40.5t41 121.5q0 73 -40 109t-110 36q-53 0 -90 -15z" />
    <glyph glyph-name="q" unicode="q" horiz-adv-x="524" 
d="M361 95v265q-36 16 -90 16q-68 0 -109 -40.5t-41 -121.5q0 -72 37 -108.5t103 -36.5q64 0 100 26zM444 -240h-83v261q-48 -31 -118 -31q-93 0 -151.5 58.5t-58.5 165.5q0 110 66 175.5t171 65.5q106 0 174 -40v-655z" />
    <glyph glyph-name="r" unicode="r" horiz-adv-x="356" 
d="M330 441v-77q-18 8 -45 8q-68 0 -122 -47v-325h-83v445h73l10 -46q55 56 119 56q28 0 48 -14z" />
    <glyph glyph-name="s" unicode="s" horiz-adv-x="384" 
d="M49 23l6 86q40 -42 122 -42q79 0 79 56q0 21 -21 36t-51.5 27t-61 26.5t-51.5 42t-21 65.5q0 60 45.5 97.5t116.5 37.5q74 0 115 -27v-89q-15 16 -47 27.5t-66 11.5q-76 0 -76 -54q0 -18 21 -32t51.5 -25.5t61 -27t51.5 -44t21 -68.5q0 -60 -44 -98.5t-122 -38.5
q-86 0 -129 33z" />
    <glyph glyph-name="t" unicode="t" horiz-adv-x="334" 
d="M308 106v-72q-37 -44 -104 -44q-52 0 -83 27.5t-31 80.5v274h-75v73h75v98l83 20v-118h117v-73h-117v-262q0 -42 53 -42q51 0 82 38z" />
    <glyph glyph-name="u" unicode="u" horiz-adv-x="520" 
d="M75 445h83v-318q0 -59 74 -59q28 0 65 14t60 32v331h83v-445h-73l-9 42q-71 -52 -150 -52q-133 0 -133 135v320z" />
    <glyph glyph-name="v" unicode="v" horiz-adv-x="471" 
d="M461 445l-194 -445h-74l-170 440l88 10l110 -298l14 -46l16 46l121 293h89z" />
    <glyph glyph-name="w" unicode="w" horiz-adv-x="733" 
d="M713 445l-175 -445h-72l-86 264l-11 47l-13 -47l-102 -264h-72l-149 440l88 10l95 -295l11 -47l13 47l89 234l-17 51l88 10l98 -295l12 -47l12 47l104 290h87z" />
    <glyph glyph-name="x" unicode="x" horiz-adv-x="469" 
d="M452 0h-105l-118 167l-119 -167h-97l170 227l-155 213l97 10l114 -162l109 157h95l-158 -217z" />
    <glyph glyph-name="y" unicode="y" horiz-adv-x="477" 
d="M458 445l-176 -445q-67 -170 -122 -250l-76 34q55 77 115 216l-182 440l89 10l121 -303l15 -49l14 49l112 298h90z" />
    <glyph glyph-name="z" unicode="z" horiz-adv-x="434" 
d="M397 0h-363v73l252 299h-233v73h332v-73l-252 -299h264v-73z" />
    <glyph glyph-name="braceleft" unicode="{" horiz-adv-x="280" 
d="M251 -127q-97 0 -147 32t-50 90q0 37 40 101t40 86q0 51 -104 51v78q104 0 104 51q0 22 -40 86t-40 101q0 58 50 90t147 32v-69q-69 0 -95 -12.5t-26 -40.5q0 -20 40 -86t40 -101q0 -73 -87 -90q87 -17 87 -90q0 -35 -40 -101t-40 -86q0 -53 121 -53v-69z" />
    <glyph glyph-name="bar" unicode="|" horiz-adv-x="234" 
d="M147 -206h-61v922h61v-922z" />
    <glyph glyph-name="braceright" unicode="}" horiz-adv-x="280" 
d="M30 671q97 0 147 -32t50 -90q0 -37 -40 -101t-40 -86q0 -51 104 -51v-78q-104 0 -104 -51q0 -22 40 -86t40 -101q0 -58 -50 -90t-147 -32v69q69 0 95 12.5t26 40.5q0 20 -40 86t-40 101q0 73 87 90q-87 17 -87 90q0 35 40 101t40 86q0 53 -121 53v69z" />
    <glyph glyph-name="asciitilde" unicode="~" horiz-adv-x="450" 
d="M418 287q-49 -64 -71.5 -83.5t-52.5 -19.5q-28 0 -97 25l-54 19l-74 -71l-37 33q47 63 70.5 83t53.5 20q28 0 97 -25l54 -19l74 71z" />
    <glyph glyph-name="uni00A0" unicode="&#xa0;" horiz-adv-x="240" 
 />
    <glyph glyph-name="exclamdown" unicode="&#xa1;" horiz-adv-x="332" 
d="M134 221h64l18 -413h-100zM107 397q0 28 16.5 43t42.5 15t42.5 -15t16.5 -43q0 -29 -16 -44t-43 -15t-43 15t-16 44z" />
    <glyph glyph-name="cent" unicode="&#xa2;" 
d="M432 448l-72 -40q-18 53 -75 58l-21 -285q20 -2 32 -2q83 0 129 53v-82q-53 -50 -144 -50q-16 0 -23 1l-12 -160h-41l12 167q-69 18 -109.5 74t-40.5 136q0 94 50.5 152.5t131.5 68.5l12 162h41l-12 -160q116 -6 142 -93zM150 318q0 -93 73 -125l20 272q-93 -17 -93 -147
z" />
    <glyph glyph-name="sterling" unicode="&#xa3;" 
d="M405 354v-57h-153q29 -67 29 -101q0 -57 -66 -118h230l-7 -78h-380v78h76q59 55 59 98q0 11 -4.5 28t-9 29t-14 34.5t-12.5 29.5h-95v57h72q-25 68 -25 105q0 85 58 136.5t149 51.5q81 0 122 -31v-84q-50 36 -122 36q-118 0 -118 -102q0 -37 32 -112h179z" />
    <glyph glyph-name="currency" unicode="&#xa4;" 
d="M477 75l-59 -58l-81 95q-35 -27 -87 -27q-54 0 -87 27l-81 -95l-59 58l98 81q-25 32 -25 84q0 46 25 83l-98 81l59 58l81 -95q35 27 87 27q54 0 87 -27l81 95l59 -58l-98 -81q25 -34 25 -84q0 -47 -25 -83zM337 239q0 42 -22.5 66.5t-64.5 24.5t-64.5 -24t-22.5 -66
t22.5 -66.5t64.5 -24.5t64.5 24t22.5 66z" />
    <glyph glyph-name="yen" unicode="&#xa5;" 
d="M475 637l-159 -329h115v-51h-136v-60h136v-51h-136v-146h-91v146h-136v51h136v60h-136v51h114l-158 329h102l112 -250l16 -46l15 46l112 250h94z" />
    <glyph glyph-name="brokenbar" unicode="&#xa6;" horiz-adv-x="234" 
d="M86 -206v385h61v-385h-61zM147 331h-61v385h61v-385z" />
    <glyph glyph-name="section" unicode="&#xa7;" 
d="M341 108l-61 44q82 35 82 87q0 23 -25.5 48t-62.5 47.5t-73.5 47.5t-62 57.5t-25.5 67.5q0 63 46.5 101.5t123.5 38.5q83 0 123 -27v-88q-43 39 -124 39q-83 0 -83 -54q0 -19 25.5 -41t62.5 -45t73.5 -49t62 -60.5t25.5 -70.5q0 -99 -107 -143zM159 371l61 -44
q-82 -35 -82 -87q0 -23 25.5 -48t62 -47.5t73.5 -47.5t62.5 -57.5t25.5 -67.5q0 -63 -47 -101.5t-123 -38.5q-83 0 -123 27v88q43 -39 124 -39q83 0 83 54q0 19 -25.5 41t-62.5 45t-73.5 49t-62 60.5t-25.5 70.5q0 99 107 143z" />
    <glyph glyph-name="dieresis" unicode="&#xa8;" horiz-adv-x="450" 
d="M190 560q0 -21 -13.5 -35t-37.5 -14t-37 14t-13 35t13 35t37 14t37.5 -14t13.5 -35zM361 560q0 -21 -13.5 -35t-37.5 -14t-37 14t-13 35t13 35t37 14t37.5 -14t13.5 -35z" />
    <glyph glyph-name="copyright" unicode="&#xa9;" horiz-adv-x="733" 
d="M698 318q0 -146 -92 -237t-239 -91t-239.5 91.5t-92.5 237.5t92 237t239 91t239.5 -91.5t92.5 -237.5zM367 32q131 0 209 78.5t78 207.5q0 130 -78.5 208.5t-209.5 78.5t-209 -78.5t-78 -207.5q0 -130 78.5 -208.5t209.5 -78.5zM498 241v-69q-37 -35 -107 -35
q-88 0 -142.5 48.5t-54.5 127.5q0 82 55 134.5t137 52.5q72 0 110 -30v-70q-16 16 -47 26.5t-63 10.5q-58 0 -91 -31t-33 -93q0 -52 34 -82.5t95 -30.5q32 0 62 11.5t45 29.5z" />
    <glyph glyph-name="ordfeminine" unicode="&#xaa;" horiz-adv-x="328" 
d="M297 424l-5 -52q-8 -3 -16 -3q-41 0 -64 24q-36 -24 -82 -24q-40 0 -65 20t-25 56q0 49 38.5 77t124.5 38v40q0 21 -15 28.5t-45 7.5q-57 0 -89 -34v61q32 32 97 32q54 0 83.5 -25t29.5 -73q0 -5 -2 -81t-2 -84q12 -9 28 -9q6 0 9 1zM203 436v78q-57 -10 -78 -22t-21 -34
q0 -20 10 -28.5t36 -8.5q27 0 53 15z" />
    <glyph glyph-name="guillemotleft" unicode="&#xab;" horiz-adv-x="527" 
d="M284 26h-82l-152 196l155 196h79l-126 -195zM477 26h-82l-152 196l155 196h79l-126 -195z" />
    <glyph glyph-name="logicalnot" unicode="&#xac;" 
d="M442 119h-78v140h-306v72h384v-212z" />
    <glyph glyph-name="uni00AD" unicode="&#xad;" horiz-adv-x="300" 
d="M248 206l-196 -39v78l196 39v-78z" />
    <glyph glyph-name="registered" unicode="&#xae;" horiz-adv-x="557" 
d="M527 400q0 -109 -69 -177.5t-179 -68.5t-179.5 69t-69.5 178t69.5 177.5t179.5 68.5t179 -69t69 -178zM279 187q98 0 155 58t57 155q0 98 -57 156t-155 58t-155.5 -58t-57.5 -155q0 -98 57.5 -156t155.5 -58zM239 404h35q24 0 38 12t14 34q0 45 -54 45h-33v-91zM395 268
h-53l-61 99h-42v-99h-44v265h80q47 0 72 -21t25 -60q0 -52 -48 -72z" />
    <glyph glyph-name="macron" unicode="&#xaf;" horiz-adv-x="450" 
d="M341 533h-232v69h232v-69z" />
    <glyph glyph-name="degree" unicode="&#xb0;" horiz-adv-x="291" 
d="M272 512q0 -55 -35.5 -89.5t-90.5 -34.5q-60 0 -93.5 34.5t-33.5 90.5q0 55 35.5 89.5t91.5 34.5q59 0 92.5 -34.5t33.5 -90.5zM146 443q30 0 48 18.5t18 50.5q0 33 -18 51.5t-48 18.5q-31 0 -49 -18.5t-18 -50.5q0 -33 18 -51.5t49 -18.5z" />
    <glyph glyph-name="plusminus" unicode="&#xb1;" 
d="M404 257h-122v-117h-65v117h-122v58h122v114h65v-114h122v-58zM404 18h-309v61h309v-61z" />
    <glyph glyph-name="twosuperior" unicode="&#xb2;" horiz-adv-x="320" 
d="M270 318h-214v53q80 69 108.5 103.5t28.5 68.5q0 49 -54 49q-37 0 -46 -32l-44 25q14 57 96 57q51 0 80.5 -27t29.5 -72q0 -37 -29 -76.5t-101 -96.5h148z" />
    <glyph glyph-name="threesuperior" unicode="&#xb3;" horiz-adv-x="320" 
d="M261 409q0 -40 -34 -68t-86 -28q-53 0 -76 18v60q24 -26 77 -26q57 0 57 46q0 24 -17 34.5t-55 10.5h-27v50h27q67 0 67 44q0 42 -47 42q-40 0 -47 -32l-44 25q15 57 96 57q48 0 76 -23t28 -64q0 -24 -14 -44t-36 -25q55 -18 55 -77z" />
    <glyph glyph-name="acute" unicode="&#xb4;" horiz-adv-x="450" 
d="M185 500l-62 11l88 159h115z" />
    <glyph glyph-name="mu" unicode="&#xb5;" horiz-adv-x="520" 
d="M440 0h-73l-9 42q-70 -52 -150 -52q-31 0 -50 10v-230l-83 -20v695h83v-318q0 -59 74 -59q28 0 65 14t60 32v331h83v-445z" />
    <glyph glyph-name="paragraph" unicode="&#xb6;" 
d="M409 -163h-64v750h-54v-750h-64v467h-16q-78 0 -125.5 40.5t-47.5 116.5q0 176 204 176h167v-800z" />
    <glyph glyph-name="periodcentered" unicode="&#xb7;" horiz-adv-x="250" 
d="M188 225q0 -27 -16.5 -44t-45.5 -17q-28 0 -44.5 17.5t-16.5 43.5q0 28 16.5 45t45.5 17q28 0 44.5 -18t16.5 -44z" />
    <glyph glyph-name="cedilla" unicode="&#xb8;" horiz-adv-x="450" 
d="M136 -203v60q29 -22 77 -22q34 0 34 27q0 17 -29.5 34.5t-35.5 24.5l30 53h46l-11 -26q4 -3 19 -12t24.5 -16.5t18 -23t8.5 -35.5q0 -36 -27.5 -59.5t-73.5 -23.5q-54 0 -80 19z" />
    <glyph glyph-name="onesuperior" unicode="&#xb9;" horiz-adv-x="320" 
d="M266 318h-204v46l81 6v215h-76v45l92 7h43v-267l64 -6v-46z" />
    <glyph glyph-name="ordmasculine" unicode="&#xba;" horiz-adv-x="401" 
d="M366 533q0 -71 -48 -117.5t-118 -46.5q-73 0 -118.5 44.5t-45.5 118.5q0 70 48 116.5t118 46.5q73 0 118.5 -44.5t45.5 -117.5zM298 531q0 51 -25.5 78.5t-70.5 27.5t-71.5 -26.5t-26.5 -77.5t25.5 -78.5t70.5 -27.5t71.5 26.5t26.5 77.5z" />
    <glyph glyph-name="guillemotright" unicode="&#xbb;" horiz-adv-x="527" 
d="M243 418h82l152 -196l-155 -196h-79l126 195zM50 418h82l152 -196l-155 -196h-79l126 195z" />
    <glyph glyph-name="onequarter" unicode="&#xbc;" horiz-adv-x="765" 
d="M147 -24l464 698l49 -15l-464 -698zM266 318h-204v46l81 6v215h-76v45l92 7h43v-267l64 -6v-46zM717 79h-34v-79h-58v79h-133v55q53 85 70 120t22 65h53q-2 -32 -19.5 -69.5t-72.5 -121.5h80l10 73h48v-71h37z" />
    <glyph glyph-name="onehalf" unicode="&#xbd;" horiz-adv-x="765" 
d="M147 -24l464 698l49 -15l-464 -698zM266 318h-204v46l81 6v215h-76v45l92 7h43v-267l64 -6v-46zM715 0h-214v53q80 69 108.5 103.5t28.5 68.5q0 49 -54 49q-37 0 -46 -32l-44 25q14 57 96 57q51 0 80.5 -27t29.5 -72q0 -37 -29 -76.5t-101 -96.5h148z" />
    <glyph glyph-name="threequarters" unicode="&#xbe;" horiz-adv-x="765" 
d="M126 -24l464 698l49 -15l-464 -698zM261 409q0 -40 -34 -68t-86 -28q-53 0 -76 18v60q24 -26 77 -26q57 0 57 46q0 24 -17 34.5t-55 10.5h-27v50h27q67 0 67 44q0 42 -47 42q-40 0 -47 -32l-44 25q15 57 96 57q48 0 76 -23t28 -64q0 -24 -14 -44t-36 -25q55 -18 55 -77z
M717 79h-34v-79h-58v79h-133v55q53 85 70 120t22 65h53q-2 -32 -19.5 -69.5t-72.5 -121.5h80l10 73h48v-71h37z" />
    <glyph glyph-name="questiondown" unicode="&#xbf;" horiz-adv-x="421" 
d="M282 198l14 -78q-76 -12 -117 -49t-41 -88q0 -50 32 -77.5t89 -27.5q42 0 74 16v-82q-36 -14 -78 -14q-92 0 -148 50t-56 135q0 80 62 141t169 74zM182 397q0 28 16.5 43t42.5 15t42.5 -15t16.5 -43q0 -29 -16 -44t-43 -15t-43 15t-16 44z" />
    <glyph glyph-name="Agrave" unicode="&#xc0;" horiz-adv-x="635" 
d="M514 0l-70 187h-256l-73 -187h-96l253 637h100l244 -637h-102zM303 481l-82 -210h192l-79 210l-15 57zM351 696l-63 -14l-117 112h115z" />
    <glyph glyph-name="Aacute" unicode="&#xc1;" horiz-adv-x="635" 
d="M514 0l-70 187h-256l-73 -187h-96l253 637h100l244 -637h-102zM303 481l-82 -210h192l-79 210l-15 57zM356 682l-63 14l65 98h115z" />
    <glyph glyph-name="Acircumflex" unicode="&#xc2;" horiz-adv-x="635" 
d="M514 0l-70 187h-256l-73 -187h-96l253 637h100l244 -637h-102zM303 481l-82 -210h192l-79 210l-15 57zM462 690l-66 -8l-74 60l-73 -60l-63 8l87 104h102z" />
    <glyph glyph-name="Atilde" unicode="&#xc3;" horiz-adv-x="635" 
d="M514 0l-70 187h-256l-73 -187h-96l253 637h100l244 -637h-102zM303 481l-82 -210h192l-79 210l-15 57zM430 795l35 -27q-28 -46 -48.5 -62.5t-44.5 -16.5q-28 0 -71 19l-38 17l-46 -46l-35 27q28 46 48.5 62.5t44.5 16.5q28 0 71 -19l38 -17z" />
    <glyph glyph-name="Adieresis" unicode="&#xc4;" horiz-adv-x="635" 
d="M514 0l-70 187h-256l-73 -187h-96l253 637h100l244 -637h-102zM303 481l-82 -210h192l-79 210l-15 57zM289 737q0 -20 -13.5 -33.5t-36.5 -13.5t-35.5 13.5t-12.5 33.5t12.5 33.5t36.5 13.5q22 0 35.5 -13.5t13.5 -33.5zM453 737q0 -20 -13 -33.5t-37 -13.5
q-22 0 -35 13.5t-13 33.5t13 33.5t36 13.5t36 -13.5t13 -33.5z" />
    <glyph glyph-name="Aring" unicode="&#xc5;" horiz-adv-x="635" 
d="M514 0l-70 187h-256l-73 -187h-96l253 637h100l244 -637h-102zM303 481l-82 -210h192l-79 210l-15 57zM413 762q0 -39 -25 -63.5t-66 -24.5q-43 0 -67.5 24.5t-24.5 63.5t25 63t66 24q43 0 67.5 -24.5t24.5 -62.5zM321 723q41 0 41 39q0 38 -41 38q-40 0 -40 -38
q0 -39 40 -39z" />
    <glyph glyph-name="AE" unicode="&#xc6;" horiz-adv-x="878" 
d="M838 0h-399v278h-210l-111 -278h-99l258 637h550v-87h-293v-185h263v-87h-263v-191h304v-87zM337 550l-74 -185h176v185h-102z" />
    <glyph glyph-name="Ccedilla" unicode="&#xc7;" horiz-adv-x="636" 
d="M586 152v-101q-31 -28 -84 -44.5t-107 -16.5q-159 0 -257 88t-98 231q0 148 98 243t248 95q129 0 196 -54v-102q-29 29 -84 48.5t-112 19.5q-108 0 -176.5 -62.5t-68.5 -187.5q0 -105 71 -168t183 -63q56 0 110.5 21t80.5 53zM273 -203v60q29 -22 77 -22q34 0 34 27
q0 17 -29.5 34.5t-35.5 24.5l30 53h46l-11 -26q4 -3 19 -12t24.5 -16.5t18 -23t8.5 -35.5q0 -36 -27.5 -59.5t-73.5 -23.5q-54 0 -80 19z" />
    <glyph glyph-name="Egrave" unicode="&#xc8;" horiz-adv-x="529" 
d="M489 0h-399v637h388v-87h-293v-185h263v-87h-263v-191h304v-87zM336 696l-63 -14l-117 112h115z" />
    <glyph glyph-name="Eacute" unicode="&#xc9;" horiz-adv-x="529" 
d="M489 0h-399v637h388v-87h-293v-185h263v-87h-263v-191h304v-87zM292 682l-63 14l65 98h115z" />
    <glyph glyph-name="Ecircumflex" unicode="&#xca;" horiz-adv-x="529" 
d="M489 0h-399v637h388v-87h-293v-185h263v-87h-263v-191h304v-87zM424 690l-66 -8l-74 60l-73 -60l-63 8l87 104h102z" />
    <glyph glyph-name="Edieresis" unicode="&#xcb;" horiz-adv-x="529" 
d="M489 0h-399v637h388v-87h-293v-185h263v-87h-263v-191h304v-87zM253 737q0 -20 -13.5 -33.5t-36.5 -13.5t-35.5 13.5t-12.5 33.5t12.5 33.5t36.5 13.5q22 0 35.5 -13.5t13.5 -33.5zM417 737q0 -20 -13 -33.5t-37 -13.5q-22 0 -35 13.5t-13 33.5t13 33.5t36 13.5t36 -13.5
t13 -33.5z" />
    <glyph glyph-name="Igrave" unicode="&#xcc;" horiz-adv-x="275" 
d="M185 0h-95v637h95v-637zM180 696l-63 -14l-117 112h115z" />
    <glyph glyph-name="Iacute" unicode="&#xcd;" horiz-adv-x="275" 
d="M185 0h-95v637h95v-637zM158 682l-63 14l65 98h115z" />
    <glyph glyph-name="Icircumflex" unicode="&#xce;" horiz-adv-x="275" 
d="M185 0h-95v637h95v-637zM276 690l-66 -8l-74 60l-73 -60l-63 8l87 104h102z" />
    <glyph glyph-name="Idieresis" unicode="&#xcf;" horiz-adv-x="275" 
d="M105 737q0 -20 -13.5 -33.5t-36.5 -13.5t-35.5 13.5t-12.5 33.5t12.5 33.5t36.5 13.5q22 0 35.5 -13.5t13.5 -33.5zM269 737q0 -20 -13 -33.5t-37 -13.5q-22 0 -35 13.5t-13 33.5t13 33.5t36 13.5t36 -13.5t13 -33.5zM185 0h-95v637h95v-637z" />
    <glyph glyph-name="Eth" unicode="&#xd0;" horiz-adv-x="683" 
d="M643 328q0 -148 -99 -238t-240 -90h-214v281h-58v81h58v275h191q166 0 264 -77.5t98 -231.5zM299 281h-114v-196h119q107 0 172.5 61.5t65.5 179.5q0 116 -69 171t-192 55h-96v-190h114v-81z" />
    <glyph glyph-name="Ntilde" unicode="&#xd1;" horiz-adv-x="694" 
d="M604 0h-90l-313 491l-22 46v-537h-89v637h121l282 -442l22 -46v488h89v-637zM455 795l35 -27q-28 -46 -48.5 -62.5t-44.5 -16.5q-28 0 -71 19l-38 17l-46 -46l-35 27q28 46 48.5 62.5t44.5 16.5q28 0 71 -19l38 -17z" />
    <glyph glyph-name="Ograve" unicode="&#xd2;" horiz-adv-x="737" 
d="M366 -10q-139 0 -232.5 88t-93.5 234q0 149 97.5 242t233.5 93q139 0 232.5 -88t93.5 -234q0 -149 -97.5 -242t-233.5 -93zM366 77q101 0 165.5 68t64.5 180q0 106 -62 170.5t-163 64.5t-165.5 -68t-64.5 -180q0 -106 62 -170.5t163 -64.5zM407 696l-63 -14l-117 112h115
z" />
    <glyph glyph-name="Oacute" unicode="&#xd3;" horiz-adv-x="737" 
d="M366 -10q-139 0 -232.5 88t-93.5 234q0 149 97.5 242t233.5 93q139 0 232.5 -88t93.5 -234q0 -149 -97.5 -242t-233.5 -93zM366 77q101 0 165.5 68t64.5 180q0 106 -62 170.5t-163 64.5t-165.5 -68t-64.5 -180q0 -106 62 -170.5t163 -64.5zM392 682l-63 14l65 98h115z
" />
    <glyph glyph-name="Ocircumflex" unicode="&#xd4;" horiz-adv-x="737" 
d="M366 -10q-139 0 -232.5 88t-93.5 234q0 149 97.5 242t233.5 93q139 0 232.5 -88t93.5 -234q0 -149 -97.5 -242t-233.5 -93zM366 77q101 0 165.5 68t64.5 180q0 106 -62 170.5t-163 64.5t-165.5 -68t-64.5 -180q0 -106 62 -170.5t163 -64.5zM506 690l-66 -8l-74 60
l-73 -60l-63 8l87 104h102z" />
    <glyph glyph-name="Otilde" unicode="&#xd5;" horiz-adv-x="737" 
d="M366 -10q-139 0 -232.5 88t-93.5 234q0 149 97.5 242t233.5 93q139 0 232.5 -88t93.5 -234q0 -149 -97.5 -242t-233.5 -93zM366 77q101 0 165.5 68t64.5 180q0 106 -62 170.5t-163 64.5t-165.5 -68t-64.5 -180q0 -106 62 -170.5t163 -64.5zM475 795l35 -27
q-28 -46 -48.5 -62.5t-44.5 -16.5q-28 0 -71 19l-38 17l-46 -46l-35 27q28 46 48.5 62.5t44.5 16.5q28 0 71 -19l38 -17z" />
    <glyph glyph-name="Odieresis" unicode="&#xd6;" horiz-adv-x="737" 
d="M366 -10q-139 0 -232.5 88t-93.5 234q0 149 97.5 242t233.5 93q139 0 232.5 -88t93.5 -234q0 -149 -97.5 -242t-233.5 -93zM366 77q101 0 165.5 68t64.5 180q0 106 -62 170.5t-163 64.5t-165.5 -68t-64.5 -180q0 -106 62 -170.5t163 -64.5zM336 737q0 -20 -13.5 -33.5
t-36.5 -13.5t-35.5 13.5t-12.5 33.5t12.5 33.5t36.5 13.5q22 0 35.5 -13.5t13.5 -33.5zM500 737q0 -20 -13 -33.5t-37 -13.5q-22 0 -35 13.5t-13 33.5t13 33.5t36 13.5t36 -13.5t13 -33.5z" />
    <glyph glyph-name="multiply" unicode="&#xd7;" 
d="M429 90l-47 -47l-132 135l-132 -135l-47 47l134 134l-134 134l47 46l132 -135l132 135l47 -46l-134 -134z" />
    <glyph glyph-name="Oslash" unicode="&#xd8;" horiz-adv-x="737" 
d="M366 -10q-88 0 -160 37l-58 -83h-79l82 118q-111 90 -111 250q0 149 97.5 242t233.5 93q88 0 163 -39l60 85h79l-85 -121q109 -91 109 -247q0 -149 -97.5 -242t-233.5 -93zM141 312q0 -109 64 -173l277 395q-52 26 -111 26q-101 0 -165.5 -68t-64.5 -180zM366 77
q101 0 165.5 68t64.5 180q0 105 -62 170l-276 -394q46 -24 108 -24z" />
    <glyph glyph-name="Ugrave" unicode="&#xd9;" horiz-adv-x="672" 
d="M588 637v-417q0 -103 -70.5 -166.5t-181.5 -63.5q-116 0 -184 63t-68 167v417h95v-381q0 -89 38 -131t121 -42q82 0 120.5 42t38.5 131v381h91zM397 696l-63 -14l-117 112h115z" />
    <glyph glyph-name="Uacute" unicode="&#xda;" horiz-adv-x="672" 
d="M588 637v-417q0 -103 -70.5 -166.5t-181.5 -63.5q-116 0 -184 63t-68 167v417h95v-381q0 -89 38 -131t121 -42q82 0 120.5 42t38.5 131v381h91zM349 682l-63 14l65 98h115z" />
    <glyph glyph-name="Ucircumflex" unicode="&#xdb;" horiz-adv-x="672" 
d="M588 637v-417q0 -103 -70.5 -166.5t-181.5 -63.5q-116 0 -184 63t-68 167v417h95v-381q0 -89 38 -131t121 -42q82 0 120.5 42t38.5 131v381h91zM480 690l-66 -8l-74 60l-73 -60l-63 8l87 104h102z" />
    <glyph glyph-name="Udieresis" unicode="&#xdc;" horiz-adv-x="672" 
d="M588 637v-417q0 -103 -70.5 -166.5t-181.5 -63.5q-116 0 -184 63t-68 167v417h95v-381q0 -89 38 -131t121 -42q82 0 120.5 42t38.5 131v381h91zM304 737q0 -20 -13.5 -33.5t-36.5 -13.5t-35.5 13.5t-12.5 33.5t12.5 33.5t36.5 13.5q22 0 35.5 -13.5t13.5 -33.5zM468 737
q0 -20 -13 -33.5t-37 -13.5q-22 0 -35 13.5t-13 33.5t13 33.5t36 13.5t36 -13.5t13 -33.5z" />
    <glyph glyph-name="Yacute" unicode="&#xdd;" horiz-adv-x="563" 
d="M551 637l-222 -378v-259h-95v259l-211 378h109l138 -258l15 -33l15 33l148 258h103zM306 682l-63 14l65 98h115z" />
    <glyph glyph-name="Thorn" unicode="&#xde;" horiz-adv-x="539" 
d="M185 0h-95v637h95v-116h84q114 0 172 -52t58 -143q0 -88 -63 -145.5t-170 -57.5h-81v-123zM185 440v-236h81q62 0 97.5 31.5t35.5 89.5q0 115 -143 115h-71z" />
    <glyph glyph-name="germandbls" unicode="&#xdf;" horiz-adv-x="534" 
d="M236 20l6 85q34 -39 103 -39q70 0 70 54q0 20 -15.5 43t-38 45t-45 45.5t-38 53t-15.5 60.5q0 34 19 68t42 56t42 46.5t19 43.5q0 65 -90 65q-132 0 -132 -176v-470h-83v474q0 125 59.5 186.5t157.5 61.5q85 0 128.5 -36.5t43.5 -97.5q0 -32 -19 -64.5t-42 -54t-42 -44.5
t-19 -39q0 -21 15.5 -44t38 -45.5t45 -46.5t38 -56.5t15.5 -66.5q0 -60 -42 -98.5t-112 -38.5q-73 0 -109 30z" />
    <glyph glyph-name="agrave" unicode="&#xe0;" horiz-adv-x="435" 
d="M276 82v113q-80 -12 -113 -31t-33 -53q0 -27 16.5 -39t53.5 -12q51 0 76 22zM290 26q-55 -36 -126 -36q-52 0 -86.5 28.5t-34.5 79.5q0 67 57 106.5t176 55.5v64q0 26 -17 37q-22 15 -68 15q-40 0 -76 -14t-54 -36v82q45 47 141 47q76 0 116.5 -35.5t40.5 -104.5
q0 -7 -2.5 -117t-2.5 -122q18 -12 43 -12q7 0 10 1l-8 -72q-11 -3 -23 -3q-56 0 -86 36zM266 511l-62 -11l-141 170h115z" />
    <glyph glyph-name="aacute" unicode="&#xe1;" horiz-adv-x="435" 
d="M276 82v113q-80 -12 -113 -31t-33 -53q0 -27 16.5 -39t53.5 -12q51 0 76 22zM290 26q-55 -36 -126 -36q-52 0 -86.5 28.5t-34.5 79.5q0 67 57 106.5t176 55.5v64q0 26 -17 37q-22 15 -68 15q-40 0 -76 -14t-54 -36v82q45 47 141 47q76 0 116.5 -35.5t40.5 -104.5
q0 -7 -2.5 -117t-2.5 -122q18 -12 43 -12q7 0 10 1l-8 -72q-11 -3 -23 -3q-56 0 -86 36zM226 500l-62 11l88 159h115z" />
    <glyph glyph-name="acircumflex" unicode="&#xe2;" horiz-adv-x="435" 
d="M276 82v113q-80 -12 -113 -31t-33 -53q0 -27 16.5 -39t53.5 -12q51 0 76 22zM290 26q-55 -36 -126 -36q-52 0 -86.5 28.5t-34.5 79.5q0 67 57 106.5t176 55.5v64q0 26 -17 37q-22 15 -68 15q-40 0 -76 -14t-54 -36v82q45 47 141 47q76 0 116.5 -35.5t40.5 -104.5
q0 -7 -2.5 -117t-2.5 -122q18 -12 43 -12q7 0 10 1l-8 -72q-11 -3 -23 -3q-56 0 -86 36zM349 512l-64 -12l-82 107l-81 -107l-61 12l96 158h96z" />
    <glyph glyph-name="atilde" unicode="&#xe3;" horiz-adv-x="435" 
d="M276 82v113q-80 -12 -113 -31t-33 -53q0 -27 16.5 -39t53.5 -12q51 0 76 22zM290 26q-55 -36 -126 -36q-52 0 -86.5 28.5t-34.5 79.5q0 67 57 106.5t176 55.5v64q0 26 -17 37q-22 15 -68 15q-40 0 -76 -14t-54 -36v82q45 47 141 47q76 0 116.5 -35.5t40.5 -104.5
q0 -7 -2.5 -117t-2.5 -122q18 -12 43 -12q7 0 10 1l-8 -72q-11 -3 -23 -3q-56 0 -86 36zM358 624q-36 -60 -57 -80t-46 -20q-24 0 -73 24l-35 17l-61 -64l-36 28q36 60 57 80t46 20q24 0 73 -24l35 -17l61 64z" />
    <glyph glyph-name="adieresis" unicode="&#xe4;" horiz-adv-x="435" 
d="M276 82v113q-80 -12 -113 -31t-33 -53q0 -27 16.5 -39t53.5 -12q51 0 76 22zM290 26q-55 -36 -126 -36q-52 0 -86.5 28.5t-34.5 79.5q0 67 57 106.5t176 55.5v64q0 26 -17 37q-22 15 -68 15q-40 0 -76 -14t-54 -36v82q45 47 141 47q76 0 116.5 -35.5t40.5 -104.5
q0 -7 -2.5 -117t-2.5 -122q18 -12 43 -12q7 0 10 1l-8 -72q-11 -3 -23 -3q-56 0 -86 36zM170 560q0 -21 -13.5 -35t-37.5 -14t-37 14t-13 35t13 35t37 14t37.5 -14t13.5 -35zM341 560q0 -21 -13.5 -35t-37.5 -14t-37 14t-13 35t13 35t37 14t37.5 -14t13.5 -35z" />
    <glyph glyph-name="aring" unicode="&#xe5;" horiz-adv-x="435" 
d="M276 82v113q-80 -12 -113 -31t-33 -53q0 -27 16.5 -39t53.5 -12q51 0 76 22zM290 26q-55 -36 -126 -36q-52 0 -86.5 28.5t-34.5 79.5q0 67 57 106.5t176 55.5v64q0 26 -17 37q-22 15 -68 15q-40 0 -76 -14t-54 -36v82q45 47 141 47q76 0 116.5 -35.5t40.5 -104.5
q0 -7 -2.5 -117t-2.5 -122q18 -12 43 -12q7 0 10 1l-8 -72q-11 -3 -23 -3q-56 0 -86 36zM297 587q0 -39 -25 -63.5t-66 -24.5q-43 0 -67.5 24.5t-24.5 63.5t25 63t66 24q43 0 67.5 -24.5t24.5 -62.5zM205 548q41 0 41 39q0 38 -41 38q-40 0 -40 -38q0 -39 40 -39z" />
    <glyph glyph-name="ae" unicode="&#xe6;" horiz-adv-x="706" 
d="M200 63q50 0 105 35q-21 36 -26 97q-82 -12 -115.5 -31t-33.5 -53q0 -26 16 -37t54 -11zM502 -10q-97 0 -156 56q-85 -56 -174 -56q-58 0 -93.5 28t-35.5 80q0 67 57.5 106.5t178.5 55.5v64q0 26 -17 37q-22 15 -71 15q-40 0 -76 -14t-54 -36v82q45 47 141 47
q102 0 140 -60q56 60 145 60q80 0 128 -46t48 -127q0 -42 -3 -72h-303q1 -64 44.5 -102t113.5 -38q85 0 134 49v-85q-53 -44 -147 -44zM364 280h213v13q0 87 -98 87q-48 0 -78.5 -29t-36.5 -71z" />
    <glyph glyph-name="ccedilla" unicode="&#xe7;" horiz-adv-x="447" 
d="M417 357l-79 -42q-22 63 -92 63q-62 0 -94 -41t-32 -117q0 -72 41.5 -111t109.5 -39q41 0 78 16.5t56 38.5v-85q-53 -50 -150 -50q-99 0 -160.5 63.5t-61.5 166.5q0 110 62 172.5t158 62.5q69 0 110.5 -26.5t53.5 -71.5zM151 -203v60q29 -22 77 -22q34 0 34 27
q0 17 -29.5 34.5t-35.5 24.5l30 53h46l-11 -26q4 -3 19 -12t24.5 -16.5t18 -23t8.5 -35.5q0 -36 -27.5 -59.5t-73.5 -23.5q-54 0 -80 19z" />
    <glyph glyph-name="egrave" unicode="&#xe8;" horiz-adv-x="467" 
d="M125 280h213v14q0 88 -98 88q-48 0 -78.5 -30t-36.5 -72zM410 119v-85q-53 -44 -147 -44q-103 0 -166.5 63.5t-63.5 166.5q0 108 62 171.5t153 63.5q80 0 128 -46t48 -127q0 -42 -3 -72h-303q1 -64 44.5 -102t113.5 -38q85 0 134 49zM286 511l-62 -11l-141 170h115z" />
    <glyph glyph-name="eacute" unicode="&#xe9;" horiz-adv-x="467" 
d="M125 280h213v14q0 88 -98 88q-48 0 -78.5 -30t-36.5 -72zM410 119v-85q-53 -44 -147 -44q-103 0 -166.5 63.5t-63.5 166.5q0 108 62 171.5t153 63.5q80 0 128 -46t48 -127q0 -42 -3 -72h-303q1 -64 44.5 -102t113.5 -38q85 0 134 49zM269 500l-62 11l88 159h115z" />
    <glyph glyph-name="ecircumflex" unicode="&#xea;" horiz-adv-x="467" 
d="M125 280h213v14q0 88 -98 88q-48 0 -78.5 -30t-36.5 -72zM410 119v-85q-53 -44 -147 -44q-103 0 -166.5 63.5t-63.5 166.5q0 108 62 171.5t153 63.5q80 0 128 -46t48 -127q0 -42 -3 -72h-303q1 -64 44.5 -102t113.5 -38q85 0 134 49zM391 512l-64 -12l-82 107l-81 -107
l-61 12l96 158h96z" />
    <glyph glyph-name="edieresis" unicode="&#xeb;" horiz-adv-x="467" 
d="M125 280h213v14q0 88 -98 88q-48 0 -78.5 -30t-36.5 -72zM410 119v-85q-53 -44 -147 -44q-103 0 -166.5 63.5t-63.5 166.5q0 108 62 171.5t153 63.5q80 0 128 -46t48 -127q0 -42 -3 -72h-303q1 -64 44.5 -102t113.5 -38q85 0 134 49zM212 560q0 -21 -13.5 -35t-37.5 -14
t-37 14t-13 35t13 35t37 14t37.5 -14t13.5 -35zM383 560q0 -21 -13.5 -35t-37.5 -14t-37 14t-13 35t13 35t37 14t37.5 -14t13.5 -35z" />
    <glyph glyph-name="igrave" unicode="&#xec;" horiz-adv-x="243" 
d="M163 0h-83v445h83v-445zM167 511l-62 -11l-141 170h115z" />
    <glyph glyph-name="iacute" unicode="&#xed;" horiz-adv-x="243" 
d="M163 0h-83v445h83v-445zM138 500l-62 11l88 159h115z" />
    <glyph glyph-name="icircumflex" unicode="&#xee;" horiz-adv-x="243" 
d="M243 512l-57 -12l-68 109l-64 -109l-57 12l76 158h94zM163 0h-83v445h83v-445z" />
    <glyph glyph-name="idieresis" unicode="&#xef;" horiz-adv-x="243" 
d="M99 560q0 -21 -13.5 -35t-37.5 -14t-37 14t-13 35t13 35t37 14t37.5 -14t13.5 -35zM245 560q0 -21 -13.5 -35t-37.5 -14t-37 14t-13 35t13 35t37 14t37.5 -14t13.5 -35zM163 0h-83v445h83v-445z" />
    <glyph glyph-name="eth" unicode="&#xf0;" horiz-adv-x="482" 
d="M362 678l-74 -46q161 -157 161 -364q0 -122 -60.5 -200t-153.5 -78q-92 0 -147 58.5t-55 162.5q0 110 59 177t152 67q50 0 82 -17q-37 79 -108 150l-93 -57l-35 44l87 53q-21 19 -62 52l62 42q28 -19 68 -51l82 51zM352 358q-29 21 -88 21q-67 0 -105 -41.5t-38 -126.5
q0 -142 121 -142q54 0 86.5 47.5t32.5 151.5q0 56 -9 90z" />
    <glyph glyph-name="ntilde" unicode="&#xf1;" horiz-adv-x="527" 
d="M452 0h-83v318q0 59 -74 59q-32 0 -70 -14t-62 -32v-331h-83v445h73l9 -41q70 51 157 51q133 0 133 -135v-320zM419 624q-36 -60 -57 -80t-46 -20q-24 0 -73 24l-35 17l-61 -64l-36 28q36 60 57 80t46 20q24 0 73 -24l35 -17l61 64z" />
    <glyph glyph-name="ograve" unicode="&#xf2;" horiz-adv-x="527" 
d="M494 224q0 -100 -67.5 -167t-164.5 -67q-100 0 -164.5 64.5t-64.5 166.5q0 100 67.5 167t164.5 67q100 0 164.5 -64.5t64.5 -166.5zM262 69q62 0 103 43t41 112q0 70 -39.5 111t-101.5 41t-103 -43t-41 -112q0 -70 39.5 -111t101.5 -41zM318 511l-62 -11l-141 170h115z
" />
    <glyph glyph-name="oacute" unicode="&#xf3;" horiz-adv-x="527" 
d="M494 224q0 -100 -67.5 -167t-164.5 -67q-100 0 -164.5 64.5t-64.5 166.5q0 100 67.5 167t164.5 67q100 0 164.5 -64.5t64.5 -166.5zM262 69q62 0 103 43t41 112q0 70 -39.5 111t-101.5 41t-103 -43t-41 -112q0 -70 39.5 -111t101.5 -41zM277 500l-62 11l88 159h115z" />
    <glyph glyph-name="ocircumflex" unicode="&#xf4;" horiz-adv-x="527" 
d="M494 224q0 -100 -67.5 -167t-164.5 -67q-100 0 -164.5 64.5t-64.5 166.5q0 100 67.5 167t164.5 67q100 0 164.5 -64.5t64.5 -166.5zM262 69q62 0 103 43t41 112q0 70 -39.5 111t-101.5 41t-103 -43t-41 -112q0 -70 39.5 -111t101.5 -41zM407 512l-64 -12l-82 107
l-81 -107l-61 12l96 158h96z" />
    <glyph glyph-name="otilde" unicode="&#xf5;" horiz-adv-x="527" 
d="M494 224q0 -100 -67.5 -167t-164.5 -67q-100 0 -164.5 64.5t-64.5 166.5q0 100 67.5 167t164.5 67q100 0 164.5 -64.5t64.5 -166.5zM262 69q62 0 103 43t41 112q0 70 -39.5 111t-101.5 41t-103 -43t-41 -112q0 -70 39.5 -111t101.5 -41zM417 624q-36 -60 -57 -80t-46 -20
q-24 0 -73 24l-35 17l-61 -64l-36 28q36 60 57 80t46 20q24 0 73 -24l35 -17l61 64z" />
    <glyph glyph-name="odieresis" unicode="&#xf6;" horiz-adv-x="527" 
d="M494 224q0 -100 -67.5 -167t-164.5 -67q-100 0 -164.5 64.5t-64.5 166.5q0 100 67.5 167t164.5 67q100 0 164.5 -64.5t64.5 -166.5zM262 69q62 0 103 43t41 112q0 70 -39.5 111t-101.5 41t-103 -43t-41 -112q0 -70 39.5 -111t101.5 -41zM228 560q0 -21 -13.5 -35
t-37.5 -14t-37 14t-13 35t13 35t37 14t37.5 -14t13.5 -35zM399 560q0 -21 -13.5 -35t-37.5 -14t-37 14t-13 35t13 35t37 14t37.5 -14t13.5 -35z" />
    <glyph glyph-name="divide" unicode="&#xf7;" 
d="M422 193h-345v61h345v-61zM308 48q0 -28 -16.5 -43t-42.5 -15t-42.5 15t-16.5 43q0 29 16 44t43 15t43 -15t16 -44zM308 396q0 -28 -16.5 -43t-42.5 -15t-42.5 15t-16.5 43q0 29 16 44t43 15t43 -15t16 -44z" />
    <glyph glyph-name="oslash" unicode="&#xf8;" horiz-adv-x="527" 
d="M494 224q0 -100 -67.5 -167t-164.5 -67q-58 0 -108 24l-49 -70h-73l72 103q-71 65 -71 174q0 100 67.5 167t164.5 67q57 0 108 -24l49 70h73l-73 -104q72 -66 72 -173zM262 69q62 0 103 43t41 112q0 60 -33 103l-172 -246q27 -12 61 -12zM121 221q0 -63 32 -103l172 245
q-29 13 -60 13q-62 0 -103 -43t-41 -112z" />
    <glyph glyph-name="ugrave" unicode="&#xf9;" horiz-adv-x="520" 
d="M75 445h83v-318q0 -59 74 -59q28 0 65 14t60 32v331h83v-445h-73l-9 42q-71 -52 -150 -52q-133 0 -133 135v320zM305 511l-62 -11l-141 170h115z" />
    <glyph glyph-name="uacute" unicode="&#xfa;" horiz-adv-x="520" 
d="M75 445h83v-318q0 -59 74 -59q28 0 65 14t60 32v331h83v-445h-73l-9 42q-71 -52 -150 -52q-133 0 -133 135v320zM273 500l-62 11l88 159h115z" />
    <glyph glyph-name="ucircumflex" unicode="&#xfb;" horiz-adv-x="520" 
d="M75 445h83v-318q0 -59 74 -59q28 0 65 14t60 32v331h83v-445h-73l-9 42q-71 -52 -150 -52q-133 0 -133 135v320zM401 512l-64 -12l-82 107l-81 -107l-61 12l96 158h96z" />
    <glyph glyph-name="udieresis" unicode="&#xfc;" horiz-adv-x="520" 
d="M75 445h83v-318q0 -59 74 -59q28 0 65 14t60 32v331h83v-445h-73l-9 42q-71 -52 -150 -52q-133 0 -133 135v320zM223 560q0 -21 -13.5 -35t-37.5 -14t-37 14t-13 35t13 35t37 14t37.5 -14t13.5 -35zM394 560q0 -21 -13.5 -35t-37.5 -14t-37 14t-13 35t13 35t37 14
t37.5 -14t13.5 -35z" />
    <glyph glyph-name="yacute" unicode="&#xfd;" horiz-adv-x="477" 
d="M458 445l-176 -445q-67 -170 -122 -250l-76 34q55 77 115 216l-182 440l89 10l121 -303l15 -49l14 49l112 298h90zM260 500l-62 11l88 159h115z" />
    <glyph glyph-name="thorn" unicode="&#xfe;" horiz-adv-x="524" 
d="M491 231q0 -109 -66.5 -175t-170.5 -66q-48 0 -91 15v-245h-83v942l83 20v-278q46 11 100 11q107 0 167.5 -58.5t60.5 -165.5zM163 361v-272q33 -20 90 -20q68 0 109 40.5t41 121.5q0 73 -40 109t-110 36q-53 0 -90 -15z" />
    <glyph glyph-name="ydieresis" unicode="&#xff;" horiz-adv-x="477" 
d="M458 445l-176 -445q-67 -170 -122 -250l-76 34q55 77 115 216l-182 440l89 10l121 -303l15 -49l14 49l112 298h90zM196 560q0 -21 -13.5 -35t-37.5 -14t-37 14t-13 35t13 35t37 14t37.5 -14t13.5 -35zM367 560q0 -21 -13.5 -35t-37.5 -14t-37 14t-13 35t13 35t37 14
t37.5 -14t13.5 -35z" />
    <glyph glyph-name="Amacron" unicode="&#x100;" horiz-adv-x="635" 
d="M514 0l-70 187h-256l-73 -187h-96l253 637h100l244 -637h-102zM303 481l-82 -210h192l-79 210l-15 57zM440 703h-232v67h232v-67z" />
    <glyph glyph-name="amacron" unicode="&#x101;" horiz-adv-x="435" 
d="M276 82v113q-80 -12 -113 -31t-33 -53q0 -27 16.5 -39t53.5 -12q51 0 76 22zM290 26q-55 -36 -126 -36q-52 0 -86.5 28.5t-34.5 79.5q0 67 57 106.5t176 55.5v64q0 26 -17 37q-22 15 -68 15q-40 0 -76 -14t-54 -36v82q45 47 141 47q76 0 116.5 -35.5t40.5 -104.5
q0 -7 -2.5 -117t-2.5 -122q18 -12 43 -12q7 0 10 1l-8 -72q-11 -3 -23 -3q-56 0 -86 36zM321 533h-232v69h232v-69z" />
    <glyph glyph-name="Abreve" unicode="&#x102;" horiz-adv-x="635" 
d="M514 0l-70 187h-256l-73 -187h-96l253 637h100l244 -637h-102zM303 481l-82 -210h192l-79 210l-15 57zM395 798l56 -12q-9 -52 -43 -78t-84 -26t-84 26t-43 78l58 12q13 -54 70 -54q31 0 46.5 13t23.5 41z" />
    <glyph glyph-name="abreve" unicode="&#x103;" horiz-adv-x="435" 
d="M276 82v113q-80 -12 -113 -31t-33 -53q0 -27 16.5 -39t53.5 -12q51 0 76 22zM290 26q-55 -36 -126 -36q-52 0 -86.5 28.5t-34.5 79.5q0 67 57 106.5t176 55.5v64q0 26 -17 37q-22 15 -68 15q-40 0 -76 -14t-54 -36v82q45 47 141 47q76 0 116.5 -35.5t40.5 -104.5
q0 -7 -2.5 -117t-2.5 -122q18 -12 43 -12q7 0 10 1l-8 -72q-11 -3 -23 -3q-56 0 -86 36zM287 672l61 -12q-2 -76 -43 -118t-101 -42t-101.5 42t-42.5 118l63 12q6 -53 25 -78t57 -25q73 0 82 103z" />
    <glyph glyph-name="Aogonek" unicode="&#x104;" horiz-adv-x="635" 
d="M514 0l-70 187h-256l-73 -187h-96l253 637h100l244 -637q-72 -71 -72 -125q0 -39 44 -39q27 0 49 20v-55q-28 -23 -67 -23q-46 0 -71.5 22.5t-25.5 60.5q0 66 69 139h-28zM303 481l-82 -210h192l-79 210l-15 57z" />
    <glyph glyph-name="aogonek" unicode="&#x105;" horiz-adv-x="435" 
d="M391 -144v-55q-28 -23 -67 -23q-46 0 -71.5 22.5t-25.5 60.5q0 72 80 149q-9 5 -17 16q-55 -36 -126 -36q-52 0 -86.5 28.5t-34.5 79.5q0 67 57 106.5t176 55.5v64q0 26 -17 37q-22 15 -68 15q-40 0 -76 -14t-54 -36v82q45 47 141 47q76 0 116.5 -35.5t40.5 -104.5
q0 -7 -2.5 -117t-2.5 -122q18 -12 43 -12q7 0 10 1l-8 -72q-11 -3 -23 -3q-10 0 -15 1q-63 -67 -63 -116q0 -39 44 -39q27 0 49 20zM276 82v113q-80 -12 -113 -31t-33 -53q0 -27 16.5 -39t53.5 -12q51 0 76 22z" />
    <glyph glyph-name="Cacute" unicode="&#x106;" horiz-adv-x="636" 
d="M586 152v-101q-31 -28 -84 -44.5t-107 -16.5q-159 0 -257 88t-98 231q0 148 98 243t248 95q129 0 196 -54v-102q-29 29 -84 48.5t-112 19.5q-108 0 -176.5 -62.5t-68.5 -187.5q0 -105 71 -168t183 -63q56 0 110.5 21t80.5 53zM410 682l-63 14l65 98h115z" />
    <glyph glyph-name="cacute" unicode="&#x107;" horiz-adv-x="447" 
d="M417 357l-79 -42q-22 63 -92 63q-62 0 -94 -41t-32 -117q0 -72 41.5 -111t109.5 -39q41 0 78 16.5t56 38.5v-85q-53 -50 -150 -50q-99 0 -160.5 63.5t-61.5 166.5q0 110 62 172.5t158 62.5q69 0 110.5 -26.5t53.5 -71.5zM259 500l-62 11l88 159h115z" />
    <glyph glyph-name="Ccircumflex" unicode="&#x108;" horiz-adv-x="636" 
d="M586 152v-101q-31 -28 -84 -44.5t-107 -16.5q-159 0 -257 88t-98 231q0 148 98 243t248 95q129 0 196 -54v-102q-29 29 -84 48.5t-112 19.5q-108 0 -176.5 -62.5t-68.5 -187.5q0 -105 71 -168t183 -63q56 0 110.5 21t80.5 53zM517 690l-66 -8l-74 60l-73 -60l-63 8
l87 104h102z" />
    <glyph glyph-name="ccircumflex" unicode="&#x109;" horiz-adv-x="447" 
d="M417 357l-79 -42q-22 63 -92 63q-62 0 -94 -41t-32 -117q0 -72 41.5 -111t109.5 -39q41 0 78 16.5t56 38.5v-85q-53 -50 -150 -50q-99 0 -160.5 63.5t-61.5 166.5q0 110 62 172.5t158 62.5q69 0 110.5 -26.5t53.5 -71.5zM394 512l-64 -12l-82 107l-81 -107l-61 12l96 158
h96z" />
    <glyph glyph-name="Cdotaccent" unicode="&#x10a;" horiz-adv-x="636" 
d="M586 152v-101q-31 -28 -84 -44.5t-107 -16.5q-159 0 -257 88t-98 231q0 148 98 243t248 95q129 0 196 -54v-102q-29 29 -84 48.5t-112 19.5q-108 0 -176.5 -62.5t-68.5 -187.5q0 -105 71 -168t183 -63q56 0 110.5 21t80.5 53zM437 742q0 -25 -15.5 -41.5t-42.5 -16.5
q-26 0 -41.5 17t-15.5 41q0 26 15.5 42.5t42.5 16.5q26 0 41.5 -17t15.5 -42z" />
    <glyph glyph-name="cdotaccent" unicode="&#x10b;" horiz-adv-x="447" 
d="M417 357l-79 -42q-22 63 -92 63q-62 0 -94 -41t-32 -117q0 -72 41.5 -111t109.5 -39q41 0 78 16.5t56 38.5v-85q-53 -50 -150 -50q-99 0 -160.5 63.5t-61.5 166.5q0 110 62 172.5t158 62.5q69 0 110.5 -26.5t53.5 -71.5zM308 569q0 -25 -15.5 -41.5t-42.5 -16.5
q-26 0 -41.5 17t-15.5 41q0 26 15.5 42.5t42.5 16.5q26 0 41.5 -17t15.5 -42z" />
    <glyph glyph-name="Ccaron" unicode="&#x10c;" horiz-adv-x="636" 
d="M586 152v-101q-31 -28 -84 -44.5t-107 -16.5q-159 0 -257 88t-98 231q0 148 98 243t248 95q129 0 196 -54v-102q-29 29 -84 48.5t-112 19.5q-108 0 -176.5 -62.5t-68.5 -187.5q0 -105 71 -168t183 -63q56 0 110.5 21t80.5 53zM241 789l66 8l74 -60l73 60l63 -8l-87 -104
h-102z" />
    <glyph glyph-name="ccaron" unicode="&#x10d;" horiz-adv-x="447" 
d="M417 357l-79 -42q-22 63 -92 63q-62 0 -94 -41t-32 -117q0 -72 41.5 -111t109.5 -39q41 0 78 16.5t56 38.5v-85q-53 -50 -150 -50q-99 0 -160.5 63.5t-61.5 166.5q0 110 62 172.5t158 62.5q69 0 110.5 -26.5t53.5 -71.5zM106 662l64 12l82 -107l81 107l61 -12l-96 -158
h-96z" />
    <glyph glyph-name="Dcaron" unicode="&#x10e;" horiz-adv-x="683" 
d="M643 328q0 -148 -99 -238t-240 -90h-214v637h191q166 0 264 -77.5t98 -231.5zM185 552v-467h119q107 0 172.5 61.5t65.5 179.5q0 116 -69 171t-192 55h-96zM182 789l66 8l74 -60l73 60l63 -8l-87 -104h-102z" />
    <glyph glyph-name="dcaron" unicode="&#x10f;" horiz-adv-x="600" 
d="M361 85v271q-31 20 -90 20q-68 0 -109 -40.5t-41 -121.5q0 -72 39.5 -108.5t110.5 -36.5q53 0 90 16zM444 722v-686q-79 -46 -183 -46q-107 0 -167.5 59t-60.5 165q0 107 66.5 174t164.5 67q57 0 97 -19v266zM528 504l-57 30q40 49 56 86.5t19 82.5h78q0 -108 -96 -199z
" />
    <glyph glyph-name="Dcroat" unicode="&#x110;" horiz-adv-x="683" 
d="M643 328q0 -148 -99 -238t-240 -90h-214v281h-58v81h58v275h191q166 0 264 -77.5t98 -231.5zM299 281h-114v-196h119q107 0 172.5 61.5t65.5 179.5q0 116 -69 171t-192 55h-96v-190h114v-81z" />
    <glyph glyph-name="dcroat" unicode="&#x111;" horiz-adv-x="524" 
d="M494 556h-50v-520q-79 -46 -183 -46q-107 0 -167.5 59t-60.5 165q0 107 66.5 174t164.5 67q57 0 97 -19v120h-113v68h113v78l83 20v-98h50v-68zM361 85v271q-31 20 -90 20q-68 0 -109 -40.5t-41 -121.5q0 -72 39.5 -108.5t110.5 -36.5q53 0 90 16z" />
    <glyph glyph-name="Emacron" unicode="&#x112;" horiz-adv-x="529" 
d="M489 0h-399v637h388v-87h-293v-185h263v-87h-263v-191h304v-87zM402 703h-232v67h232v-67z" />
    <glyph glyph-name="emacron" unicode="&#x113;" horiz-adv-x="467" 
d="M125 280h213v14q0 88 -98 88q-48 0 -78.5 -30t-36.5 -72zM410 119v-85q-53 -44 -147 -44q-103 0 -166.5 63.5t-63.5 166.5q0 108 62 171.5t153 63.5q80 0 128 -46t48 -127q0 -42 -3 -72h-303q1 -64 44.5 -102t113.5 -38q85 0 134 49zM363 533h-232v69h232v-69z" />
    <glyph glyph-name="Ebreve" unicode="&#x114;" horiz-adv-x="529" 
d="M489 0h-399v637h388v-87h-293v-185h263v-87h-263v-191h304v-87zM357 798l56 -12q-9 -52 -43 -78t-84 -26t-84 26t-43 78l58 12q13 -54 70 -54q31 0 46.5 13t23.5 41z" />
    <glyph glyph-name="ebreve" unicode="&#x115;" horiz-adv-x="467" 
d="M125 280h213v14q0 88 -98 88q-48 0 -78.5 -30t-36.5 -72zM410 119v-85q-53 -44 -147 -44q-103 0 -166.5 63.5t-63.5 166.5q0 108 62 171.5t153 63.5q80 0 128 -46t48 -127q0 -42 -3 -72h-303q1 -64 44.5 -102t113.5 -38q85 0 134 49zM330 672l61 -12q-2 -76 -43 -118
t-101 -42t-101.5 42t-42.5 118l63 12q6 -53 25 -78t57 -25q73 0 82 103z" />
    <glyph glyph-name="Edotaccent" unicode="&#x116;" horiz-adv-x="529" 
d="M489 0h-399v637h388v-87h-293v-185h263v-87h-263v-191h304v-87zM344 742q0 -25 -15.5 -41.5t-42.5 -16.5q-26 0 -41.5 17t-15.5 41q0 26 15.5 42.5t42.5 16.5q26 0 41.5 -17t15.5 -42z" />
    <glyph glyph-name="edotaccent" unicode="&#x117;" horiz-adv-x="467" 
d="M125 280h213v14q0 88 -98 88q-48 0 -78.5 -30t-36.5 -72zM410 119v-85q-53 -44 -147 -44q-103 0 -166.5 63.5t-63.5 166.5q0 108 62 171.5t153 63.5q80 0 128 -46t48 -127q0 -42 -3 -72h-303q1 -64 44.5 -102t113.5 -38q85 0 134 49zM305 569q0 -25 -15.5 -41.5
t-42.5 -16.5q-26 0 -41.5 17t-15.5 41q0 26 15.5 42.5t42.5 16.5q26 0 41.5 -17t15.5 -42z" />
    <glyph glyph-name="Eogonek" unicode="&#x118;" horiz-adv-x="529" 
d="M475 -144v-55q-28 -23 -67 -23q-45 0 -71 22.5t-26 60.5q0 66 69 139h-290v637h388v-87h-293v-185h263v-87h-263v-191h304v-87h-36q-71 -72 -71 -125q0 -39 44 -39q27 0 49 20z" />
    <glyph glyph-name="eogonek" unicode="&#x119;" horiz-adv-x="467" 
d="M395 -144v-55q-28 -23 -67 -23q-45 0 -71 22.5t-26 60.5q0 61 61 130q-9 -1 -29 -1q-103 0 -166.5 63.5t-63.5 166.5q0 108 62 171.5t153 63.5q80 0 128 -46t48 -127q0 -42 -3 -72h-303q1 -64 44.5 -102t113.5 -38q85 0 134 49v-85q-108 -96 -108 -159q0 -39 45 -39
q26 0 48 20zM125 280h213v14q0 88 -98 88q-48 0 -78.5 -30t-36.5 -72z" />
    <glyph glyph-name="Ecaron" unicode="&#x11a;" horiz-adv-x="529" 
d="M489 0h-399v637h388v-87h-293v-185h263v-87h-263v-191h304v-87zM149 789l66 8l74 -60l73 60l63 -8l-87 -104h-102z" />
    <glyph glyph-name="ecaron" unicode="&#x11b;" horiz-adv-x="467" 
d="M125 280h213v14q0 88 -98 88q-48 0 -78.5 -30t-36.5 -72zM410 119v-85q-53 -44 -147 -44q-103 0 -166.5 63.5t-63.5 166.5q0 108 62 171.5t153 63.5q80 0 128 -46t48 -127q0 -42 -3 -72h-303q1 -64 44.5 -102t113.5 -38q85 0 134 49zM99 662l64 12l82 -107l81 107l61 -12
l-96 -158h-96z" />
    <glyph glyph-name="Gcircumflex" unicode="&#x11c;" horiz-adv-x="682" 
d="M612 283v-239q-86 -54 -217 -54q-159 0 -257 88t-98 232q0 148 101 242.5t254 94.5q138 0 205 -54v-102q-29 29 -85.5 48.5t-119.5 19.5q-111 0 -182.5 -62.5t-71.5 -186.5q0 -106 71 -169t183 -63q78 0 122 17v188h95zM526 690l-66 -8l-74 60l-73 -60l-63 8l87 104h102z
" />
    <glyph glyph-name="gcircumflex" unicode="&#x11d;" horiz-adv-x="471" 
d="M376 538l-64 -10l-82 84l-81 -84l-61 10l96 132h96zM178 -34q-75 -50 -75 -90q0 -51 116 -51q75 0 118 28t43 67q0 46 -50 46h-152zM231 189q40 0 66 27t26 72q0 47 -26.5 72.5t-69.5 25.5q-40 0 -66 -27t-26 -72q0 -47 26.5 -72.5t69.5 -25.5zM448 502q4 -10 4 -25
q0 -72 -87 -81q39 -40 39 -109q0 -73 -50.5 -120t-123.5 -47q-11 0 -22 1l-44 -35q-18 -14 -18 -25q0 -18 35 -18h162q120 0 120 -110q0 -76 -74 -129.5t-183 -53.5q-89 0 -139.5 28.5t-50.5 77.5q0 36 23 65t80 61q-58 16 -58 65q0 20 10 35l76 55q-93 44 -93 150
q0 72 50 120t124 48q69 0 109 -31l34 78h77z" />
    <glyph glyph-name="Gbreve" unicode="&#x11e;" horiz-adv-x="682" 
d="M612 283v-239q-86 -54 -217 -54q-159 0 -257 88t-98 232q0 148 101 242.5t254 94.5q138 0 205 -54v-102q-29 29 -85.5 48.5t-119.5 19.5q-111 0 -182.5 -62.5t-71.5 -186.5q0 -106 71 -169t183 -63q78 0 122 17v188h95zM458 798l56 -12q-9 -52 -43 -78t-84 -26t-84 26
t-43 78l58 12q7 -28 23 -41t47 -13q30 0 46 13t24 41z" />
    <glyph glyph-name="gbreve" unicode="&#x11f;" horiz-adv-x="471" 
d="M178 -34q-75 -50 -75 -90q0 -51 116 -51q75 0 118 28t43 67q0 46 -50 46h-152zM231 189q40 0 66 27t26 72q0 47 -26.5 72.5t-69.5 25.5q-40 0 -66 -27t-26 -72q0 -47 26.5 -72.5t69.5 -25.5zM448 502q4 -10 4 -25q0 -72 -87 -81q39 -40 39 -109q0 -73 -50.5 -120
t-123.5 -47q-11 0 -22 1l-44 -35q-18 -14 -18 -25q0 -18 35 -18h162q120 0 120 -110q0 -76 -74 -129.5t-183 -53.5q-89 0 -139.5 28.5t-50.5 77.5q0 36 23 65t80 61q-58 16 -58 65q0 20 10 35l76 55q-93 44 -93 150q0 72 50 120t124 48q69 0 109 -31l34 78h77zM315 672
l61 -12q-2 -76 -43 -118t-101 -42t-101.5 42t-42.5 118l63 12q6 -53 25 -78t57 -25q73 0 82 103z" />
    <glyph glyph-name="Gdotaccent" unicode="&#x120;" horiz-adv-x="682" 
d="M612 283v-239q-86 -54 -217 -54q-159 0 -257 88t-98 232q0 148 101 242.5t254 94.5q138 0 205 -54v-102q-29 29 -85.5 48.5t-119.5 19.5q-111 0 -182.5 -62.5t-71.5 -186.5q0 -106 71 -169t183 -63q78 0 122 17v188h95zM445 742q0 -25 -15.5 -41.5t-42.5 -16.5
q-26 0 -41.5 17t-15.5 41q0 26 15.5 42.5t42.5 16.5q26 0 41.5 -17t15.5 -42z" />
    <glyph glyph-name="gdotaccent" unicode="&#x121;" horiz-adv-x="471" 
d="M178 -34q-75 -50 -75 -90q0 -51 116 -51q75 0 118 28t43 67q0 46 -50 46h-152zM231 189q40 0 66 27t26 72q0 47 -26.5 72.5t-69.5 25.5q-40 0 -66 -27t-26 -72q0 -47 26.5 -72.5t69.5 -25.5zM448 502q4 -10 4 -25q0 -72 -87 -81q39 -40 39 -109q0 -73 -50.5 -120
t-123.5 -47q-11 0 -22 1l-44 -35q-18 -14 -18 -25q0 -18 35 -18h162q120 0 120 -110q0 -76 -74 -129.5t-183 -53.5q-89 0 -139.5 28.5t-50.5 77.5q0 36 23 65t80 61q-58 16 -58 65q0 20 10 35l76 55q-93 44 -93 150q0 72 50 120t124 48q69 0 109 -31l34 78h77zM290 569
q0 -25 -15.5 -41.5t-42.5 -16.5q-26 0 -41.5 17t-15.5 41q0 26 15.5 42.5t42.5 16.5q26 0 41.5 -17t15.5 -42z" />
    <glyph glyph-name="Gcommaaccent" unicode="&#x122;" horiz-adv-x="682" 
d="M612 283v-239q-86 -54 -217 -54q-159 0 -257 88t-98 232q0 148 101 242.5t254 94.5q138 0 205 -54v-102q-29 29 -85.5 48.5t-119.5 19.5q-111 0 -182.5 -62.5t-71.5 -186.5q0 -106 71 -169t183 -63q78 0 122 17v188h95zM343 -240l-57 30q40 49 56 86.5t19 82.5h78
q0 -108 -96 -199z" />
    <glyph glyph-name="gcommaaccent" unicode="&#x123;" horiz-adv-x="471" 
d="M178 -34q-75 -50 -75 -90q0 -51 116 -51q75 0 118 28t43 67q0 46 -50 46h-152zM231 189q40 0 66 27t26 72q0 47 -26.5 72.5t-69.5 25.5q-40 0 -66 -27t-26 -72q0 -47 26.5 -72.5t69.5 -25.5zM448 502q4 -10 4 -25q0 -72 -87 -81q39 -40 39 -109q0 -73 -50.5 -120
t-123.5 -47q-11 0 -22 1l-44 -35q-18 -14 -18 -25q0 -18 35 -18h162q120 0 120 -110q0 -76 -74 -129.5t-183 -53.5q-89 0 -139.5 28.5t-50.5 77.5q0 36 23 65t80 61q-58 16 -58 65q0 20 10 35l76 55q-93 44 -93 150q0 72 50 120t124 48q69 0 109 -31l34 78h77zM276 709
l57 -30q-40 -49 -56 -86.5t-19 -82.5h-78q0 108 96 199z" />
    <glyph glyph-name="Hcircumflex" unicode="&#x124;" horiz-adv-x="686" 
d="M596 0h-95v276h-316v-276h-95v637h95v-272h316v272h95v-637zM482 690l-66 -8l-74 60l-73 -60l-63 8l87 104h102z" />
    <glyph glyph-name="hcircumflex" unicode="&#x125;" horiz-adv-x="536" 
d="M461 0h-83v318q0 59 -74 59q-38 0 -77.5 -13.5t-63.5 -32.5v-331h-83v702l83 20v-318q73 51 165 51q133 0 133 -135v-320zM308 743l-66 -8l-74 60l-73 -60l-63 8l87 104h102z" />
    <glyph glyph-name="Hbar" unicode="&#x126;" horiz-adv-x="686" 
d="M596 0h-95v277h-316v-277h-95v434h-60v78h60v125h95v-125h316v125h95v-125h60v-78h-60v-434zM185 361h316v73h-316v-73z" />
    <glyph glyph-name="hbar" unicode="&#x127;" horiz-adv-x="536" 
d="M276 556h-113v-152q73 51 165 51q133 0 133 -135v-320h-83v318q0 59 -74 59q-38 0 -77.5 -13.5t-63.5 -32.5v-331h-83v556h-50v68h50v78l83 20v-98h113v-68z" />
    <glyph glyph-name="Itilde" unicode="&#x128;" horiz-adv-x="275" 
d="M185 0h-95v637h95v-637zM244 795l35 -27q-28 -46 -48.5 -62.5t-44.5 -16.5q-28 0 -71 19l-38 17l-46 -46l-35 27q28 46 48.5 62.5t44.5 16.5q28 0 71 -19l38 -17z" />
    <glyph glyph-name="itilde" unicode="&#x129;" horiz-adv-x="243" 
d="M188 591l55 62l37 -31q-33 -59 -52.5 -78.5t-43.5 -19.5q-23 0 -66 22l-30 16l-55 -62l-37 31q33 59 52.5 78.5t43.5 19.5q23 0 66 -22zM163 0h-83v445h83v-445z" />
    <glyph glyph-name="Imacron" unicode="&#x12a;" horiz-adv-x="275" 
d="M185 0h-95v637h95v-637zM253 703h-232v67h232v-67z" />
    <glyph glyph-name="imacron" unicode="&#x12b;" horiz-adv-x="243" 
d="M226 533h-208v68h208v-68zM163 0h-83v445h83v-445z" />
    <glyph glyph-name="Ibreve" unicode="&#x12c;" horiz-adv-x="275" 
d="M185 0h-95v637h95v-637zM208 798l56 -12q-9 -52 -43 -78t-84 -26t-84 26t-43 78l58 12q7 -28 23 -41t47 -13q30 0 46 13t24 41z" />
    <glyph glyph-name="ibreve" unicode="&#x12d;" horiz-adv-x="243" 
d="M185 672l58 -12q0 -76 -35.5 -118t-87.5 -42q-51 0 -86.5 41.5t-35.5 118.5l59 12q4 -52 18.5 -77.5t45.5 -25.5q58 0 64 103zM163 0h-83v445h83v-445z" />
    <glyph glyph-name="Iogonek" unicode="&#x12e;" horiz-adv-x="275" 
d="M185 0q-64 -80 -64 -125q0 -39 44 -39q25 0 49 20v-55q-28 -23 -67 -23q-46 0 -71.5 22.5t-25.5 60.5q0 57 64 139h-24v637h95v-637z" />
    <glyph glyph-name="iogonek" unicode="&#x12f;" horiz-adv-x="243" 
d="M163 0q-64 -80 -64 -125q0 -39 44 -39q25 0 49 20v-55q-28 -23 -67 -23q-46 0 -71.5 22.5t-25.5 60.5q0 57 64 139h-12v445h83v-445zM179 605q0 -25 -15.5 -41.5t-42.5 -16.5q-26 0 -41.5 16.5t-15.5 41.5q0 26 15.5 42.5t42.5 16.5q26 0 41.5 -16.5t15.5 -42.5z" />
    <glyph glyph-name="Idotaccent" unicode="&#x130;" horiz-adv-x="275" 
d="M185 0h-95v637h95v-637zM195 742q0 -25 -15.5 -41.5t-42.5 -16.5q-26 0 -41.5 17t-15.5 41q0 26 15.5 42.5t42.5 16.5q26 0 41.5 -17t15.5 -42z" />
    <glyph glyph-name="dotlessi" unicode="&#x131;" horiz-adv-x="243" 
d="M163 0h-83v445h83v-445z" />
    <glyph glyph-name="IJ" unicode="&#x132;" horiz-adv-x="554" 
d="M185 0h-95v637h95v-637zM460 637v-533q0 -85 -38 -172l-60 -137l-84 37l64 142q23 51 23 106v557h95z" />
    <glyph glyph-name="ij" unicode="&#x133;" horiz-adv-x="489" 
d="M179 605q0 -25 -15.5 -41.5t-42.5 -16.5q-26 0 -41.5 16.5t-15.5 41.5q0 26 15.5 42.5t42.5 16.5q26 0 41.5 -16.5t15.5 -42.5zM163 0h-83v445h83v-445zM240 -217l63 146q23 54 23 106v410h83v-410q0 -74 -25 -133l-67 -152zM425 605q0 -25 -15.5 -41.5t-42.5 -16.5
q-26 0 -41.5 16.5t-15.5 41.5q0 26 15.5 42.5t42.5 16.5q26 0 41.5 -16.5t15.5 -42.5z" />
    <glyph glyph-name="Jcircumflex" unicode="&#x134;" horiz-adv-x="279" 
d="M185 637v-533q0 -85 -38 -172l-60 -137l-84 37l64 142q23 51 23 106v557h95zM276 690l-66 -8l-74 60l-73 -60l-63 8l87 104h102z" />
    <glyph glyph-name="jcircumflex" unicode="&#x135;" horiz-adv-x="246" 
d="M246 512l-57 -12l-68 109l-64 -109l-57 12l76 158h94zM-3 -217l63 146q23 54 23 106v410h83v-410q0 -74 -25 -133l-67 -152z" />
    <glyph glyph-name="Kcommaaccent" unicode="&#x136;" horiz-adv-x="616" 
d="M595 0h-123l-243 279h-44v-279h-95v637h95v-275h44l247 275h115l-284 -308zM257 -240l-57 30q40 49 56 86.5t19 82.5h78q0 -108 -96 -199z" />
    <glyph glyph-name="kcommaaccent" unicode="&#x137;" horiz-adv-x="480" 
d="M470 0h-108l-176 207h-23v-207h-83v702l83 20v-459h23l180 187l98 -10l-200 -198zM201 -240l-57 30q40 49 56 86.5t19 82.5h78q0 -108 -96 -199z" />
    <glyph glyph-name="kgreenlandic" unicode="&#x138;" horiz-adv-x="480" 
d="M470 0h-108l-176 207h-23v-207h-83v445h83v-182h23l175 182h108l-205 -203z" />
    <glyph glyph-name="Lacute" unicode="&#x139;" horiz-adv-x="506" 
d="M482 0h-392v637h95v-550h297v-87zM171 682l-63 14l65 98h115z" />
    <glyph glyph-name="lacute" unicode="&#x13a;" horiz-adv-x="243" 
d="M163 0h-83v702l83 20v-722zM145 736l-63 14l65 98h115z" />
    <glyph glyph-name="Lcommaaccent" unicode="&#x13b;" horiz-adv-x="506" 
d="M482 0h-392v637h95v-550h297v-87zM240 -240l-57 30q40 49 56 86.5t19 82.5h78q0 -108 -96 -199z" />
    <glyph glyph-name="lcommaaccent" unicode="&#x13c;" horiz-adv-x="243" 
d="M163 0h-83v702l83 20v-722zM64 -240l-57 30q40 49 56 86.5t19 82.5h78q0 -108 -96 -199z" />
    <glyph glyph-name="Lcaron" unicode="&#x13d;" horiz-adv-x="506" 
d="M482 0h-392v637h95v-550h297v-87zM395 429l-57 30q40 49 56 86.5t19 82.5h78q0 -108 -96 -199z" />
    <glyph glyph-name="lcaron" unicode="&#x13e;" horiz-adv-x="319" 
d="M163 0h-83v702l83 20v-722zM256 504l-57 30q40 49 56 86.5t19 82.5h78q0 -108 -96 -199z" />
    <glyph glyph-name="Ldot" unicode="&#x13f;" horiz-adv-x="506" 
d="M482 0h-392v637h95v-550h297v-87zM445 371q0 -25 -15.5 -41.5t-42.5 -16.5q-26 0 -41.5 17t-15.5 41q0 26 15.5 42.5t42.5 16.5q26 0 41.5 -17t15.5 -42z" />
    <glyph glyph-name="ldot" unicode="&#x140;" horiz-adv-x="333" 
d="M163 0h-83v702l83 20v-722zM343 371q0 -25 -15.5 -41.5t-42.5 -16.5q-26 0 -41.5 17t-15.5 41q0 26 15.5 42.5t42.5 16.5q26 0 41.5 -17t15.5 -42z" />
    <glyph glyph-name="Lslash" unicode="&#x141;" horiz-adv-x="506" 
d="M482 0h-392v238l-50 -25v86l50 25v313h95v-264l152 78v-86l-152 -78v-200h297v-87z" />
    <glyph glyph-name="lslash" unicode="&#x142;" horiz-adv-x="243" 
d="M163 0h-83v293l-57 -26v84l57 26v325l83 20v-306l57 26v-84l-57 -26v-332z" />
    <glyph glyph-name="Nacute" unicode="&#x143;" horiz-adv-x="694" 
d="M604 0h-90l-313 491l-22 46v-537h-89v637h121l282 -442l22 -46v488h89v-637zM376 682l-63 14l65 98h115z" />
    <glyph glyph-name="nacute" unicode="&#x144;" horiz-adv-x="527" 
d="M452 0h-83v318q0 59 -74 59q-32 0 -70 -14t-62 -32v-331h-83v445h73l9 -41q70 51 157 51q133 0 133 -135v-320zM290 500l-62 11l88 159h115z" />
    <glyph glyph-name="Ncommaaccent" unicode="&#x145;" horiz-adv-x="694" 
d="M604 0h-90l-313 491l-22 46v-537h-89v637h121l282 -442l22 -46v488h89v-637zM290 -240l-57 30q40 49 56 86.5t19 82.5h78q0 -108 -96 -199z" />
    <glyph glyph-name="ncommaaccent" unicode="&#x146;" horiz-adv-x="527" 
d="M452 0h-83v318q0 59 -74 59q-32 0 -70 -14t-62 -32v-331h-83v445h73l9 -41q70 51 157 51q133 0 133 -135v-320zM212 -240l-57 30q40 49 56 86.5t19 82.5h78q0 -108 -96 -199z" />
    <glyph glyph-name="Ncaron" unicode="&#x147;" horiz-adv-x="694" 
d="M604 0h-90l-313 491l-22 46v-537h-89v637h121l282 -442l22 -46v488h89v-637zM211 789l66 8l74 -60l73 60l63 -8l-87 -104h-102z" />
    <glyph glyph-name="ncaron" unicode="&#x148;" horiz-adv-x="527" 
d="M452 0h-83v318q0 59 -74 59q-32 0 -70 -14t-62 -32v-331h-83v445h73l9 -41q70 51 157 51q133 0 133 -135v-320zM124 662l64 12l82 -107l81 107l61 -12l-96 -158h-96z" />
    <glyph glyph-name="napostrophe" unicode="&#x149;" horiz-adv-x="527" 
d="M452 0h-83v318q0 59 -74 59q-32 0 -70 -14t-62 -32v-331h-83v445h73l9 -41q70 51 157 51q133 0 133 -135v-320zM45 504l-57 30q40 49 56 86.5t19 82.5h78q0 -108 -96 -199z" />
    <glyph glyph-name="Eng" unicode="&#x14a;" horiz-adv-x="694" 
d="M604 637v-533q0 -51 -7.5 -86t-30.5 -86l-39 -89l-81 32l36 85q18 44 18 64l-299 467l-22 46v-537h-89v637h121l282 -442l22 -46v488h89z" />
    <glyph glyph-name="eng" unicode="&#x14b;" horiz-adv-x="527" 
d="M386 -157l-72 35q33 63 44 96t11 78v266q0 59 -74 59q-32 0 -70 -14t-62 -32v-331h-83v445h76l7 -35h7q67 45 149 45q133 0 133 -135v-268q0 -56 -12 -94t-54 -115z" />
    <glyph glyph-name="Omacron" unicode="&#x14c;" horiz-adv-x="737" 
d="M366 -10q-139 0 -232.5 88t-93.5 234q0 149 97.5 242t233.5 93q139 0 232.5 -88t93.5 -234q0 -149 -97.5 -242t-233.5 -93zM366 77q101 0 165.5 68t64.5 180q0 106 -62 170.5t-163 64.5t-165.5 -68t-64.5 -180q0 -106 62 -170.5t163 -64.5zM484 703h-232v67h232v-67z" />
    <glyph glyph-name="omacron" unicode="&#x14d;" horiz-adv-x="527" 
d="M494 224q0 -100 -67.5 -167t-164.5 -67q-100 0 -164.5 64.5t-64.5 166.5q0 100 67.5 167t164.5 67q100 0 164.5 -64.5t64.5 -166.5zM262 69q62 0 103 43t41 112q0 70 -39.5 111t-101.5 41t-103 -43t-41 -112q0 -70 39.5 -111t101.5 -41zM378 533h-232v69h232v-69z" />
    <glyph glyph-name="Obreve" unicode="&#x14e;" horiz-adv-x="737" 
d="M366 -10q-139 0 -232.5 88t-93.5 234q0 149 97.5 242t233.5 93q139 0 232.5 -88t93.5 -234q0 -149 -97.5 -242t-233.5 -93zM366 77q101 0 165.5 68t64.5 180q0 106 -62 170.5t-163 64.5t-165.5 -68t-64.5 -180q0 -106 62 -170.5t163 -64.5zM439 798l56 -12
q-9 -52 -43 -78t-84 -26t-84 26t-43 78l58 12q13 -54 70 -54q31 0 46.5 13t23.5 41z" />
    <glyph glyph-name="obreve" unicode="&#x14f;" horiz-adv-x="527" 
d="M346 672l61 -12q-2 -76 -43 -118t-101 -42t-101.5 42t-42.5 118l63 12q6 -53 25 -78t57 -25q73 0 82 103zM494 224q0 -100 -67.5 -167t-164.5 -67q-100 0 -164.5 64.5t-64.5 166.5q0 100 67.5 167t164.5 67q100 0 164.5 -64.5t64.5 -166.5zM262 69q62 0 103 43t41 112
q0 70 -39.5 111t-101.5 41t-103 -43t-41 -112q0 -70 39.5 -111t101.5 -41z" />
    <glyph glyph-name="Ohungarumlaut" unicode="&#x150;" horiz-adv-x="737" 
d="M366 -10q-139 0 -232.5 88t-93.5 234q0 149 97.5 242t233.5 93q139 0 232.5 -88t93.5 -234q0 -149 -97.5 -242t-233.5 -93zM366 77q101 0 165.5 68t64.5 180q0 106 -62 170.5t-163 64.5t-165.5 -68t-64.5 -180q0 -106 62 -170.5t163 -64.5zM451 682l-56 14l63 98h106z
M316 682l-56 14l63 98h106z" />
    <glyph glyph-name="ohungarumlaut" unicode="&#x151;" horiz-adv-x="527" 
d="M347 500l-57 11l79 159h106zM213 500l-57 11l79 159h106zM494 224q0 -100 -67.5 -167t-164.5 -67q-100 0 -164.5 64.5t-64.5 166.5q0 100 67.5 167t164.5 67q100 0 164.5 -64.5t64.5 -166.5zM262 69q62 0 103 43t41 112q0 70 -39.5 111t-101.5 41t-103 -43t-41 -112
q0 -70 39.5 -111t101.5 -41z" />
    <glyph glyph-name="OE" unicode="&#x152;" horiz-adv-x="916" 
d="M865 637v-87h-293v-185h263v-87h-263v-191h304v-87h-399q-64 -10 -129 -10q-139 0 -223.5 85.5t-84.5 239.5q0 158 90 245t230 87q53 0 117 -10h388zM477 88v461q-53 12 -115 12q-103 0 -162 -61.5t-59 -184.5q0 -116 58.5 -177.5t154.5 -61.5q70 0 123 12z" />
    <glyph glyph-name="oe" unicode="&#x153;" horiz-adv-x="818" 
d="M250 69q60 0 96 38.5t36 115.5q0 73 -34.5 113t-94.5 40q-61 0 -96.5 -38t-35.5 -115q0 -73 35 -113.5t94 -40.5zM761 119v-85q-53 -44 -147 -44q-127 0 -189 91q-28 -43 -74 -67t-101 -24q-101 0 -159 62.5t-58 169.5q0 101 62 167t158 66q118 0 174 -88q63 88 172 88
q80 0 128 -46t48 -127q0 -41 -3 -71h-303q0 -64 44 -102.5t114 -38.5q85 0 134 49zM476 280h213v13q0 87 -98 87q-48 0 -78.5 -29t-36.5 -71z" />
    <glyph glyph-name="Racute" unicode="&#x154;" horiz-adv-x="566" 
d="M566 0h-116l-166 242h-100v-242h-94v637h185q106 0 163 -51.5t57 -137.5q0 -58 -31.5 -106.5t-89.5 -72.5zM184 321h85q62 0 95 33.5t33 87.5q0 114 -133 114h-80v-235zM282 682l-63 14l65 98h115z" />
    <glyph glyph-name="racute" unicode="&#x155;" horiz-adv-x="356" 
d="M330 441v-77q-18 8 -45 8q-68 0 -122 -47v-325h-83v445h73l10 -46q55 56 119 56q28 0 48 -14zM211 500l-62 11l88 159h115z" />
    <glyph glyph-name="Rcommaaccent" unicode="&#x156;" horiz-adv-x="566" 
d="M566 0h-116l-166 242h-100v-242h-94v637h185q106 0 163 -51.5t57 -137.5q0 -58 -31.5 -106.5t-89.5 -72.5zM184 321h85q62 0 95 33.5t33 87.5q0 114 -133 114h-80v-235zM248 -240l-57 30q40 49 56 86.5t19 82.5h78q0 -108 -96 -199z" />
    <glyph glyph-name="rcommaaccent" unicode="&#x157;" horiz-adv-x="356" 
d="M330 441v-77q-18 8 -45 8q-68 0 -122 -47v-325h-83v445h73l10 -46q55 56 119 56q28 0 48 -14zM64 -240l-57 30q40 49 56 86.5t19 82.5h78q0 -108 -96 -199z" />
    <glyph glyph-name="Rcaron" unicode="&#x158;" horiz-adv-x="566" 
d="M566 0h-116l-166 242h-100v-242h-94v637h185q106 0 163 -51.5t57 -137.5q0 -58 -31.5 -106.5t-89.5 -72.5zM184 321h85q62 0 95 33.5t33 87.5q0 114 -133 114h-80v-235zM131 789l66 8l74 -60l73 60l63 -8l-87 -104h-102z" />
    <glyph glyph-name="rcaron" unicode="&#x159;" horiz-adv-x="356" 
d="M330 441v-77q-18 8 -45 8q-68 0 -122 -47v-325h-83v445h73l10 -46q55 56 119 56q28 0 48 -14zM61 662l64 12l82 -107l81 107l61 -12l-96 -158h-96z" />
    <glyph glyph-name="Sacute" unicode="&#x15a;" horiz-adv-x="473" 
d="M429 170q0 -77 -57.5 -128.5t-151.5 -51.5q-113 0 -172 46l8 96q64 -56 164 -56q110 0 110 87q0 32 -28.5 58.5t-69.5 47t-82 44t-69.5 62t-28.5 89.5q0 79 59 131t156 52t140 -29v-96q-20 17 -59.5 28t-80.5 11q-57 0 -86.5 -23t-29.5 -66q0 -31 28.5 -55.5t69.5 -45
t82 -44t69.5 -64t28.5 -93.5zM275 682l-63 14l65 98h115z" />
    <glyph glyph-name="sacute" unicode="&#x15b;" horiz-adv-x="384" 
d="M49 23l6 86q40 -42 122 -42q79 0 79 56q0 21 -21 36t-51.5 27t-61 26.5t-51.5 42t-21 65.5q0 60 45.5 97.5t116.5 37.5q74 0 115 -27v-89q-15 16 -47 27.5t-66 11.5q-76 0 -76 -54q0 -18 21 -32t51.5 -25.5t61 -27t51.5 -44t21 -68.5q0 -60 -44 -98.5t-122 -38.5
q-86 0 -129 33zM212 500l-62 11l88 159h115z" />
    <glyph glyph-name="Scircumflex" unicode="&#x15c;" horiz-adv-x="473" 
d="M429 170q0 -77 -57.5 -128.5t-151.5 -51.5q-113 0 -172 46l8 96q64 -56 164 -56q110 0 110 87q0 32 -28.5 58.5t-69.5 47t-82 44t-69.5 62t-28.5 89.5q0 79 59 131t156 52t140 -29v-96q-20 17 -59.5 28t-80.5 11q-57 0 -86.5 -23t-29.5 -66q0 -31 28.5 -55.5t69.5 -45
t82 -44t69.5 -64t28.5 -93.5zM396 690l-66 -8l-74 60l-73 -60l-63 8l87 104h102z" />
    <glyph glyph-name="scircumflex" unicode="&#x15d;" horiz-adv-x="384" 
d="M49 23l6 86q40 -42 122 -42q79 0 79 56q0 21 -21 36t-51.5 27t-61 26.5t-51.5 42t-21 65.5q0 60 45.5 97.5t116.5 37.5q74 0 115 -27v-89q-15 16 -47 27.5t-66 11.5q-76 0 -76 -54q0 -18 21 -32t51.5 -25.5t61 -27t51.5 -44t21 -68.5q0 -60 -44 -98.5t-122 -38.5
q-86 0 -129 33zM354 512l-64 -12l-82 107l-81 -107l-61 12l96 158h96z" />
    <glyph glyph-name="Scedilla" unicode="&#x15e;" horiz-adv-x="473" 
d="M429 170q0 -77 -57.5 -128.5t-151.5 -51.5q-113 0 -172 46l8 96q64 -56 164 -56q110 0 110 87q0 32 -28.5 58.5t-69.5 47t-82 44t-69.5 62t-28.5 89.5q0 79 59 131t156 52t140 -29v-96q-20 17 -59.5 28t-80.5 11q-57 0 -86.5 -23t-29.5 -66q0 -31 28.5 -55.5t69.5 -45
t82 -44t69.5 -64t28.5 -93.5zM126 -203v60q29 -22 77 -22q34 0 34 27q0 17 -29.5 34.5t-35.5 24.5l30 53h46l-11 -26q4 -3 19 -12t24.5 -16.5t18 -23t8.5 -35.5q0 -36 -27.5 -59.5t-73.5 -23.5q-54 0 -80 19z" />
    <glyph glyph-name="scedilla" unicode="&#x15f;" horiz-adv-x="384" 
d="M49 23l6 86q40 -42 122 -42q79 0 79 56q0 21 -21 36t-51.5 27t-61 26.5t-51.5 42t-21 65.5q0 60 45.5 97.5t116.5 37.5q74 0 115 -27v-89q-15 16 -47 27.5t-66 11.5q-76 0 -76 -54q0 -18 21 -32t51.5 -25.5t61 -27t51.5 -44t21 -68.5q0 -60 -44 -98.5t-122 -38.5
q-86 0 -129 33zM91 -203v60q29 -22 77 -22q34 0 34 27q0 17 -29.5 34.5t-35.5 24.5l30 53h46l-11 -26q4 -3 19 -12t24.5 -16.5t18 -23t8.5 -35.5q0 -36 -27.5 -59.5t-73.5 -23.5q-54 0 -80 19z" />
    <glyph glyph-name="Scaron" unicode="&#x160;" horiz-adv-x="473" 
d="M429 170q0 -77 -57.5 -128.5t-151.5 -51.5q-113 0 -172 46l8 96q64 -56 164 -56q110 0 110 87q0 32 -28.5 58.5t-69.5 47t-82 44t-69.5 62t-28.5 89.5q0 79 59 131t156 52t140 -29v-96q-20 17 -59.5 28t-80.5 11q-57 0 -86.5 -23t-29.5 -66q0 -31 28.5 -55.5t69.5 -45
t82 -44t69.5 -64t28.5 -93.5zM120 789l66 8l74 -60l73 60l63 -8l-87 -104h-102z" />
    <glyph glyph-name="scaron" unicode="&#x161;" horiz-adv-x="384" 
d="M49 23l6 86q40 -42 122 -42q79 0 79 56q0 21 -21 36t-51.5 27t-61 26.5t-51.5 42t-21 65.5q0 60 45.5 97.5t116.5 37.5q74 0 115 -27v-89q-15 16 -47 27.5t-66 11.5q-76 0 -76 -54q0 -18 21 -32t51.5 -25.5t61 -27t51.5 -44t21 -68.5q0 -60 -44 -98.5t-122 -38.5
q-86 0 -129 33zM66 662l64 12l82 -107l81 107l61 -12l-96 -158h-96z" />
    <glyph glyph-name="Tcommaaccent" unicode="&#x162;" horiz-adv-x="561" 
d="M537 550h-209v-550h-95v550h-209v87h513v-87zM187 -203v60q29 -22 77 -22q34 0 34 27q0 17 -29.5 34.5t-35.5 24.5l30 53h46l-11 -26q4 -3 19 -12t24.5 -16.5t18 -23t8.5 -35.5q0 -36 -27.5 -59.5t-73.5 -23.5q-54 0 -80 19z" />
    <glyph glyph-name="tcommaaccent" unicode="&#x163;" horiz-adv-x="334" 
d="M308 106v-72q-37 -44 -104 -44q-52 0 -83 27.5t-31 80.5v274h-75v73h75v98l83 20v-118h117v-73h-117v-262q0 -42 53 -42q51 0 82 38zM97 -203v60q29 -22 77 -22q34 0 34 27q0 17 -29.5 34.5t-35.5 24.5l30 53h46l-11 -26q4 -3 19 -12t24.5 -16.5t18 -23t8.5 -35.5
q0 -36 -27.5 -59.5t-73.5 -23.5q-54 0 -80 19z" />
    <glyph glyph-name="Tcaron" unicode="&#x164;" horiz-adv-x="561" 
d="M537 550h-209v-550h-95v550h-209v87h513v-87zM142 789l66 8l74 -60l73 60l63 -8l-87 -104h-102z" />
    <glyph glyph-name="tcaron" unicode="&#x165;" horiz-adv-x="334" 
d="M308 106v-72q-37 -44 -104 -44q-52 0 -83 27.5t-31 80.5v274h-75v73h75v98l83 20v-118h117v-73h-117v-262q0 -42 53 -42q51 0 82 38zM269 476l-56 30q39 48 55 84.5t19 80.5h76q0 -106 -94 -195z" />
    <glyph glyph-name="Tbar" unicode="&#x166;" horiz-adv-x="561" 
d="M414 266h-86v-266h-95v266h-86v77h86v207h-209v87h513v-87h-209v-207h86v-77z" />
    <glyph glyph-name="tbar" unicode="&#x167;" horiz-adv-x="334" 
d="M276 221h-103v-111q0 -42 53 -42q51 0 82 38v-72q-37 -44 -104 -44q-52 0 -83 27.5t-31 80.5v123h-60v68h60v83h-75v73h75v98l83 20v-118h117v-73h-117v-83h103v-68z" />
    <glyph glyph-name="Utilde" unicode="&#x168;" horiz-adv-x="672" 
d="M588 637v-417q0 -103 -70.5 -166.5t-181.5 -63.5q-116 0 -184 63t-68 167v417h95v-381q0 -89 38 -131t121 -42q82 0 120.5 42t38.5 131v381h91zM448 795l35 -27q-28 -46 -48.5 -62.5t-44.5 -16.5q-28 0 -71 19l-38 17l-46 -46l-35 27q28 46 48.5 62.5t44.5 16.5
q28 0 71 -19l38 -17z" />
    <glyph glyph-name="utilde" unicode="&#x169;" horiz-adv-x="520" 
d="M75 445h83v-318q0 -59 74 -59q28 0 65 14t60 32v331h83v-445h-73l-9 42q-71 -52 -150 -52q-133 0 -133 135v320zM414 624q-36 -60 -57 -80t-46 -20q-24 0 -73 24l-35 17l-61 -64l-36 28q36 60 57 80t46 20q24 0 73 -24l35 -17l61 64z" />
    <glyph glyph-name="Umacron" unicode="&#x16a;" horiz-adv-x="672" 
d="M588 637v-417q0 -103 -70.5 -166.5t-181.5 -63.5q-116 0 -184 63t-68 167v417h95v-381q0 -89 38 -131t121 -42q82 0 120.5 42t38.5 131v381h91zM457 703h-232v67h232v-67z" />
    <glyph glyph-name="umacron" unicode="&#x16b;" horiz-adv-x="520" 
d="M75 445h83v-318q0 -59 74 -59q28 0 65 14t60 32v331h83v-445h-73l-9 42q-71 -52 -150 -52q-133 0 -133 135v320zM376 533h-232v69h232v-69z" />
    <glyph glyph-name="Ubreve" unicode="&#x16c;" horiz-adv-x="672" 
d="M588 637v-417q0 -103 -70.5 -166.5t-181.5 -63.5q-116 0 -184 63t-68 167v417h95v-381q0 -89 38 -131t121 -42q82 0 120.5 42t38.5 131v381h91zM412 798l56 -12q-9 -52 -43 -78t-84 -26t-84 26t-43 78l58 12q7 -28 23 -41t47 -13q30 0 46 13t24 41z" />
    <glyph glyph-name="ubreve" unicode="&#x16d;" horiz-adv-x="520" 
d="M75 445h83v-318q0 -59 74 -59q28 0 65 14t60 32v331h83v-445h-73l-9 42q-71 -52 -150 -52q-133 0 -133 135v320zM343 672l61 -12q-2 -76 -43 -118t-101 -42t-101.5 42t-42.5 118l63 12q6 -53 25 -78t57 -25q73 0 82 103z" />
    <glyph glyph-name="Uring" unicode="&#x16e;" horiz-adv-x="672" 
d="M588 637v-417q0 -103 -70.5 -166.5t-181.5 -63.5q-116 0 -184 63t-68 167v417h95v-381q0 -89 38 -131t121 -42q82 0 120.5 42t38.5 131v381h91zM433 762q0 -39 -25 -63.5t-66 -24.5q-43 0 -67.5 24.5t-24.5 63.5t25 63t66 24q43 0 67.5 -24.5t24.5 -62.5zM341 723
q41 0 41 39q0 38 -41 38q-40 0 -40 -38q0 -39 40 -39z" />
    <glyph glyph-name="uring" unicode="&#x16f;" horiz-adv-x="520" 
d="M75 445h83v-318q0 -59 74 -59q28 0 65 14t60 32v331h83v-445h-73l-9 42q-71 -52 -150 -52q-133 0 -133 135v320zM351 587q0 -39 -25 -63.5t-66 -24.5q-43 0 -67.5 24.5t-24.5 63.5t25 63t66 24q43 0 67.5 -24.5t24.5 -62.5zM259 548q41 0 41 39q0 38 -41 38
q-40 0 -40 -38q0 -39 40 -39z" />
    <glyph glyph-name="Uhungarumlaut" unicode="&#x170;" horiz-adv-x="672" 
d="M588 637v-417q0 -103 -70.5 -166.5t-181.5 -63.5q-116 0 -184 63t-68 167v417h95v-381q0 -89 38 -131t121 -42q82 0 120.5 42t38.5 131v381h91zM420 682l-56 14l63 98h106zM285 682l-56 14l63 98h106z" />
    <glyph glyph-name="uhungarumlaut" unicode="&#x171;" horiz-adv-x="520" 
d="M75 445h83v-318q0 -59 74 -59q28 0 65 14t60 32v331h83v-445h-73l-9 42q-71 -52 -150 -52q-133 0 -133 135v320zM341 500l-57 11l79 159h106zM207 500l-57 11l79 159h106z" />
    <glyph glyph-name="Uogonek" unicode="&#x172;" horiz-adv-x="672" 
d="M481 -144v-55q-28 -23 -67 -23q-44 0 -70.5 21.5t-26.5 61.5q0 62 62 132q-18 -3 -43 -3q-116 0 -184 63t-68 167v417h95v-381q0 -89 38 -131t121 -42q82 0 120.5 42t38.5 131v381h91v-417q0 -128 -104 -191q-55 -56 -75.5 -90t-20.5 -64q0 -39 44 -39q27 0 49 20z" />
    <glyph glyph-name="uogonek" unicode="&#x173;" horiz-adv-x="520" 
d="M75 445h83v-318q0 -59 74 -59q28 0 65 14t60 32v331h83v-445q-72 -71 -72 -125q0 -39 44 -39q27 0 49 20v-55q-28 -23 -67 -23q-46 0 -71.5 22.5t-25.5 60.5q0 66 70 139l-9 42q-71 -52 -150 -52q-133 0 -133 135v320z" />
    <glyph glyph-name="Wcircumflex" unicode="&#x174;" horiz-adv-x="969" 
d="M932 637l-213 -637h-96l-124 370l-15 59l-14 -59l-128 -370h-96l-205 637h102l141 -464l15 -65l14 65l129 371l-35 93h101l149 -464l15 -65l14 65l149 464h97zM622 690l-66 -8l-74 60l-73 -60l-63 8l87 104h102z" />
    <glyph glyph-name="wcircumflex" unicode="&#x175;" horiz-adv-x="733" 
d="M713 445l-175 -445h-72l-86 264l-11 47l-13 -47l-102 -264h-72l-149 440l88 10l95 -295l11 -47l13 47l89 234l-17 51l88 10l98 -295l12 -47l12 47l104 290h87zM515 512l-64 -12l-82 107l-81 -107l-61 12l96 158h96z" />
    <glyph glyph-name="Ycircumflex" unicode="&#x176;" horiz-adv-x="563" 
d="M551 637l-222 -378v-259h-95v259l-211 378h109l138 -258l15 -33l15 33l148 258h103zM425 690l-66 -8l-74 60l-73 -60l-63 8l87 104h102z" />
    <glyph glyph-name="ycircumflex" unicode="&#x177;" horiz-adv-x="477" 
d="M458 445l-176 -445q-67 -170 -122 -250l-76 34q55 77 115 216l-182 440l89 10l121 -303l15 -49l14 49l112 298h90zM385 512l-64 -12l-82 107l-81 -107l-61 12l96 158h96z" />
    <glyph glyph-name="Ydieresis" unicode="&#x178;" horiz-adv-x="563" 
d="M551 637l-222 -378v-259h-95v259l-211 378h109l138 -258l15 -33l15 33l148 258h103zM253 737q0 -20 -13.5 -33.5t-36.5 -13.5t-35.5 13.5t-12.5 33.5t12.5 33.5t36.5 13.5q22 0 35.5 -13.5t13.5 -33.5zM417 737q0 -20 -13 -33.5t-37 -13.5q-22 0 -35 13.5t-13 33.5
t13 33.5t36 13.5t36 -13.5t13 -33.5z" />
    <glyph glyph-name="Zacute" unicode="&#x179;" horiz-adv-x="579" 
d="M539 0h-505v73l380 477h-346v87h464v-73l-380 -477h387v-87zM313 682l-63 14l65 98h115z" />
    <glyph glyph-name="zacute" unicode="&#x17a;" horiz-adv-x="434" 
d="M397 0h-363v73l252 299h-233v73h332v-73l-252 -299h264v-73zM234 500l-62 11l88 159h115z" />
    <glyph glyph-name="Zdotaccent" unicode="&#x17b;" horiz-adv-x="579" 
d="M539 0h-505v73l380 477h-346v87h464v-73l-380 -477h387v-87zM353 742q0 -25 -15.5 -41.5t-42.5 -16.5q-26 0 -41.5 17t-15.5 41q0 26 15.5 42.5t42.5 16.5q26 0 41.5 -17t15.5 -42z" />
    <glyph glyph-name="zdotaccent" unicode="&#x17c;" horiz-adv-x="434" 
d="M397 0h-363v73l252 299h-233v73h332v-73l-252 -299h264v-73zM275 569q0 -25 -15.5 -41.5t-42.5 -16.5q-26 0 -41.5 17t-15.5 41q0 26 15.5 42.5t42.5 16.5q26 0 41.5 -17t15.5 -42z" />
    <glyph glyph-name="Zcaron" unicode="&#x17d;" horiz-adv-x="579" 
d="M539 0h-505v73l380 477h-346v87h464v-73l-380 -477h387v-87zM157 789l66 8l74 -60l73 60l63 -8l-87 -104h-102z" />
    <glyph glyph-name="zcaron" unicode="&#x17e;" horiz-adv-x="434" 
d="M397 0h-363v73l252 299h-233v73h332v-73l-252 -299h264v-73zM73 662l64 12l82 -107l81 107l61 -12l-96 -158h-96z" />
    <glyph glyph-name="longs" unicode="&#x17f;" horiz-adv-x="261" 
d="M163 0h-83v475q0 122 59 184.5t149 62.5q58 0 88 -20v-81q-27 22 -78 22q-135 0 -135 -173v-470z" />
    <glyph glyph-name="uni018F" unicode="&#x18f;" horiz-adv-x="625" 
d="M479 236h-331v-17q0 -65 39.5 -105t114.5 -40q76 0 123.5 47.5t53.5 114.5zM68 494v99q76 54 191 54q146 0 236 -87.5t90 -238.5q0 -152 -81 -241.5t-206 -89.5q-112 0 -180 64t-68 178q0 44 5 86h433q0 113 -65.5 177t-167.5 64q-54 0 -105 -18.5t-82 -46.5z" />
    <glyph glyph-name="florin" unicode="&#x192;" 
d="M269 260v-181q0 -115 -54.5 -181t-134.5 -66q-40 0 -66 16v82q18 -18 59 -18q105 0 105 167v181h-142v73h142v67q0 122 61 184.5t151 62.5q58 0 88 -20v-82q-27 22 -78 22q-131 0 -131 -172v-62h174v-73h-174z" />
    <glyph glyph-name="uni01B5" unicode="&#x1b5;" horiz-adv-x="579" 
d="M456 287h-145l-159 -200h387v-87h-505v73l170 214h-88v71h145l153 192h-346v87h464v-73l-164 -206h88v-71z" />
    <glyph glyph-name="uni01B6" unicode="&#x1b6;" horiz-adv-x="434" 
d="M353 193h-119l-101 -120h264v-73h-363v73l101 120h-61v69h119l93 110h-233v73h332v-73l-93 -110h61v-69z" />
    <glyph glyph-name="Aringacute" unicode="&#x1fa;" horiz-adv-x="635" 
d="M514 0l-70 187h-256l-73 -187h-96l253 637h100l244 -637h-102zM413 762q0 -39 -25 -63.5t-66 -24.5q-43 0 -67.5 24.5t-24.5 63.5q0 57 49 79l49 63h100l-74 -60q28 -8 43.5 -30t15.5 -52zM303 481l-82 -210h192l-79 210l-15 57zM321 723q41 0 41 39q0 38 -41 38
q-40 0 -40 -38q0 -39 40 -39z" />
    <glyph glyph-name="aringacute" unicode="&#x1fb;" horiz-adv-x="435" 
d="M290 26q-55 -36 -126 -36q-52 0 -86.5 28.5t-34.5 79.5q0 67 57 106.5t176 55.5v64q0 26 -17 37q-22 15 -68 15q-40 0 -76 -14t-54 -36v82q45 47 141 47q76 0 116.5 -35.5t40.5 -104.5q0 -7 -2.5 -117t-2.5 -122q18 -12 43 -12q7 0 10 1l-8 -72q-11 -3 -23 -3
q-56 0 -86 36zM297 587q0 -39 -25 -63.5t-66 -24.5q-43 0 -67.5 24.5t-24.5 63.5q0 59 52 80l58 82h100l-83 -81q56 -19 56 -81zM276 82v113q-80 -12 -113 -31t-33 -53q0 -27 16.5 -39t53.5 -12q51 0 76 22zM205 548q41 0 41 39q0 38 -41 38q-40 0 -40 -38q0 -39 40 -39z
" />
    <glyph glyph-name="AEacute" unicode="&#x1fc;" horiz-adv-x="878" 
d="M838 0h-399v278h-210l-111 -278h-99l258 637h550v-87h-293v-185h263v-87h-263v-191h304v-87zM337 550l-74 -185h176v185h-102zM511 682l-63 14l65 98h115z" />
    <glyph glyph-name="aeacute" unicode="&#x1fd;" horiz-adv-x="706" 
d="M200 63q50 0 105 35q-21 36 -26 97q-82 -12 -115.5 -31t-33.5 -53q0 -26 16 -37t54 -11zM502 -10q-97 0 -156 56q-85 -56 -174 -56q-58 0 -93.5 28t-35.5 80q0 67 57.5 106.5t178.5 55.5v64q0 26 -17 37q-22 15 -71 15q-40 0 -76 -14t-54 -36v82q45 47 141 47
q102 0 140 -60q56 60 145 60q80 0 128 -46t48 -127q0 -42 -3 -72h-303q1 -64 44.5 -102t113.5 -38q85 0 134 49v-85q-53 -44 -147 -44zM364 280h213v13q0 87 -98 87q-48 0 -78.5 -29t-36.5 -71zM379 500l-62 11l88 159h115z" />
    <glyph glyph-name="Oslashacute" unicode="&#x1fe;" horiz-adv-x="737" 
d="M366 -10q-88 0 -160 37l-58 -83h-79l82 118q-111 90 -111 250q0 149 97.5 242t233.5 93q88 0 163 -39l60 85h79l-85 -121q109 -91 109 -247q0 -149 -97.5 -242t-233.5 -93zM141 312q0 -109 64 -173l277 395q-52 26 -111 26q-101 0 -165.5 -68t-64.5 -180zM366 77
q101 0 165.5 68t64.5 180q0 105 -62 170l-276 -394q46 -24 108 -24zM392 682l-63 14l65 98h115z" />
    <glyph glyph-name="oslashacute" unicode="&#x1ff;" horiz-adv-x="527" 
d="M494 224q0 -100 -67.5 -167t-164.5 -67q-58 0 -108 24l-49 -70h-73l72 103q-71 65 -71 174q0 100 67.5 167t164.5 67q57 0 108 -24l49 70h73l-73 -104q72 -66 72 -173zM262 69q62 0 103 43t41 112q0 60 -33 103l-172 -246q27 -12 61 -12zM121 221q0 -63 32 -103l172 245
q-29 13 -60 13q-62 0 -103 -43t-41 -112zM277 500l-62 11l88 159h115z" />
    <glyph glyph-name="Scommaaccent" unicode="&#x218;" horiz-adv-x="473" 
d="M429 170q0 -77 -57.5 -128.5t-151.5 -51.5q-113 0 -172 46l8 96q64 -56 164 -56q110 0 110 87q0 32 -28.5 58.5t-69.5 47t-82 44t-69.5 62t-28.5 89.5q0 79 59 131t156 52t140 -29v-96q-20 17 -59.5 28t-80.5 11q-57 0 -86.5 -23t-29.5 -66q0 -31 28.5 -55.5t69.5 -45
t82 -44t69.5 -64t28.5 -93.5zM173 -240l-57 30q40 49 56 86.5t19 82.5h78q0 -108 -96 -199z" />
    <glyph glyph-name="scommaaccent" unicode="&#x219;" horiz-adv-x="384" 
d="M49 23l6 86q40 -42 122 -42q79 0 79 56q0 21 -21 36t-51.5 27t-61 26.5t-51.5 42t-21 65.5q0 60 45.5 97.5t116.5 37.5q74 0 115 -27v-89q-15 16 -47 27.5t-66 11.5q-76 0 -76 -54q0 -18 21 -32t51.5 -25.5t61 -27t51.5 -44t21 -68.5q0 -60 -44 -98.5t-122 -38.5
q-86 0 -129 33zM128 -240l-57 30q40 49 56 86.5t19 82.5h78q0 -108 -96 -199z" />
    <glyph glyph-name="uni021A" unicode="&#x21a;" horiz-adv-x="561" 
d="M537 550h-209v-550h-95v550h-209v87h513v-87zM226 -240l-57 30q40 49 56 86.5t19 82.5h78q0 -108 -96 -199z" />
    <glyph glyph-name="uni021B" unicode="&#x21b;" horiz-adv-x="334" 
d="M308 106v-72q-37 -44 -104 -44q-52 0 -83 27.5t-31 80.5v274h-75v73h75v98l83 20v-118h117v-73h-117v-262q0 -42 53 -42q51 0 82 38zM150 -240l-57 30q40 49 56 86.5t19 82.5h78q0 -108 -96 -199z" />
    <glyph glyph-name="uni0237" unicode="&#x237;" horiz-adv-x="246" 
d="M-3 -217l63 146q23 54 23 106v410h83v-410q0 -74 -25 -133l-67 -152z" />
    <glyph glyph-name="circumflex" unicode="&#x2c6;" horiz-adv-x="450" 
d="M369 512l-64 -12l-82 107l-81 -107l-61 12l96 158h96z" />
    <glyph glyph-name="ring" unicode="&#x2da;" horiz-adv-x="450" 
d="M316 587q0 -39 -25 -63.5t-66 -24.5q-43 0 -67.5 24.5t-24.5 63.5t25 63t66 24q43 0 67.5 -24.5t24.5 -62.5zM224 548q41 0 41 39q0 38 -41 38q-40 0 -40 -38q0 -39 40 -39z" />
    <glyph glyph-name="tilde" unicode="&#x2dc;" horiz-adv-x="450" 
d="M379 624q-36 -60 -57 -80t-46 -20q-24 0 -73 24l-35 17l-61 -64l-36 28q36 60 57 80t46 20q24 0 73 -24l35 -17l61 64z" />
    <glyph glyph-name="Wgrave" unicode="&#x1e80;" horiz-adv-x="969" 
d="M932 637l-213 -637h-96l-124 370l-15 59l-14 -59l-128 -370h-96l-205 637h102l141 -464l15 -65l14 65l129 371l-35 93h101l149 -464l15 -65l14 65l149 464h97zM518 696l-63 -14l-117 112h115z" />
    <glyph glyph-name="wgrave" unicode="&#x1e81;" horiz-adv-x="733" 
d="M713 445l-175 -445h-72l-86 264l-11 47l-13 -47l-102 -264h-72l-149 440l88 10l95 -295l11 -47l13 47l89 234l-17 51l88 10l98 -295l12 -47l12 47l104 290h87zM415 511l-62 -11l-141 170h115z" />
    <glyph glyph-name="Wacute" unicode="&#x1e82;" horiz-adv-x="969" 
d="M932 637l-213 -637h-96l-124 370l-15 59l-14 -59l-128 -370h-96l-205 637h102l141 -464l15 -65l14 65l129 371l-35 93h101l149 -464l15 -65l14 65l149 464h97zM490 682l-63 14l65 98h115z" />
    <glyph glyph-name="wacute" unicode="&#x1e83;" horiz-adv-x="733" 
d="M713 445l-175 -445h-72l-86 264l-11 47l-13 -47l-102 -264h-72l-149 440l88 10l95 -295l11 -47l13 47l89 234l-17 51l88 10l98 -295l12 -47l12 47l104 290h87zM399 500l-62 11l88 159h115z" />
    <glyph glyph-name="Wdieresis" unicode="&#x1e84;" horiz-adv-x="969" 
d="M932 637l-213 -637h-96l-124 370l-15 59l-14 -59l-128 -370h-96l-205 637h102l141 -464l15 -65l14 65l129 371l-35 93h101l149 -464l15 -65l14 65l149 464h97zM451 737q0 -20 -13.5 -33.5t-36.5 -13.5t-35.5 13.5t-12.5 33.5t12.5 33.5t36.5 13.5q22 0 35.5 -13.5
t13.5 -33.5zM615 737q0 -20 -13 -33.5t-37 -13.5q-22 0 -35 13.5t-13 33.5t13 33.5t36 13.5t36 -13.5t13 -33.5z" />
    <glyph glyph-name="wdieresis" unicode="&#x1e85;" horiz-adv-x="733" 
d="M713 445l-175 -445h-72l-86 264l-11 47l-13 -47l-102 -264h-72l-149 440l88 10l95 -295l11 -47l13 47l89 234l-17 51l88 10l98 -295l12 -47l12 47l104 290h87zM334 560q0 -21 -13.5 -35t-37.5 -14t-37 14t-13 35t13 35t37 14t37.5 -14t13.5 -35zM505 560q0 -21 -13.5 -35
t-37.5 -14t-37 14t-13 35t13 35t37 14t37.5 -14t13.5 -35z" />
    <glyph glyph-name="uni1E8A" unicode="&#x1e8a;" horiz-adv-x="610" 
d="M582 0h-113l-166 250l-169 -250h-106l218 316l-218 321h113l166 -250l169 250h106l-219 -316zM363 742q0 -25 -15.5 -41.5t-42.5 -16.5q-26 0 -41.5 17t-15.5 41q0 26 15.5 42.5t42.5 16.5q26 0 41.5 -17t15.5 -42z" />
    <glyph glyph-name="uni1E8B" unicode="&#x1e8b;" horiz-adv-x="469" 
d="M452 0h-105l-118 167l-119 -167h-97l170 227l-155 213l97 10l114 -162l109 157h95l-158 -217zM292 569q0 -25 -15.5 -41.5t-42.5 -16.5q-26 0 -41.5 17t-15.5 41q0 26 15.5 42.5t42.5 16.5q26 0 41.5 -17t15.5 -42z" />
    <glyph glyph-name="Ygrave" unicode="&#x1ef2;" horiz-adv-x="563" 
d="M551 637l-222 -378v-259h-95v259l-211 378h109l138 -258l15 -33l15 33l148 258h103zM331 696l-63 -14l-117 112h115z" />
    <glyph glyph-name="ygrave" unicode="&#x1ef3;" horiz-adv-x="477" 
d="M458 445l-176 -445q-67 -170 -122 -250l-76 34q55 77 115 216l-182 440l89 10l121 -303l15 -49l14 49l112 298h90zM284 511l-62 -11l-141 170h115z" />
    <glyph glyph-name="uni2007" unicode="&#x2007;" horiz-adv-x="480" 
 />
    <glyph glyph-name="uni2008" unicode="&#x2008;" horiz-adv-x="253" 
 />
    <glyph glyph-name="uni200B" unicode="&#x200b;" horiz-adv-x="0" 
 />
    <glyph glyph-name="endash" unicode="&#x2013;" horiz-adv-x="450" 
d="M380 199h-310v82h310v-82z" />
    <glyph glyph-name="emdash" unicode="&#x2014;" horiz-adv-x="900" 
d="M830 199h-760v82h760v-82z" />
    <glyph glyph-name="quoteleft" unicode="&#x2018;" horiz-adv-x="212" 
d="M131 712l59 -30q-40 -87 -55.5 -132.5t-20.5 -94.5h-82q3 59 22.5 111.5t76.5 145.5z" />
    <glyph glyph-name="quoteright" unicode="&#x2019;" horiz-adv-x="212" 
d="M81 445l-59 30q40 87 55.5 132.5t20.5 94.5h82q-3 -59 -22.5 -111.5t-76.5 -145.5z" />
    <glyph glyph-name="quotesinglbase" unicode="&#x201a;" horiz-adv-x="212" 
d="M81 -156l-59 30q40 87 55.5 132.5t20.5 94.5h82q-3 -59 -22.5 -111.5t-76.5 -145.5z" />
    <glyph glyph-name="quotedblleft" unicode="&#x201c;" horiz-adv-x="375" 
d="M131 712l59 -30q-40 -87 -55.5 -132.5t-20.5 -94.5h-82q3 59 22.5 111.5t76.5 145.5zM294 712l59 -30q-40 -87 -55.5 -132.5t-20.5 -94.5h-82q3 59 22.5 111.5t76.5 145.5z" />
    <glyph glyph-name="quotedblright" unicode="&#x201d;" horiz-adv-x="375" 
d="M81 445l-59 30q40 87 55.5 132.5t20.5 94.5h82q-3 -59 -22.5 -111.5t-76.5 -145.5zM244 445l-59 30q40 87 55.5 132.5t20.5 94.5h82q-3 -59 -22.5 -111.5t-76.5 -145.5z" />
    <glyph glyph-name="quotedblbase" unicode="&#x201e;" horiz-adv-x="375" 
d="M81 -156l-59 30q40 87 55.5 132.5t20.5 94.5h82q-3 -59 -22.5 -111.5t-76.5 -145.5zM244 -156l-59 30q40 87 55.5 132.5t20.5 94.5h82q-3 -59 -22.5 -111.5t-76.5 -145.5z" />
    <glyph glyph-name="dagger" unicode="&#x2020;" 
d="M292 -163h-83v512h-164v80h164v208h83v-208h163v-80h-163v-512z" />
    <glyph glyph-name="daggerdbl" unicode="&#x2021;" 
d="M45 125h164v224h-164v80h164v208h83v-208h163v-80h-163v-224h163v-80h-163v-208h-83v208h-164v80z" />
    <glyph glyph-name="bullet" unicode="&#x2022;" horiz-adv-x="278" 
d="M232 221q0 -41 -25.5 -66.5t-68.5 -25.5q-42 0 -67 26.5t-25 65.5q0 42 25 68t69 26q42 0 67 -27t25 -67z" />
    <glyph glyph-name="ellipsis" unicode="&#x2026;" horiz-adv-x="727" 
d="M188 51q0 -27 -16.5 -44t-45.5 -17q-28 0 -44.5 17.5t-16.5 43.5q0 28 16.5 45t45.5 17q28 0 44.5 -18t16.5 -44zM427 51q0 -27 -16.5 -44t-45.5 -17q-28 0 -44.5 17.5t-16.5 43.5q0 28 16.5 45t45.5 17q28 0 44.5 -18t16.5 -44zM665 51q0 -27 -16.5 -44t-45.5 -17
q-28 0 -44.5 17.5t-16.5 43.5q0 28 16.5 45t45.5 17q28 0 44.5 -18t16.5 -44z" />
    <glyph glyph-name="perthousand" unicode="&#x2030;" horiz-adv-x="1089" 
d="M181 326q-61 0 -104.5 39.5t-43.5 111.5q0 70 44 110.5t105 40.5t104.5 -39.5t43.5 -111.5q0 -70 -44 -110.5t-105 -40.5zM181 391q76 0 76 86t-75 86q-76 0 -76 -86t75 -86zM561 7q-61 0 -104.5 39.5t-43.5 111.5q0 70 44 110.5t105 40.5t104.5 -39.5t43.5 -111.5
q0 -70 -44 -110.5t-105 -40.5zM561 72q76 0 76 86t-75 86q-76 0 -76 -86t75 -86zM907 7q-61 0 -104.5 39.5t-43.5 111.5q0 70 44 110.5t105 40.5t104.5 -39.5t43.5 -111.5q0 -70 -44 -110.5t-105 -40.5zM907 72q76 0 76 86t-75 86q-76 0 -76 -86t75 -86zM165 -23l361 697
l52 -16l-361 -697z" />
    <glyph glyph-name="guilsinglleft" unicode="&#x2039;" horiz-adv-x="334" 
d="M284 26h-82l-152 196l155 196h79l-126 -195z" />
    <glyph glyph-name="guilsinglright" unicode="&#x203a;" horiz-adv-x="334" 
d="M50 418h82l152 -196l-155 -196h-79l126 195z" />
    <glyph glyph-name="fraction" unicode="&#x2044;" horiz-adv-x="125" 
d="M-194 -24l464 698l49 -15l-464 -698z" />
    <glyph glyph-name="uni2074" unicode="&#x2074;" horiz-adv-x="320" 
d="M272 397h-34v-79h-58v79h-133v55q53 85 70 120t22 65h53q-2 -32 -19.5 -69.5t-72.5 -121.5h80l10 73h48v-71h37z" />
    <glyph glyph-name="Euro" unicode="&#x20ac;" 
d="M37 409h53q17 119 81.5 178.5t162.5 59.5q78 0 118 -28v-94q-16 17 -48.5 29.5t-69.5 12.5q-63 0 -100.5 -35.5t-50.5 -122.5h225v-51h-229q-1 -13 -1 -39q0 -25 1 -36h229v-51h-225q11 -87 47.5 -124.5t101.5 -37.5q81 0 131 61v-90q-17 -22 -56 -36.5t-83 -14.5
q-206 0 -235 242h-52v51h47v36q0 26 1 39h-48v51z" />
    <glyph glyph-name="minus" unicode="&#x2212;" 
d="M438 193h-377v61h377v-61z" />
    <glyph glyph-name="i.latn_TRK" horiz-adv-x="243" 
d="M179 605q0 -25 -15.5 -41.5t-42.5 -16.5q-26 0 -41.5 16.5t-15.5 41.5q0 26 15.5 42.5t42.5 16.5q26 0 41.5 -16.5t15.5 -42.5zM163 0h-83v445h83v-445z" />
    <glyph glyph-name="Ldot.latn_CAT" horiz-adv-x="506" 
d="M482 0h-392v637h95v-550h297v-87zM454 371q0 -25 -15.5 -41.5t-42.5 -16.5q-26 0 -41.5 17t-15.5 41q0 26 15.5 42.5t42.5 16.5q26 0 41.5 -17t15.5 -42z" />
    <glyph glyph-name="ldot.latn_CAT" horiz-adv-x="333" 
d="M163 0h-83v702l83 20v-722zM333 371q0 -25 -15.5 -41.5t-42.5 -16.5q-26 0 -41.5 17t-15.5 41q0 26 15.5 42.5t42.5 16.5q26 0 41.5 -17t15.5 -42z" />
    </font>
</defs>
</svg>
